<mxfile modified="2021-09-23T18:21:03.729Z" host="app.diagrams.net" agent="5.0 (Windows NT 10.0; Win64; x64) AppleWebKit/537.36 (KHTML, like Gecko) Chrome/94.0.4606.54 Safari/537.36" etag="s73hkROZGgjd5LPt4Vji" version="15.2.9" type="github">
  <diagram id="f106602c-feb2-e66a-4537-3a34d633f6aa" name="Page-1">
    <mxGraphModel dx="1662" dy="705" grid="1" gridSize="10" guides="1" tooltips="1" connect="1" arrows="1" fold="1" page="1" pageScale="1" pageWidth="1169" pageHeight="827" background="none" math="0" shadow="0">
      <root>
        <mxCell id="0" />
        <mxCell id="1" parent="0" />
        <mxCell id="14" value="&lt;b&gt;Google &lt;/b&gt;Cloud Platform" style="fillColor=#F6F6F6;strokeColor=none;shadow=0;gradientColor=none;fontSize=14;align=left;spacing=10;fontColor=#717171;9E9E9E;verticalAlign=top;spacingTop=-4;fontStyle=0;spacingLeft=40;html=1;" parent="1" vertex="1">
          <mxGeometry x="549.88" y="344" width="380" height="370" as="geometry" />
        </mxCell>
        <mxCell id="15" value="" style="shape=mxgraph.gcp2.google_cloud_platform;fillColor=#F6F6F6;strokeColor=none;shadow=0;gradientColor=none;" parent="14" vertex="1">
          <mxGeometry width="23" height="20" relative="1" as="geometry">
            <mxPoint x="20" y="10" as="offset" />
          </mxGeometry>
        </mxCell>
        <mxCell id="W9F80Ph5MEACYcCJeCzE-693" value="" style="sketch=0;aspect=fixed;html=1;points=[];align=center;image;fontSize=12;image=img/lib/mscae/Docker.svg;" parent="1" vertex="1">
          <mxGeometry x="890.24" y="120" width="109.76" height="90" as="geometry" />
        </mxCell>
        <mxCell id="W9F80Ph5MEACYcCJeCzE-701" value="Compute&#xa;Engine" style="sketch=0;html=1;fillColor=#5184F3;strokeColor=none;verticalAlign=top;labelPosition=center;verticalLabelPosition=bottom;align=center;spacingTop=-6;fontSize=11;fontStyle=1;fontColor=#999999;shape=mxgraph.gcp2.hexIcon;prIcon=compute_engine" parent="1" vertex="1">
          <mxGeometry x="947.88" y="554" width="120" height="98" as="geometry" />
        </mxCell>
        <mxCell id="W9F80Ph5MEACYcCJeCzE-705" value="Cloud SDK" style="sketch=0;html=1;fillColor=#5184F3;strokeColor=none;verticalAlign=top;labelPosition=center;verticalLabelPosition=bottom;align=center;spacingTop=-6;fontSize=11;fontStyle=1;fontColor=#999999;shape=mxgraph.gcp2.hexIcon;prIcon=placeholder" parent="1" vertex="1">
          <mxGeometry x="941.76" y="434" width="121" height="100" as="geometry" />
        </mxCell>
        <mxCell id="W9F80Ph5MEACYcCJeCzE-706" value="Me" style="shape=umlActor;verticalLabelPosition=bottom;verticalAlign=top;html=1;outlineConnect=0;" parent="1" vertex="1">
          <mxGeometry x="109" y="180" width="100" height="110" as="geometry" />
        </mxCell>
        <mxCell id="W9F80Ph5MEACYcCJeCzE-710" value="" style="aspect=fixed;html=1;points=[];align=center;image;fontSize=12;image=img/lib/azure2/databases/Azure_SQL.svg;" parent="1" vertex="1">
          <mxGeometry x="450" y="577" width="64" height="46" as="geometry" />
        </mxCell>
        <mxCell id="W9F80Ph5MEACYcCJeCzE-711" value="" style="aspect=fixed;html=1;points=[];align=center;image;fontSize=12;image=img/lib/azure2/web/Azure_Media_Service.svg;" parent="1" vertex="1">
          <mxGeometry x="450" y="643" width="68" height="68" as="geometry" />
        </mxCell>
        <mxCell id="W9F80Ph5MEACYcCJeCzE-716" value="Client" style="shape=umlActor;verticalLabelPosition=bottom;verticalAlign=top;html=1;outlineConnect=0;" parent="1" vertex="1">
          <mxGeometry x="374" y="180" width="100" height="110" as="geometry" />
        </mxCell>
        <mxCell id="W9F80Ph5MEACYcCJeCzE-719" value="" style="endArrow=classic;startArrow=classic;html=1;" parent="1" edge="1">
          <mxGeometry width="50" height="50" relative="1" as="geometry">
            <mxPoint x="219" y="250" as="sourcePoint" />
            <mxPoint x="379" y="250" as="targetPoint" />
            <Array as="points">
              <mxPoint x="239" y="250" />
            </Array>
          </mxGeometry>
        </mxCell>
        <mxCell id="rdSZgKfeFoEqGlZAM-YM-18" value="&lt;b&gt;Azure Cloud&lt;/b&gt;" style="fillColor=#F6F6F6;strokeColor=none;shadow=0;gradientColor=none;fontSize=14;align=left;spacing=10;fontColor=#717171;9E9E9E;verticalAlign=top;spacingTop=-4;fontStyle=0;spacingLeft=40;html=1;" vertex="1" parent="1">
          <mxGeometry x="50" y="339" width="380" height="370" as="geometry" />
        </mxCell>
        <mxCell id="rdSZgKfeFoEqGlZAM-YM-37" value="" style="aspect=fixed;html=1;points=[];align=center;image;fontSize=12;image=img/lib/azure2/web/Azure_Media_Service.svg;" vertex="1" parent="rdSZgKfeFoEqGlZAM-YM-18">
          <mxGeometry x="15" y="8" width="28.39" height="28.39" as="geometry" />
        </mxCell>
        <mxCell id="rdSZgKfeFoEqGlZAM-YM-68" value="" style="aspect=fixed;html=1;points=[];align=center;image;fontSize=12;image=img/lib/azure2/databases/Azure_SQL_VM.svg;fillColor=#006600;" vertex="1" parent="rdSZgKfeFoEqGlZAM-YM-18">
          <mxGeometry x="15" y="234" width="64" height="60" as="geometry" />
        </mxCell>
        <mxCell id="rdSZgKfeFoEqGlZAM-YM-70" value="" style="aspect=fixed;html=1;points=[];align=center;image;fontSize=12;image=img/lib/azure2/integration/Software_as_a_Service.svg;fillColor=#006600;" vertex="1" parent="rdSZgKfeFoEqGlZAM-YM-18">
          <mxGeometry x="120" y="53" width="64" height="53" as="geometry" />
        </mxCell>
        <mxCell id="rdSZgKfeFoEqGlZAM-YM-71" value="" style="aspect=fixed;html=1;points=[];align=center;image;fontSize=12;image=img/lib/azure2/web/Azure_Media_Service.svg;fillColor=#006600;" vertex="1" parent="rdSZgKfeFoEqGlZAM-YM-18">
          <mxGeometry x="116" y="137" width="68" height="68" as="geometry" />
        </mxCell>
        <mxCell id="rdSZgKfeFoEqGlZAM-YM-72" value="" style="aspect=fixed;html=1;points=[];align=center;image;fontSize=12;image=img/lib/azure2/general/Information.svg;fillColor=#006600;" vertex="1" parent="rdSZgKfeFoEqGlZAM-YM-18">
          <mxGeometry x="240" y="47.5" width="64" height="64" as="geometry" />
        </mxCell>
        <mxCell id="rdSZgKfeFoEqGlZAM-YM-73" value="" style="aspect=fixed;html=1;points=[];align=center;image;fontSize=12;image=img/lib/azure2/general/Information.svg;fillColor=#006600;" vertex="1" parent="rdSZgKfeFoEqGlZAM-YM-18">
          <mxGeometry x="240" y="47.5" width="64" height="64" as="geometry" />
        </mxCell>
        <mxCell id="rdSZgKfeFoEqGlZAM-YM-77" value="" style="aspect=fixed;html=1;points=[];align=center;image;fontSize=12;image=img/lib/azure2/integration/Software_as_a_Service.svg;fillColor=#006600;" vertex="1" parent="rdSZgKfeFoEqGlZAM-YM-18">
          <mxGeometry x="120" y="53" width="64" height="53" as="geometry" />
        </mxCell>
        <mxCell id="rdSZgKfeFoEqGlZAM-YM-78" value="" style="aspect=fixed;html=1;points=[];align=center;image;fontSize=12;image=img/lib/azure2/web/Azure_Media_Service.svg;fillColor=#006600;" vertex="1" parent="rdSZgKfeFoEqGlZAM-YM-18">
          <mxGeometry x="116" y="137" width="68" height="68" as="geometry" />
        </mxCell>
        <mxCell id="rdSZgKfeFoEqGlZAM-YM-79" value="" style="aspect=fixed;html=1;points=[];align=center;image;fontSize=12;image=img/lib/azure2/general/Information.svg;fillColor=#006600;" vertex="1" parent="rdSZgKfeFoEqGlZAM-YM-18">
          <mxGeometry x="240" y="47.5" width="64" height="64" as="geometry" />
        </mxCell>
        <mxCell id="rdSZgKfeFoEqGlZAM-YM-83" value="" style="aspect=fixed;html=1;points=[];align=center;image;fontSize=12;image=img/lib/azure2/integration/Software_as_a_Service.svg;fillColor=#006600;" vertex="1" parent="rdSZgKfeFoEqGlZAM-YM-18">
          <mxGeometry x="120" y="53" width="64" height="53" as="geometry" />
        </mxCell>
        <mxCell id="rdSZgKfeFoEqGlZAM-YM-84" value="" style="aspect=fixed;html=1;points=[];align=center;image;fontSize=12;image=img/lib/azure2/web/Azure_Media_Service.svg;fillColor=#006600;" vertex="1" parent="rdSZgKfeFoEqGlZAM-YM-18">
          <mxGeometry x="116" y="137" width="68" height="68" as="geometry" />
        </mxCell>
        <mxCell id="rdSZgKfeFoEqGlZAM-YM-93" value="" style="aspect=fixed;html=1;points=[];align=center;image;fontSize=12;image=img/lib/azure2/compute/Cloud_Services_Classic.svg;fillColor=#006600;" vertex="1" parent="rdSZgKfeFoEqGlZAM-YM-18">
          <mxGeometry x="11" y="53" width="72" height="52" as="geometry" />
        </mxCell>
        <mxCell id="rdSZgKfeFoEqGlZAM-YM-96" value="" style="aspect=fixed;html=1;points=[];align=center;image;fontSize=12;image=img/lib/azure2/general/Load_Test.svg;fillColor=#006600;" vertex="1" parent="rdSZgKfeFoEqGlZAM-YM-18">
          <mxGeometry x="11" y="137" width="68" height="66" as="geometry" />
        </mxCell>
        <mxCell id="rdSZgKfeFoEqGlZAM-YM-97" value="" style="aspect=fixed;html=1;points=[];align=center;image;fontSize=12;image=img/lib/azure2/compute/App_Services.svg;" vertex="1" parent="rdSZgKfeFoEqGlZAM-YM-18">
          <mxGeometry x="118" y="221" width="69" height="69" as="geometry" />
        </mxCell>
        <mxCell id="rdSZgKfeFoEqGlZAM-YM-99" value="" style="aspect=fixed;html=1;points=[];align=center;image;fontSize=12;image=img/lib/azure2/databases/SQL_Database.svg;" vertex="1" parent="rdSZgKfeFoEqGlZAM-YM-18">
          <mxGeometry x="248" y="139" width="53.25" height="71" as="geometry" />
        </mxCell>
        <mxCell id="rdSZgKfeFoEqGlZAM-YM-100" value="" style="aspect=fixed;html=1;points=[];align=center;image;fontSize=12;image=img/lib/azure2/devops/Azure_DevOps.svg;fillColor=#006600;" vertex="1" parent="rdSZgKfeFoEqGlZAM-YM-18">
          <mxGeometry x="242" y="222" width="64" height="64" as="geometry" />
        </mxCell>
        <mxCell id="rdSZgKfeFoEqGlZAM-YM-33" value="" style="aspect=fixed;html=1;points=[];align=center;image;fontSize=12;image=img/lib/azure2/databases/SQL_Database.svg;" vertex="1" parent="1">
          <mxGeometry x="458" y="490" width="48" height="64" as="geometry" />
        </mxCell>
        <mxCell id="rdSZgKfeFoEqGlZAM-YM-35" value="" style="aspect=fixed;html=1;points=[];align=center;image;fontSize=12;image=img/lib/azure2/compute/App_Services.svg;" vertex="1" parent="1">
          <mxGeometry x="451" y="412" width="64" height="64" as="geometry" />
        </mxCell>
        <mxCell id="rdSZgKfeFoEqGlZAM-YM-56" value="" style="shape=image;imageAspect=0;aspect=fixed;verticalLabelPosition=bottom;verticalAlign=top;image=data:image/png,iVBORw0KGgoAAAANSUhEUgAAAT4AAACfCAMAAABX0UX9AAABQVBMVEX///9mI5T///3//v9mI5P+//xiJZfHuM3//P9pIZlTE4ViIJb+//r+//mumL5mI5Gqj7lcEpJgNof47fhhJpT/9/9fGpVgOYX+//VsO4xlJI2LZqTXw+DPvtNTE4h+VqPv3vG4pMZ2VY+BXKXz5vZZIYCGWaFkNJJiJZ+Ka6FTAIJeHY1WEZNpIpf+//Gtm73fzudSEnx1T5eUe61mGpvHtNdkPYKjhb1aI5nSveRSJ3/HsdP/8f/h2eWji61EAHZULXjv6+9pSoqPgaJiIn2BXJhFEXHTyda2l8a5p8JzRIffx+V4V5qDap5hKX+XfbWbc7ZWAJVcK4vHqtRhIKdtRpxnGq1HFH1oPpZOAIejhbNkL5KCaJRzOpzdvemDR7CBUKxbMnnEls+dcryljsRlR4+AbaZyUYjj3+ZhCoKTYqQSNZ0yAAAgAElEQVR4nO19i0PbRtbvaOQRkkZCFnogZFuxwQ4yssDGgrgY0pItG2hIsiHuJbjde7ffNt22//8f8J0Z2cYPHsaYpt3rkzYB6+GZn877nBkhtKAFLWhBC1rQgha0oAUtaEELWtCCFrSgBS1oQQta0IIWtKAFLWhBC1rQgha0oAUt6K9EuPev+EVH8ceQiPH9Jz2QsKZrBD/Bjf9UxGaI5z9LDDcmuk70Pwl8MwzjTkzYQQabpuvw3/yZRBOPCvl8Qf5zwMcZ5GGTxPwycuORPsOJooblY8aCcxnl0Ffo4suvax++KctzvvHDRwKz1JEDzxN+IWTaiWLxuGyVy85N+AFeVvm4XD7WNDn/6pv1vKzPb7wpaWLWTcJVS5v3jR9KIGBELv2U/RUh3dPwtLaMoL9Vvn1XeXnzQfnk23ff/v21ptejRKB+ce7wiThrCnTF+vLcp+nodKtTU09Ak2BCtKn0IBjTetCBCZSJOH4+CG8xCMPOZ4fgUq0Tdmpncx80g0/6M8An6uKZmkmUsBPsLxdl0Cpcd913GcbOWmLHah5PwC1qaKemxGYWEf2slkhhcDZv7vvzwKehZdUWlJAKNnXVXN5hDAlKX7xbiomGu4Hvu81UaY4QFj9T3/+2qOlesREbUeXovxM+ZiD1UmBnBCD2l0SDT9ki8ggW7xkYyPnRZShJvuWNmhtRJHrdtYVk3QG/TM5/V/nujXijgZlifLce+HPAB3pv+esWFXqUsW1bMhu5gow0/e4pg8WRz2koBe1xhwdkt1uT7KAta+DXMDae2h5NP/A/BXzAHSU1DKU+fAKDT6A0WFsueh6+a9IAHyo1Qonm5FHug2jA+kQlu2KBfLMH5GmT1mVaui1i+eLw8VERtBPYRsYewCcBfECGYjbeFkR0F4DAWcVvQ0rfWaMyRjRSqIVSVAWXWQTmwxoelsJBEIdvjYRTD14cnNy7bOQuXx4+jDStFAiZTEYYIcnOGPBPpK6elskdXgyw1EmixMEeGUYZ7orfm3FSy8PDAYRkIGaL0q8k/RiYISvf+HDgEFwi9uIZ4m3DGPpXDfTJF4cP4h4dlS5bhnATpWbE/XvhLicQ47arxPRkxEZjkVgrNE4+WekpmufpWp+DGObE0zHRNELSCAf+0UaFn1/Sj/OI7vHMCpyss08H3/LF4fPkUtDq6b3MBHoZQUoStX2H0sdItzapQdXysBgCj+wFRhx0+c8ADSGorwSwpolOsb60tFSHYJXBB1dqeMxIaewISYVX5A66U64XlpbyRUdk1/Bg+0vCx7gA4tIdFSzFzdzHhThM1KU77+Np711fqZ3hEd0m5lzfV+sME0zkl//4R3MHbbNfQBceL++qNTMItqLdEtOZ5Phvzeb7wvDYtOO/wSVL2Evvhp18djfaCoLA3FoFnwqRPwF8GHm41KBG5nb0QHjjxp3wgVXNm0KcrMvD3EcsNaTJLk8lYeKsJImZk5nuA3bPrwVuJ1EM36fS1zsQH2rlRuJ+KA3xuAgfdRJzmcNHcPHFaiNyw1BRlNgQgouPMurZnfnC9xDXACQGvI5LyQARzdwOnxDfw30iET8lAr0oDtsOclYLQ7fUG5CzRu0kxw9jsdSIfTt0TdfsdCTzlOhIL/pxxiwNcy8qV6jt7iAWqGDrp1oYK0mnZpoulcBLB3XC2foJ4Js+qUt0EaxG63bOS+FT7oEP1FTWlYRgGQ1ZaPHElaRKURvAJ7kMPrDIebWjGNG7XDb7fvciMk/ZY+zBNzQPXK6EtruMeCLZetcJE/Nit3l62n112ZIM6eKIc/JTCO+08LGYviGBa3uH6E4DHwhYMQAr+x1LnfMPQNEXoyQTVZGW2oMefMzrcHaljhK9KHOfpXz2zQ7WB/AN684h+PDxRaex3i4ziSXyUkUyaNBMbcp84eMD1Lzp8INIrUF9w7DvQm8a+AiR12msBEc914SZh1M3Bp0Jfgb/oA8fzL8AsTVtyiwaxOCLlI/g5BvgQyPwffPpK1FnDgsE53q+QiWjUkbzhg+8KRiRrk9ROQFfguCzQLqT8aYVXhDaM1MxalmINdK7a8731EhWjvsDGcBHUNeUbLU4pGHAmb6H+8Awlwe+MsjMexduwez0fOEj29u6s2RpUzAfPEW0c3mdJXgcfAgmqxh091Dj8PEkakbgTl9KffhEgt66UvRteWiIMJJ7uA9gEgeTgp/yqs007bzh07Czt3v1/Rtyf7Idg9Vgem8u8DEP6K2biYN66voCp3QTMNivB2cMwdcE1vGLQxWpm+EbMR3gIvRDXsbA5YatJNwhnyN8GnLya2YSdi7boniH+eUOE3gsqmQYxu0Oy4O4D6E9UxHM9zqfJkbOd0ns7l5Palh4XduOSiyDAGhy/X8/96GeR8aUJdHBi7QVt4rmCZ+mOUu7V2BG4c9V81C8Q4KZdSGlqzt8vRngsy7+TxxeyKnwaoVGktROr1NYffhALReCSDAu2ngbOArgw1NxH5NeCIt1D+yNbL1Zk+I5w+e0d2vUTkky14t3Sa/moWXwnlL47gNxSvjE92YcBvmUSeRmpCiNojYBH0S71ifwe6mZA+uhe9x5uxc+liqAY1Yx315u7m42IkozdL7w7VwlidCDD1h7M49ubf3AugzeciiNA5dJcwQzwSeCNxzTqIlYblQ/rAgxfevcAB9LJXwNWkOp+c06nElYtuAW4aUD+AC9cqm6WolUs+ZSiNtoPFf4RLRs+iC3PTLi8GqHyehk8ZAr9p2A6b1xoDKDWscM8G3LK7FhrFksyektXSnc6RtIwBB8nldSI1sKw2TrvOAwTXKb7kvhAw2geVa3AeEaky5K3VqtNWfh5fBJQ3Y0jtWqpXt4rF2AJxt1lh0VxtBj0BvU8Cdcmengg8C1mxiKmuemqWoKScUaymsOog7mcKL6d1sJBP9GFOTKnseKyhPwIVKG+XDuw9p28Xs1I9gRrdWCxlou+/EHKsxZ9y2bQ4zDUsd2tF+XiTYuwbrG9J4wkltmPzOVabdsY0Kkp4SPkHpgKPZbxtzlA5px/zEcPA4sL5szlg/b+w2aJGFoHxTA6JHJlAGDz+bwgREs/xRJSedqtXpWOGJIiatzNx3L5ui8DSlsVdoiKJfhNIyIPfFskB0dZT6pdflsE5TyTPCBUFq7kSRVLJCEs0DJbOW9m+FjKXePOO19tdUCUCp14vGgTRiBT9TKfqYHn9wMaOiufeXw6gegLa/Qp4ZPoKGQqb23eGL2eiIELauGNJYeZaxoSzToOvthPCN84rZXCuyWuaR54okbC9/Lt8GXtoAguf2dr1Cb7lsaCG8FvMbT4YHqRTWFD+F6I87UPh8i3fM8DdDD8srTcZ8k0Z7+MmLF3CiCr9RzAsHL0klJpePOsuH7mVgJLz/KaHWC+aaFD8LdcpAIbk72YOKKmcXabfClGGry4csgtIWtNtb0ckWy3Rfk+hKs1RsGMx3w0alJJQhxRZGw4ghGnnPxVNyXEViFcTB3xf2mAGpd7/nsGsS54wCBEfEFhdJPdYioVidzCFP6fYw2OooA0gtWLAmKI5nbYd3XJxmjF64Um13Qx9amZNMNiCQHtlo/a2R8dxmDrq7WwszFIEoGQ1wMpPmbjh4szHG5hi9sNZblfgLLE0vqDXovI4Rh8NZiNnGVPga+NrCfeiafU4Ouj05oBL5+GKZ5xYok0B+Rpju71JbeDTmKSK5SwWbw6ejEDY1P1hD0JRdM09PAZ/zTN/wBfpQqFLwDHgLD4JdVYM3x9F4MXuLlDqtrY/FR8OHjTddwc8UgkwnORjtxR01H73SiWSuAw48sAs9BJLyV19MoGMw4qlcS5vdBeInOw1D4ZPWcICxjay2hxpPAlxGiZ//3gF47b5k4Dt3VN6Kmg3fK9d4YPhnfUNyLPMsJgcvxKPg00jQF+u6jG9OLsncLfKIFyoQ3HkDMVr6QDNpk8J2aggSBhJ7mC4kmv40UQUp1X7VDpcYb3nHAEq5iN6BPBh/dRa99qii07xdnbEmKSiLTe8FknBZDBGTuFvW08PI43aeJ+Vps+//PjsyqjG7UfYSIP545ZFvXNF3z9NPAFtQ2O6F41fHtSglsm8aMq9MNYlBCDD6inX6QwujkEM5nR+XlLRD0p9J98XOE85VWqPSdaAafFHQt1ksQjmcJMnEYNpqW5rF6NIPvUbpPcy54xkJS22MJx6GE1cnV8710ts7HC9+X3nGtJp/X7IoUZHlTglg8CVr/smnP8hYbcMvKyRtW9BSL1UD45z+fzO+jzxgXHLSUAUpsPp3g/PQSYJxwS2h4UJJxmiR+JPdhYJ1sg8FHV5yRcgsmzpprJ9UUvsRVD6rd0+z7lQYo4sYZ14ikroZCEgYH1ezpi/UGDVffXIS+uwPuD5GbNKRCVMlld7rrlagTvVkZmA6SNW1hxXp059vA8j6HX/R8xY2NHn6MIWhMeVl6DBiBuuCv6GLPGXss93levZHJQKj6gmzjkZp5WueVCYTGJ0ZGURLTNDuhooTBi16HkHh6lSh+JnThiJIkjYJ1EQo85iWkvOmG1DdcVuVVaO2jvErTdClvDQ/nzH0s0cHwu5ZfniCY4Dzgyq3cMUya9FIxj9R9CHvOruu6FPT8SLUKa86m6wZVR4eYsfl1ZLP+SzsTS+bFmZh2/UFoVqq4zKcCt1+prdRR8dJ1t1jQBkfL57UkBs9Q8O3IbmN5tdWpVVk0qonZoFP76fELE4bgYykeXKiESRiPY5Gi2c/r0ctlZ8iVfSz3iaKGSie53EmzDIZ+2HRg55eNjZOXsgZjc/LVd2rtw4cPpr+/XJZxr8PK8+Ric8WsBUArp5aIyydwyRJP2gD8pc8q628JVrpFb1v+8WTjnK2FEHX57GQj96M1Y9fvLfAxHyR/EN4MX58lBePdHmJtYgNH7LHcB2GL3PthJNMoett9HFnCAB3W8+29dr4okm2v14IG7jE4LU59j/VdiZ4HXg2/IG04B6OLioWlpXbdwZ4Ov7DqJZq+IeB+GoGPqWjgP3ci/h8AmDHiYLfoeUgjg7Lwo3UfGjyKkYCXecqErWrD3HbAzwAvuC680RH3QxH4maR1YtFLW9r4JWmhDWt8kKTX49dreGOFEs3b3vYevyRwDD6WdstXwvgG/otD0CJGGDRZqlccrhg+lvtQ/2Z41Ovr4cPyTekp1yVyNHSm2O9hFnu9uGn7KeLdaOniQjTRwjOnlZqjug+l+B24EO9M4CHZUphEZxPW6vHc99elCfhYBatw0Uom+Q+sXrT2ZnIV5OO5769Lk9zHeL2wScfhywghrVQtUZtg+QX3DcMHf3v4fTRpPWJ3rYjJ5IKABfeNCK+mo7PLSTwyRtjar4s3rUFbcN+I7mM98xPMl5HCjlv5KGvjSybnYXlnWc5/zz1Ftqqm/8uDV7tPSePwsZL0zqV0Q+uobbeoooDf0ncFrgf6KO5L6yno+u/5kMgaNPph5dB3zJfG/D6MvBuzoyl+hhHTYL2M5PlxHzAIa38ivXUuU6/mv48wyX/11Vf5nqZmvZ/6NP2LD6VR+FiO+0zlWNwceLBcZCUv6nPjPrahiqaJsiyKoiz2UmBzIIw3tsyti3SvDCweW7KuPTrCnaR+pS2FT+MrrUaKQqNr1lhazm0sy3xM/ZE+gvuIt42deqmZy1WrL7L5okz6c3ykqiIoFwnGpsy13mF38123rD0B+43AJ+riToNSaahtY5L7bCGp/WINbQ8yM/fxRoZi950amInrsoxdYzc/KKg9bl49+NI47uVviatWb1i4/mgagY/1jlLfGFQsM0LMihrj8BnUXD2aT8wrL1dM1/d9ULa2DV9X+xn122nJo5QVg09i8AHPyT9RyRYqDnky+AyADxGNrc8dzJ+lz2OaJEo8mYGhvA9GT9NqaDbuA/ydqmooisI5z2WdZFE2PSbqno6Pxdl5kMNHN2Vve1uUf8rAHBqHT6f7mOlgvaPSda2Sqbmk0fyqEnYmnMCMbV92D7HXW80yE/eBonWaDSMM3WCzubN82j35oeayhhV+UDzMd1eKsyvAAXwsr5bd6nS2mk/h+Q0Jr7istujwynrJrrRlxOpHE/kDKQzVXVD07Bazcp+mfQwUJbTX84fpB1a+epXCR/CSvRVtFWef1wA+bjqyn/e71l2Ls2elIfjOtgRD4MLLV0pK1P2hjkEBFRo0Hl8zTqkRJ71OXjITfKw1bTOJlaBqodTlxNvbcp5veUM0fHYVSlfFOQgvfxrMMSLTbxE1PfWFN/P8f7bCvpcCujyOw9qJhTTmudcrIee/EQiNTKxc/Yw9JGozdRlgrLd/ixVjfdhX6TfVgP9kUnsu3Mdv/ARBYUqDHpfNij3Qe4ZPQ9o4PRTFNFmbr9AkFEb601gVTqGXVUvbBuUym+PSjARXbaNBaRzzIBWn8NUkf27wPR0NGtRsaWA2MhklbK0UsE54RYGw/HNrsn4EZ4XBfl0Gx2VlFvjEXVegF2Vt4EGyLVs4lil8nPt6KXrct/EDGlw0tMpN7J3MTx+Cjz+V4QJy7z88tsPGzPAxY8D7+1Iw49ruEWsTSccJ8ytUKPh/YxhRCk5HZU9mHVYPb4/EzqdECDctMu5P4CH4eNAAsIqsHDcSEYuIpAmBof0xBlqA9QQNC2+6mcb1tSO7JxBxdps8gI9SQepJbiYJus7gS3hbO2L1t8k9HzKxRIN/H6J9+vDmXIAvNDj3jX5MsAMPBCJv2yzy1lBZ0zFYAND/3tBmVnx5lujIpF8IEpGHy/Wls6X8EWGhcy4ypB58BCwHW8qa1o9YAROLFttUgveMa1q6zmY2+PpI9JZnUIVGjRJ8bb/2hVIg8wduMtnBnAHvJjgproYPXpgAt3xFfUmtj3T0sXLi0Ukul/uexTfPNuCn6kkeHKS/vc1tdOUhpLHYzW3kXgJ8hBcIdeyU1iusKB40zvdED1fduM99r1np/HUv5tXAIZfr3V12Zq0WXJx8tPR7toy6C74xnyRmOWWke2M8oSPWf3VT/UiSWps/hDOZDtWXghfyyDcBM+U/RBDrMPhcTldfAQe+SpIPz4b3AsPoWZAEJ6lxA9HG+X2VKixEipVka72Mqm7Shy+/lbhf5/W0C1D3xKPzK1cBZyKOIaaiQaWUPoKZ4BtjJzfIlSfzHTA8kN9QuSGJatsUDPXDHRdE2qothY03bBXRUAWXvDHjUPH5Kicf/tBaHoT2PAnDDU0fVv/PozA658LIJHtZFRhyFPCOjEzw/WGP+9gVhUYoqXld49VpzTmtuCEFtxYiRRpBDB+aVWdiIcs0hNFy4F/35AInuZfLDudlMnoeK8+z+vkE+wGAgj+e15oKPs/6LlKUzkGdKzKxt/hFxIWvg0CNIMq3G5y+XoLvXm/ZrY2R/hf0nIbwEdszAxTfcgDgJcHn9z//3DyPIjuq/jsSmO5jfFVQQzvIa0SGaXhyV419uxV8/uVnOPf7WidRJPfcmYX3AL4Pku/3TaokRQd7MKDbthvMX4BmnNuCVI0UGq7SkSolx2Plz3SHGo1Y9frR0Qu+CV2d0etjeJbr1I42hgWMw0c3ENkGwyYXGi3DcNf2eJukU8+5rs/WsTH44INCIPlqnjd6EFL6O0zC3d1z+F2c/DnIAFW74kz5mLOtWjIwCBn3/Ei/ZZ9f+FRHhcuwo0yF3jR+n46zQQgUvCqi/r5TvEUFafqZaTPHhfDmFHIffMV9KknmLxZrEJJBu8mnqg+gjMLHOmM0sQ7hQVh7b3ke2xoQTK6YVdkY8jNYX5F1rTZoL6VHG01L13Q84Yn1R8z7rybzBzPChzXvMNsAZ11Joi7Lv/Y2jSM6OJwfe24z4jWzu+HT0PKWYLd2B0VArMvLqt2i0gR85PCEgh7syp6WxuvwR+42bMU9l6fcSGSEiIeKzYiC4qCS/1HeJvDAb81TwndB/BZPJb73+31gCGW5fREZiaKYByWHeXLMcQGe0HvwMaPCmr7xXfAhbL1TfPpDXRdlXkVgi1GdZ+ATKOPwIVxXDSV85fQ3ApSBA7etV6C8t97MAh/zz9FRVU06tc+v0cBRvvVsVLgAmy+MByCzcF8aOBXPg5D6dnL1qs6WzXMJ8rxB0Jaedyf3IZIP/PjDy9FRFwIjMyG8CHddwzCXhsULa1rpN2q73dmiN4y0bVJsXr4tb2vpHgt3nUzEwkGL5Q/mBB8hztmFSw1FiRpZx0s5YBQ+HpjdBZ/clAyq1kdVf3mFAnzimPBa+1JGWbNGdpfG2mGD2vSV8wDQRmZBtj18JONpGqVB0TD9N7e9DJhZKHcbLghwov6nLPNuAA7fcMLqbt1nfU4MacUZgQ87J4kxwX1iHYAyu3jESsDnz6mdXJSnmP4tkIisW/R+y81VrTbcf/9Y+NiKH4Lq6zBBGrqrdcRavh8GHylWEsFtopGnj8VqMim8uB1QqdYejdHA1v8c2J2h7WMeRjzVe/teqiOn8hnnL9z4PgMy7YJUNn5QCaUKBfch2i96wI7j8OG7ua+oKkawM9qEQVCVCuPwsUWqGcrC7BENRVBbbYVsQ4BH0LSKk3XBAP/d1n//QO7r3xPV/+nakt2osuQzT1gNc9/A8g4Ptwefh+sNxXfboxMY5PtG4EM/uzZVixM9zW1VCtW9aUf7OEr772/KH4zAl7lv+8MhYiFH+XkkwdxgluKE8N4AH7o2HQVV8c290TCTwWdPwvcisGlUHnuBCkF7qtQK2rOA8XDiack0f3oHUSEOpuc+UdSR9Sn0W24OabfAR2/mvm2Uvxm+CeEFzF64GRqNcx9wAzhPwR/Efbgff9zUf3/Nfb4B3De9KwXyWwg6gnLB1hCN+n0s2b6uxO7z4WXlWHxGpagHX6KopdHuItB97oTwIpSFp9Koa6O7zRLSDqQwGN5C9ompnz+9DbwMwKfUHgIfkPWpAxJf1ibgA6vwH3Bsno/s/S//S2LyzHRfkIRRdrRnnTjniTARtKGzmmCre6P9deBLZAG+ytEsQMxEmO1fk6+0bssfZAzB9sOHwofOXSFWj8hN8K27SrI2nFkVnR/YPgYAH9s/V5Byo9+FrRVlwvKKYl4VDDM76uKwxH5LcletGYCYmeBbCwfuhPsy+LUVqat3elITTaoIFJxAoyON5VxS+HpCBsJbTZTkndOTT76p0a+RJHH4PGtNMejF8Ozh+OuGMuE2i2J504iT75xhqDWPOI2W1Nug9w8jJr+VUfz4Rli+7QtKHBy8zTt3l/UJ0cggz8zfK/EfGif0V8Ky6iXTtq+K/VdmYdx046RxhNKiI99AnBWTuOnQ5Fwi2MHSYO8y8GGJ3IzCSe6DUxVfqeQHGxWyZ+iJSyo1zNIf/94nsL+JEg8CYIYeq3cmVyvLRfHuFxcBWr+yVfKk17+tebj4DcC36RBdYzsKAXx1nCYBRQ0vB0ISLaPeMjSie9Ynye4JL2nXFJuuO/391zEwVJ3tcTmeLsU6al8ZVHrlsOI+N4Es4j98lRFoozz3F0rdQ0x+K63wOv/Mm7KSoPJLXuZbD965lye2fmo7bGNDrokAEPSyEQpRF/ElgG3Vtk1WQmYHRQKusaQI++XtbT5JTOQsSHfPdGjWAZWERpbtCJHy5nb5MziRxnjKQBRB0FthqL5wtrf76UUsZ4M4U3v5BO1r9xCv//bc5wx/WQyNvt7fOeLvNLi39mIdXOXyhyzKYJl6zVnmew8UNSQDXG+YaOYcvlEf03TOSitWGtVDT+MZUfljg0qp7tuGT7KmHSvqsqNxhYDF4m4k+HY44D51AJ+2B46zAPhp/LYa/15Jcj9NtfPtPImF4Dx/QPkezrGihG4lV3AQa/bWR+v6N13uHCSuupqtWw5QsX3yG6UZ9YWcVo0OLyLbr5RYEunoV4gTxWUT3Ey1WuS8anXVeO1fvh2dM+5DnvU9BDnhh2qRJ52s9j4NN36PQnBc9LRU1Kt1sHrKC1Xww+BVIc1PWflfVN+mjfqXeN+nyPIHlZbv+0qiCFub2SN8vRz0PrIuEiWkpvrD2u7uarQFQUwYnFh9jV6NFN9Xd5svqwfsbWTkeM2IKY0qJ93lbPUgCBv53yManaRvAUVHagv0Znq0ua9S2ihWI5+3hiMmvGFG5V3ToBecE1OJFfAL3mbh3O8aNJOJf1u689U2T0ga4EcVGpqVH+sO8rxpHyLbZTRJEgk0mJskiiSFoau+v64XFg86LAcItNVmphTXwU1XbKnlmmaSuH8/Q8/djnvCd7oEnspfdBIahq1arRYqCn33BlWpbW+mCxMK8FmQ741Mc5oB20UxgVNrJo2FsHaRf6CDOj9i8VujdgVCyHcqe8CFcmmtEfmg7wwgSVIv330cWjuAly5dwxdYy8CexnV8fVWNJNaVFNKocYbQiesG56A+2E4yhNT3AzAKoQJXUPVVXdarNTvalHn5sXAVuVv5fgVMc9qbAVvyyMrqCrD/2yL5QrzH+ieR/vrHAmbarrcl8JTkYeco+/yHK8YFH4JP1YKDh5YO6KSek66uTLWxUefWViTW6b+i335Ta7XNZpGVu39//nuXrbPnTRq6fPbM3vrNNK8yz9qyjrTsRu73nMhdz9cb//79eb3XXSoyM7WUsz+k3/v55RH29JlfxvVIwv3/H/42tVSYjo/ye3t7b36V0chye/5TMZ/Pvz6Wr093yoV2u3B0PNxShgdHxV/re+123ZJvfnnGoCGQ/SQeH33Vbu/Vf5UHI/krEibg9+r6zW9108ZeQ4DZW5w07bblQaLGNoLwtqfzfzF7dbKmP0HD8x9HfO8LvjPmTezCXSNx/PybT0as60MDeKeUAszftsVl/69LvMxC8C0vBCVjjMb2b003zrjtdohXyaf6ajF97dsXs7lzpFvgw2RsA2mu4e6803ge574vnv7UBf1/R/8FkrWgBS1oQQta0IIWtKAFLWhBC1rQgha0oAUtaEELWtCCFrSgBS1oQQta0F+L/heMyc8VhkoAAAACSURBVGHeYXYYjwAAAABJRU5ErkJggg==;" vertex="1" parent="1">
          <mxGeometry x="435" y="344" width="112" height="56" as="geometry" />
        </mxCell>
        <mxCell id="rdSZgKfeFoEqGlZAM-YM-57" value="" style="shape=image;imageAspect=0;aspect=fixed;verticalLabelPosition=bottom;verticalAlign=top;image=data:image/png,iVBORw0KGgoAAAANSUhEUgAABQAAAALQCAMAAAD4oy1kAAABZVBMVEVHcEwAbbAAbbAAbrEAbbAGdroAbrIEcrYCb7ICb7MAbrEAbbAAbbAAbbAAbbAAbbAAbbAAbbAAbbAAbbAAbbAAbrEAbrEAbbEAbbAAbbAAbbEAbbEAbrEAbrEAbbAAbbAAbbAAbrIAbbEAbbAAbbAAbbAAbbAAbbAAbbAAbbEAbbEAbbAAbbAhpe8ipvEipfIiqPIfpO4ip/Eip/EjqfIlsPQAd7kAhtEBhtEChc8Bhc8BjNYBhdATlt8BjdYQk90Af8kDh9EBgM4AkNoAfs4Agc8Ai9YAeLoAeLoipfAAebwfn/IBjNMDld4lsPQhpPEgofAAbbAAjNQms/QAdbgkrPIho/IjqPMipvIkrvMgofIAhNAjqvIAgs8AidMAj9Ufn/AlsPMAersAh9EAb7IAfc4AgM8AdLYAeboAd7khpPIBiNMAhtEBe70Aaa4Ad8sAcbUAY6kpt/kAb8YAld8XluIQis8RZSKaAAAAdXRSTlMAGvIg9g8VBQEKJjnM4NoytNNuxO4sS0bq5YJ1YFJAifpZlmh7vaeQoa65nP0aW9ynIWo9n+L0xrV+j+RpL9RNoz3c+O338enbicnvou3Czrf///////////////////////////////////////////////429iwyAACMqklEQVR42uzd3U8bVx4G4CJkjOGCCClECiGI9DsRJA6BbtqwkKxWAbYlQaYXlbLaeoSEfWHEVmr+/p0zH/bYHrMJrQnQ5wkhGLhypFfvb+acM599BgAAAAAAAAAAAAAAAAAAAAAAAAAAAAAAAAAAAAAAAAAAAAAAAAAAAAAAAAAAAAAAAAAAAAAAAAAAAAAAAAAAAAAAAAAAAAAAAAAAAAAAAAAAAAAAAAAAAAAAAAAAAAAAAAAAAAAAAAAAAAAAAAAAAAAAAAAAAAAAAAAAAAAAAAAAAAAAAAAA1910rFqt1nLx1+Fb3hjgLxCAcfhVVuv1rVS9vrpaqVUlIPCXyL84/tbX19bWnsbW1rbXt+qrcQJ6a4AbH4C1Sn1rfe3p3t6zYG/vaRyB9dVK1VsD3PD6V5nK4+/J24PYkyfPkgiMW2A8CJuEgRurOjXzcvvF8+9//PFv3/39zePHGxsbIQSzDEyuBXqTgJupNvPyxfMQfq9e/fDDDz/99K+NxMHB2zgDt7fqUzUBCNzI+Xe6NhHn3853r/7Z6Wx2Op33//j9XfO3xMbBk7gFpiXQIAzcuPyrTc3cf/H9zv6rEH6dVitOwPe//5om4MbGm7f5xcApkzBww1Sn5pYWH9zaf70ZRa320cnZ2VEcgXkCNuIITC8GJjVQAAI3KgAnl57v7O++3jw5OjmK8+/48PD4JE7Ad41sCs5r4PZWPSyKMQcDNyT9apWZO4tx/oX4iyUBeHp6eFZIwGQSzq4F1lcNwsANUZuYXVpM+l+7fRRr5wnYjofgn38rJGB3EK5PVCQgcANU5u4th/4XRVEraIccPIsT8KivAjYajWRVTFoDJ1wKBK65sPt3Zunut/uvk9u/nShLwfbJ8enpcef9f35tZOHXaHQn4XxdYM05CcB1DsDa5Gy4/5HlX5yAnagVtTvtoxCA7X+//73Rzb9eAuaDcFgZ6D0ErqnqxP0X339byL8o5F/UzgIwnoGbvQaYhmCyPeTtkz3bQ4DrXP+mq5W5ew/C7Y9ONwBbnXY8BPcC8Jc8/3LxyxCCcQ2MW2B9KjkxVQoC1238rUzOriw/3O3GX9oAW/EEHAfg4enxURaA/QkYemCyNjpcC0xXxbglDFy3+nd7Yf7rW7uvO8UAbEXJfeCTPAB/Hsq/bgQedHfIOTEQuE6q1crkwhc7xfk3a4DtOACPkgBsZwE4nIBxBm50d8htr9ddCgSuT/+rhuMP5gu3f3v3QFppAJ6enrVHN8CkBDYaG4/TdYH11UqlZnsIcC3G39rE3NLio4H8S5cBZg3w9PB4ZABmIZisje4dFePsfOB69L+5leVvS/Mv3QpyfgMsKh4VU/PeAldctTJxe+nurd3NzuAAHKW3QNIAHH0TpO92SO+W8NZqdTp5krC3GLii9a9amZxd+mJnt7/+hU0g4RJg1GuAHxCAybLA3rXA8ChhJwYCV7b+1Soz9z//Op5/O52yBGy3Pq4BDgzC22FxtHcZuKLz78zLsP1jc7MsAIsN8EMCsLAspntUTL3ikATgKs6/YfnLveWHQ/WvuxC6faEAzK8FZsdGp2emSkHgKuVfZSLd/rFZGn+d8xtgM/t73qqYwpOETcLAVQrAWpx/yenPnREBeNEG2L0UmAzC+dNDdEDgSuXf/KP9EfNv50OvATbPuyey0cifHpKcF2hVDHBF5t/w9Msvd0fm37kNsHlu9PUflJBuD1kP20NskAM+vbD8b+X5yPk3WwYTzsKKA/BsKACbyZ/wqdn9dM4ofPC2uz1EAAKfWi3Nv9ebcdKNLoDJRpCSAGxmH80sC7tfNHsvCwEYrgbm20McFwh82vqX9L8vdrLrf1FJCKbLAEc0wGYxAoe/GpqP03Oju08S9iBh4JOZTpf/hadfdvLsi4rZl35kRyGUN8Dy6GsO/NNfBNOHh6w5MxX4hAFYub3w+de34vk3ysteftEv/bK7E7jdaZUEYDHw8rbXHPxuSQgWtofUqp8pgcClp194+uWdF/ny56hb+Yp/o+w46E6vAR4ON8CBItgYzsXBy4Eb4aCEZ3thUYwxGLh0YfvbnaT/RVncpfPu4J8oeSZceQAWWl8xB5tDo/HwDZHesdFWRgOXHoATc0vzDx7uJvd/u+lXTMG8AGarANtHIxvgYNA1G2X3gwcuBmZzsAQELl3l9tLioy93N0tKX18MhgQcFYB5uDUHb/4OJl/psphkd8izp+tWxACXPf8uLD56GPKvrP4VvpOdB92K86+sAQ5e9OvvgUM3QpoDJyVsHIQLgRUBCFyW6drkbHj60e7rzb7aV/pFGIGjuP+FBng41AAHLgEOh99gICaKa2LiDli3Gga4tACcmr13dyc//rSv8A0Nw1FvI8jJYAAmw29h3A3xlkZct/llr5rdF43idrnf0il4y3OTgMtJv+lq5fZSkn/5Wr/+6lf8yEbgVnkA5vlXHIHzTcHFuyDNwm65Zq57UMzB3vqq+yDAZUiefvQ8yb+otwNu4Fpg3zqYUQ0wy7++updnYC/6Cs2vry8mERhi9PGzta3VmikYGL/a5P3Pk6f/bvblX/md4MIIfDSyAebR1wvB/JvFzCv+ICuKWQV8u7ft6cHAZajM3XuQbX/rJWD/4Du4ELpdHoDFQGsMpN3gN8teZRkYrgJub1X8zwDjnn8n5laWb4Xbv1H3+IOo/EJgcRVMeQA2yz4KXW+o8xX/yYfnRuPN272n6wIQGHf9y7a/hfxLjz44R14Aswn43AbYP9v2tbwRRbCbf+GArKfrq/5zgPEWwMk7i998uZvl34dpjQ7AkQ2wUdr9Sl8Ejw/2tgUgMM70q1UmX85/E5b/tT4q/y7cAJuNsqt/fT9OK+CbZ2sCEBhnAIanvz1I8u9PCsD/dw2w0VsFXZ6U3QooAIHxmQ7Hn66k2z+iKLp4AJ4WA3DEvNu/AqY5Oimzo2SaG08EIDC2/Ivn35mFu8nyv9YfCsDDk4G9wOdc4Rsdf8VZWQAC44y/6Wplcm5h8as4/z4u/koa4MlAAxw54g6tgxkKxu6vCUBgfPlXm7x/b/ki+ZcHYMi/wQY4uLDvnPhr9v/K4A1jAQiMb/6dmL33IJx+9dH5NxSAfQ2w7zJg8SyYZt83Gn3nwRR+kmehAATGVf+mZmZXlh8m8XeRBtge0QBLS15f2DWaw6FY/NX8pQAExlT/pm4vzIenv10g/vIAPMoD8L/dACwe8TJY+Irnv/R9KvlN1wCBcUlPv9+J59/oQgoT8EADbP4pNEBgbAUw7n935r/Zv2D8DQVg2gDfZTeB/6wIFIDAGObfSvL0yz+af0kAHp0d5zdB3mmAwNXPv8m5lbtf7e9uti6udw/kODTAIw0QuBbz7+Tc0t3/sXeuT2kkaxxeQgYEYvASYCM3URSV1ZRnsyAXLyznCIeDlV128oGqVLFJWTXMh01plf9/nX6754pcZcbKJL8HAjgi5NNTv7f77e5Dan9xSoBiKRwSIADgG49/dPpHLn/VWUp/ownw653TCRACBAA4DU3/8uUfbUcEqLiUANEGAwBwQYDkv8LakvWv2A7fOgZ458IY4DsIEADgXP37U1Ci/Le2bPwzBShjDBAA4Jn6N8FPvxw6KcCvljFAB4cA+xAgAMC5ABjiuz8fLVv/mlMgmgDvnR8DhAABAM4KUCL/7S1d/1oFqGgCRAIEAHzD9hPbH7D854D/RgVoTII4acCPECAAwBmo/S+dLDpR/5pbwYg2GHsC7EOAAIBvTYA+3v7MT39zTICK4mICRAkMAHCk/l0JBqJ0+lur9GXoggDdSIB9tMEAAJyqf8Xpl8OhGwI02mAwBggA+NaQwgmx/M0lAboyBogSGIDvqQxlhSiHvXjmr/ZFdgt0+i+JCwkQAPDs/guGpMAxEZCk4MpzfjGrf1NZ3X+OGFBFAgQALOKhUOD0vEGcn/ul4PN9cTAQS+wW1pj/VJ2hugSj/kMCBADMzH+B88ZlnXFyeXl+HHpGAfrjSb78TS0tJb5RrAJEAgQATJAfr35Pzy/rlUq1Wq1U6peN04AUeo6xQDr9PLNR3Gu3lg1+UwVoJsDPSIAAgDHpr1LtnhHdbrV+0oj6SYFuf7fY/mCP8p+z+nM9AfYhQAC+B4LSMUt/1W65fKHxx1m3kor4AyHXBShFc1sHnbZl/M/9BNhfHvJfHwIE4DsIgCHyX7dcu7m+bhI3Nze1i7NqKhN214Cswg7501uHnTbFv+HQcf+NSYDO+I8MCAEC8B3Ev6B0en5ZqZZrzYHg4eGBSZAZsB6PshDoXhnMt/9L7nd4+Tt0IQCOT4AQIABAl1DgtHFSYfnvemBACmQGZGWwqyEw6Iuktrj/XDCg6T9LAvyLjwFCgAAAIUCJ/Hd2UWs2BxaaDw83TIHZ3URYckeAfPuDVOGIt/8NVbemQDQB3kOAAIBHEmL+q1e6F9cDOw+EMGDMlSqYfbMvmssetbX6d+h8D4xVgEiAAIDRGpTaX2j6t9YcJ8AHmgpJ5hrhgPPrQoISP/2oLfKf8wlQtpXAzIDbpf84LEC0wQDgbQEGqP2F1b+jAVBTIKuCy91qPRF2el0ITf8mksU9V9pfbAK80wS4/aL17xskQACAoSEpzP03Rn/WMrhab/hCtEWMc18ckvyR3YNOq+SW//QT4ZgA2b9f7l/+vNr+vfY/R2eBkQAB8Hb9O81/RghkBkzEeD+MIwqkhXc+2v5gz7X4Zy2Bmf+236yub64dnn34jQmw30cCBABQ+3OlO77+tUZAKoMrrAx2ai6E/BdN5w/22i76zxQge3rxem+/kM9X/yABfu4jAQKA+lci/5Vr183BZB6MELiRcKojkPJfeutwnde/slt34T9RCP+8Wcyn4omT97/RWmAkQAB+dPvx+pf5b3L9ayjwb2bAWrm64ciyEGq88UfTyf0OxT+ZhzXFhUdtDJAovX11kExHYueX//3gnAD7ECAAnh3/k04b3H+15kwBiqkQVganEjHfshulBpn/Mnz5h1CV4ooC6SbLYmfV1vpeMZmOhn2nQoB954AAAfCmAP2i/e96lv/sZXA86luyIYbvfl/Q2l+GiqsBUP3yz5d/Su217G485gscn5+8//CXYwGQ/AcBAuDB+pf6/3j73xz6s6TAsjDgEnPB/PSPXPaI68+0nzJUhg4/sgzIBFgqtdpHBb6gOUQCfPfZQf8hAQLg1fr3pDpt+ndiR2AlF3n6XAgNPNLpl4fr+vSvoqdAZxOg+EyZ9Nc5zHL/BUPHvzIB9h313ycIEADPobU/z1X/MnrWgcDqbjz61IVxzH+xxIY4/UO2CEvRJCieFWMUT7W4UVGN9wz5nxh/ZrOfCH/iZKRS6e36WmEjzfd1ZdL/9V/v333sIwEC8GMTaNS789e/IyFwJxl/6sI4fvrbDu3+IiYohLjEXAXZbKj9oFjKY+26YgqSTx4PzekO7XFoaJR/+vDLsPT21Vo2xRIrnfHphgAxBgiA18b/WBY6v6wu7D9hwL+ZAYvJeMwnLbwshC//iO8WjtqiS0/3nPZiKIQnmwY0E6B5QbOd8S6tj4Z9nvgE/iiL/Ndqb+4z//lE544uwI9IgAD8wAIU/X8LjP9pVbAwYFNbFhILLDoXItr/iqz+5c15hs5kY9ROvyuy0SGjGFFQMYtm/Z1Dvd1F+zTFzI6s/G131naSuYhfG7B0Q4BIgAB4DL7/y5jtr+Y14M0N3yk6vvDCuJA/kssfdNqlkmhPNkKebKQ9WyTUZaYYlxV9bFCToeW9ts/g+a/d2ddmP+wCxBggAD+yAI8bU/c/mKMOvqmVuwuWwSsrIV+U/NfSl2eoIrbJ6oj8FE1nFg3KpuT4k6y/1N4sbmZOpADY6uxvsfI3SD0/rgkQCRAArwkwzBcAN5cQIDegWBYyZ0MM3/2K+W+zXZJNA1onexXTX7IhPVk3oipbpScbtpRVQ5jWEpma/4r5XCYsWStwJEAAIMDzuv38oyeUwQ90aGY3mY7451wYF5TCfPmbWf9y9Smq5WZ/wUcCH116fGXkopgSYfEvuxuP2v53xhigUyABAuA9Qo3K2bwNgNNXxl3lzSmGmeN/zH+HnVZJVmTZ5qypN1We/KsJl4nW+j7FP/sgpZEAHRXgOwgQAE8lwEal/NQBwB6/CQM2b8pX+VRmjrkQqn8zqSydfimrilO3CQIUiz+2co/CqeMJkIMECIDHEmD1oimq2ScVwb2eZSqkWqcyeIYAxe7Phx0a/1NU92589K/E9FdIisUf4wXYd64IRgIEwIMC7Fny3Ly3geWVeWDSVSUXCcwSYCye5MvfFHf9x/Pfamc/n46EfdLoBDUSIABAE2Bv4QzYM++9nl4H18iA0cCUA5No+xex/NdV+xnl7ybz39hzjF0R4CckQAA8J8Brob/eU2+2MpiWhdAWWSvjx/98sbjY/sDl8T/e/MLL32hgnI6RAAEANAtcrpHEFsyAPWsA7FmPjOuyEDhpk8BgIJLL89N/tfqXt67MhTr/b/gugKVSe/Ngi8/+jvu/IAECAH4KnVfOLqgNprf4MGBvoNfOthB4tsUMKI3VTiic3trfbJP+ZGXq/O2c07wTfkUBkPmPlb8SlePPJkAkQAA8BW+EvrhecBiwN7BqUNTBpgGvKrmMWBln/6pQIBbPU/szHU5paV0ebWQe/zzpsr0FWtdfa50Wf0zeqtCdEhgJEABvCfBUXwr39AhoCJAM2GzWJuwUzbc/2N9cLZWM0tV6n/hs99zor22XtHZpuURbX/HFHyvPKUAkQAA8JkCxG9b1YJEIaHWfUQgbDTE3tDKuSk3R9vglRVOFw1ermv5EDTxPBLRrbkYCFLsCtjaLovkv+LwCRAIEwFsClPyNk+oTIqCt/rX8pO8UTbsjmAKi4z9i6eza+lvmv7txCXCG/h77UB13Zw988cdBMj39wDrMAgMAaGHaaaOuHYjZW2wAcOTe65kdgXRgEi0L0UPgiuTP5LYO19++uLszZmtFBpSnFsATDTjOf+biDzquburODEiAAAAWzYKS2BHrurcIg9GXg57eEfMw0HaK3koZO1AFqf2Z5b+X23eEvYtFF5o87nnEkfo1eWz+UxXqfikmcxm++OPZBYgECIAHhwFzfCJkXvVpzc/GK+OC0RQoQuAVP4KDKZbVv5Hd4ubrNy9v7+4eGZBvCSOL7a6M5XH6NLFsvOCb48uaBGVThvqjrC/+KG4kxqx9QwIEAIwj5G+c8AzYnD/6DSyvBvYLPbMfJpvKxHyBgC+WSRX2Vl9s397e3t3aDKjFOVmPeKrQm3ZRu2A6zt7vov21Lk2x9cvORjw8+4QSNwT4CWOAAHgwAkr+BlXBvB1w7gg4sIdB44LFgNQPk8pEY5Fcfufo9ZvtX27JgI8z4MzFHjOh+KdozX+ZOfxnCPCTk/5DAgTAi+OA/Gi4ark2XwIcDYF6AjQjoCiDaSDwqrqRjqeyh69WNf8ZBrRLULW/Vu3Nfdaf1ZH3q1pypJ1Pj3ZY+TttMwYXBcj8hzFAALw6Dngp5oJnhkBb8rNGwIFlgFAbCKSFcdX8Rpamf7e/fv3zzxkKVB/FQHViUlTt/c+s/l1fY+Wvf95d+XUBfnLQgBAgAN6sgo/JgHQ++twTwINeb2wBrA8EUga8ZmXw1dXaq7cv7+/vv45R4MTtDcbkPzMAqsr/2TvXnzS2NYyriICX4qXaesF7tV56kvMFtXa727JLm53uD0xIIKkukrOwbENBSPz/c+Zdt1mDILdhp539PGNhRGsyX3553utqrSOnP3959Xpt78XyVH8ADIx/RNIiAAhBv24ULA7I7DUJWLLCXisINhQkAmYyNBZy9fHz5HazKRCoAPgEAXvOBN4Z/N1V8ukv87vtNj//cw4QITAE/dImcJqOCO5mAUuW8/N8n78RxvGVgzOZT7V8o970eUArCm5UGh3xd9cRi3d+A/jl1e7eimv/4j0/bbAOUIAUDhCCflklpgQBr7q3RPvw1+oCrUBYjYWU2E3t70auAwLFaFx50Gow/a4b/s7OH+7RItY+cA8HCEGQxYQEeUBqCHQCk5qeY99uyQQqBOpEoAdB4l95kPYXlf473hXDH4lY3wCEA4QgSOQB47Ih8PwqEygBH9xLmsB68xEByxW6BAEHQ6Dg3yE1XEe7N7/AAUIQ9AQWIr/9TpWQbED8Y2pPoCBgzfKAphgiGSgwOCD+KPzdjEQT8f6eFFVgCIL8JlBsx+pjMLgXAor9CKWSQ2Fw2ZjAcs4QUECw0T8E85V0enWBwl869zw+EACDdIDoA4SgXz4KFg2BZ1knwDBYIZD7wuCyp0p5AAdIGxRc/s0f0urVaCwehwOEIGjYKFgUg79eXQaHQKZSga4JrP3tecCc5QFFHNwQ/3q2f5W79GcKf2emYmN94m9UOUDMAkNQCAioViMEGQVrAv7P7oexy8EuAkVLTKPn+FcNf0wnBnnKEThAFEEgKAR5wD6GQvrth3HcMPjusQlUPpAcYE8EzLuqfJ49OlxMUfpvcABeBys4QAgKgQeMRj68e9vjgsB+EPhQchyXgFY/TE5CsCHrwYQ/ORrS6AbASnrhaEucvBSL/ywARA4QgsJhAsc/iNUIAScCRTXYjIXU6wqBVj240lBxcKNL98vcrOBfND7YI8IBQhDUAYBj8UREDoVkHe6ya5hLpwG9MNg3FuKPg10IqpLwUwDMT9Dqq/U2Zw/DAUIQFIAHpHaYC+EB2ZAX90hoJuPua41c0yOgbzZO8q/jrqwKrb5fOFoTwx+JGBwgBEHBE5BOixOrEZjycAN/6TeHMdMP4xKwbhMwJ4NgNRwnyyFtAOh+lJ6k8HdtJxmJDko/OEAIgroxMCpPi8uSiVNebsAvZQGZ6QhkvrGQlnJwRbdGN9rav7nZ+d39nZnxYfgHBwhB0NNK6D35FAYTxwZ3gDoZaOJg0Q+jTGDLcHDZELCNCUw/n1s6WOt79wEcIARB/UbBiTcf3kkPSPzi/bNP/BduGMgsBDIvDFYNMWo8WLTEGAK2IDBN/Est93TwERwgBEHDKCaHQqgdhmui9fXlKHR6aUCzHoHCYG8sxK6FNKQJbFTKPv7lJ2n3weu1neTU8A8GBwhBUDdOqKEQUQpRcXB/rx4HmS6IeGHw95Yw2CqHVBqmGGxsYPrL0sHW4kpyPDH8g8EBQhDUNQyOvvH25HONtD5eFQdlEaQFgY4wgaYU4kOgXhFDtRAFwPTq0uv9HTr4KDb0g8EBQhDUCwOnrJNCBnGA3LTRWGlAJsNgh/vC4LptAhtlryea2l/Sq38S/8ZjQTzVSABYgAOEoLApqs9Kkh2BfUPQUflAZhWFvY7AH75+GJuAXlMgNQCmV2flwZfRnxeAcIAQFDrRluidi/MzMRTCXXQxLnDGGTeTHvL+0av4TfFfDPiMdBjMb+61CWy2eEC1I4Z2n1L4u7bxYnm47r82ACwE5//gACEohDEwlUJcD3imx+KYQpkjb+VHDtM9L6JWon6q41795mcgk9sRftzqwbimPxEoJkMaLv+o+/lgP5WMDNf81waAheDo514AIASF0QTq1QhZzTCDM8fDmoVGpo2h+I4bAvr5pxOB39qGwTk9G0yrX45PXP6NBxP++gFYCM4BFgFACAplFPzfD6oh0I85dWNiYcVGSTzm2T/zwxYAijDYcbh3crovDJb27+WzYMPfUYTAEqQAIASFMQoWW6Ivvp5/zErecR3X6hvPAOqPuEai4309soDMjIW4JrA1DCYA5vP5l89enayvyNUvgQOwEBwBi3CAEBRaBkaJgGosjvmwZ0xhewcoKcgdxtqbwJLzIJui854HlIeni/h3deHY5d90Ij4WD/BxAs4BKo4CgBAUUiXemKEQxrzA1459uWNnA/2ZQcf+eRsP2LIdoZ4T9o/C34OtvZXlqXiwT2M7wEIgBIQDhKAQyzsryarscjv4tbaferxzVMjMvdxh20SgPwxuEgDd8Dfthr9y+GNEAAwoCVi4Rg4QgsIeBU8rAjI/+rivEsxaIl7HdoCdwmBvLER7wFMygHOvTtZTSXHw70/vAFEFhqBwm0CzGiEj9zszzu1UX4sDbC17dMCf+2FVJQLtsZDtyee0+nQxFcTug44ALAZkAYvEPzRCQ1C4o2Aai6NSSMlRbX6cLs70xbh9qR/Zn3eQS0AzFiLPS5p4uXB8orpfRgdAF10FV9LFmTt5213eL8t3ABCCQhwDx6kh8D9UDJYWkJDmWJdAnZ5/Y6b1jzsW+DowsKpbApUJnFhdmD/cW0lGoomgw18fAAtFC2D+ux4JKG7IAQKAEBR2BsqWaBEFM9Zi+TwKcjELzNWb+Mzh2gLyJwgow+DG6cTc7NHhnmv/EvGRPIfJAXoke3TXGwDNnUtBABCCwg1A4wHlmelMBLnGAVLM61guULwpOCpD2DEKrlrbEfKrSyfrO5vTU4nYSAFYCE5FOEAI+hcQUJ2ZbgHQn+DT7o8pIko2mk+ezAWKlhiHf//05WBxc3p8ZPwbAQAL6AOEoPADcCw2lUztvz/7o0q7DBym7Z72gIJ16oWZfx4YWUcRSl0APpRK/NPH9xvJYIffRgpAsn+oAkPQv8IBbu5tHf35x80PRlULpp0e8/J9nvljNgsNDdtbQAKgXBDjZD+eX6wMe/TlP+kAizQIAgcIQWHnX3Q8ubN2NDuXrt1ykbOjbkArB8h8vFN4VN9pM9hZjmqIuTz7eiGP//j5c4DS/lErIAAIQeEGYDQyk9o/mJ2b2M7XblhJeUC7Cuyl/+QUHPM+c0wo/HRPYOkhe3l2/nZDVEF+fgco7B9mgSEo9OHv1PTmzv7J0tzzZj2Xv7/honnP5AFV+7Nj0oJcm0DueEnAJxOBohxcKmWyl1fnb9+lZkZUCA4MgMb+FZEDhKBQi/j3Yu/waOnZc5rVyOVrtz+oEKK7YRiz3J7dGei5Ql+KsHMgXMpk/nIJ+PXt3kpylJMgAdq/AmaBISjcAJxafrG3++rZy4lJOa/bqN1qD8i97j+vCtzaDu1LDnY0gFVCYEYg8Oz9+khngYOzfwU4QAgKc/wbjwn/dzy3Xa/rpVWN2ndfFPyo2Gvwxx51yHTygNVq1f07Tunh4SFzebYrCBh4FByQAzTZvwKqwBAUavsXHV9eWTycX3h+ShubDQFvv1HhVszF8SoztV5vPJi1OMCuBlACUBwcnL06f38haiGjWYcVTPG3IG/gACEotEqMJ1fWT9z4d1KsrDcEvLv/pjqiuUtAbrbASDHOzfdmb4x8obdqB7koFQh0w+Cz87eLqVFthHahVRxKBd8tAAhBITWAU8upxd2l1cnTXC5nEzBnCOhiy16GxdSyrLaLsmTFpNpZwk66YXDmL9cE0pkgY4EuRbUAWBgcfq7ruy7KOLhAfwgAhKAQSrQ/p9Z3j59N5gT/ch4Bm+Xa/U1VRsFVm4Ccty4L5I+2BT4FQE7bERQB3/3+W2QUp8IJ/hUKAxOwoAlaKCIHCEFhtX9Rav977ca/2/LESpuA9XK+9r0qVyP4LWAH62euavVpAMooOJu9Ovt68W5lOciOQOMArwd2gMLzidSfMIH0ZwBACAojACObG2sHs6sT26cKgD4PWM/XyAPKMNjn8J50gKzaXS4DZUvg+wtBwOAd4BAWUDlAwcAiQmAICmf8mxif2dhy+bddzmnV7UpIk4ZCqrISUu3ZAXanH7nAqgiDs5eiI1DMBgfiAi0ADugBte9z8adzgQAgBIVONP62sXU0OzdxWjYErOf8ecA8tUTLBYHVx6m+Af0f56oUkhEEdMNgWpEVKABVAq8waAH42vhAABCCwqjo9Iu9raMFN/4tk3JeEJyr2y3Rtz90MVg4N5XG47qm61V3Lbxx3hWAFAU7RMArF4GpmUgwg3F2EeR6QP4Z9ycdIEJgCAqfYuObe4fzCy8l/iwP2IaAEoBVC4A2yfx3CoC8KwBFJrCUcRlIYfBMJBEbG94EtvQBDpYElMk/gUBUgSEofIpT/Ev8W50sl1sImHtMwG9M1YIJXB7euB+A3OZfdwCKhhixJpXC4I3NQM7JNACUTXwD4q/oc4AAIASFzP5NJVOLu8cm/m1BoKwGN62hEOrdU1FwkBJdNhmxJFCYwABD4CEcoIyBLRICgBAUKgBOp0T73+RpudyBgJ4HbJbv7m9EHrAaMAH/z96Z/aaRZWG8WaqKvWyzGIMxYDC2Y9JSv8T7Aga6J5PWCCtTQXJgSgpjKQVJ6P//Ze65t3bAbFWjruh8TmyMF/z003f20VhviDl/yJVF3jkH+Hn9VsBPqn80PiAAUaifJ/4VuMBu/iSZSJWGk3kANNeC/5p8AwKqMyFOajzWJuMgDC5vfi/JCIG1FN76g8DoAFGon1BhGH87SxL/N7RrTj/g9+HXb/0vFIHOEnAMBGRzIU3aDwMX0zchoNkBrr8Rga3CUqeB0QGiUD+TOHE/V0vGU7b411YMtkbB3z9+exkb3TCOxsGsIQZ25dMweKPBOJMDdFAIQBTq5wh/Q6FwoJA7je3561r8O5kJQKsHhJZo2JFKG6K/uMFAMIHvH3IFcaPtCAhAFAo1H4AQ/1bp+K8ZfpO5FlAnIL0UMlDvhDiPQJgLYWHwrrjB1UxXAKggAFGon0LQ/lw8jVnbX4ZzLKAtCoaGwJHWDzh2NBUIBBw8DSAMhrvB62+KRgeIQqHmxb8CL1YOj7Zf4d9UP7SNgAO1H3A8drgaDOVgOhl3Abvy1+2JRgeIQqHmhL9cQCwX3yRmlD8mc7qhqRG0EXDACOhsMZhopJ0Lye3vwlhI6O8CQHSAKJTn8Qfb7+H6USJVqg9fkW0exLIgcPL1R58mAkcqtJzj3/OYXkx6eoTL6fnyQYQX/i4ARAeIQnkegAIXyFRryanxj1cISBygNQr+S9sSPdAI6KToruinDqzIKlZ2I+G/CwDRAaJQXscfrD/YOYntBUvDReraTKCZgJOPdChkMBiNxy4hkI6FFCsHgbCwcj8MOkAUCmXHH2x/Fun1t8X4swBQ64cx8oCwJXo8cskDjumq6P/Q7Qg3mdvVlwSiA0ShUNP+zyeWi7Uk3f68EgC/2+eCaUMg7McajEaQuXPDBD6yfpibRmDVwTh0gCgUagoLvnQhB+XfZQzgsNudkQY0EXDC9uSDB3x2noB0USpbkXUT9XHCStVgBCAKhbLFv1wgWq6ebvuHy6k7IwY2E5Bdi3t6IhbQcQDCL2SDcVANvtlNrzYWggBEoVDW+JcLHFSOT7ez9eEKep2AP16gXOFGIeRZLYWw7QjQFL3K1UwNgIpDbz36HgGIQnk3/g1EK4fztr8syT97N8zXH9AN40odhJVCIAqmJrACBFwDgOo/ubfRf/pLJAQgCuXR+DfMR6Ll4lF2uJL9m7Ed1TIVV3rXanU6ndEXlxA4GhG+Pg4614SAu2nf0vth9BCYsU/eOPyVEYAolHfD37AvnYHrl/7haup2h9MO0CCgP/vH+/O76447zTBqIvBp9NQhHvCy3Fg6DDaHwBrBNvtPWIo5QBTKmwAE/sH2+xnbn23RrtUAdmfdCGEIBAr697aPag8Xd51HV/KA5jiYtQSm+dUAyPgnb4zAHobAKJRnBfzbOYtlX53+nQagCsFZpeDv5BtL/vj2m8Nq/uri7s/OyIVeQM0G0gUxfxITuJOJcKFflgiDzQ5Q/rxxDMyi6H8iAFEoz0kQOLj+cXgULy1T7rD4vy7NA1oBSN+69ZI/S+xfcadQ2L+6OL/utN3iHwEg3At5hDD4JiMGltkPYwbgZ7m3QRhsZicCEIXyHgBp+x9cf6t3V5PKQKsFJOavO5xMJqm92NbxTuFATDfuL68umm13LOAzTQRCu2Hn+g4up++CCVzRAa5dB5HN3MQQGIXyYPwL/KvFssFSt7sWAW0hMPDv48d3e7HT4n40wHO877Zxc3V+3X52Kw04fh6BaCLwML8bWVwMtuYANzGARhs0AhCF8qAB5EXi/2Kp7jqy84+OxA0JAN/FCf8qUT4EIXb4bePmw3mzRRDolgt8ZgeTWs33DzewJnUBAy0O0GDZSvj7bGT/6I8rCEAUyluC+bdIoVpLxoNdxzSc+Pe235xVYWX9L+zC3G/EA17cuWQCgX9qQ0ynRQ8mNWhL4NIO0KgCr3IU2BI3Yx8gCuVBAML82w69/uYY/obDUjZ2erxD6xE6bxrly4s74gFdE22IGXU6TVoLgV35SzpAC/1WDn8NBmIfIArlNQBCAeQ4uXL54zX8Dev+xFaxAheLtDA0JIS59P2VuwSk9WB6MOn8w01G9HGvRMG2SZBpmi1fAtFiYHSAKJQHE4AkAN4OOse/STAL6b99+7GOEHdLouDzZsdVBNJl+bApGq6FvHIwyeoA5Z6RyVvNApqIqaADRKG8BsBApnqS3HMu/p0Ef98+Pc4Xpm/2hn2395cfzq/bbVct4GhA4mAYC9kpkBB8AQAViSDM2tX3WV7uf0//SfVNwSIICuU1AKb3z5KJlFMAHJaAfznVfVnpIwhcoEEJ+Dx2MxM4YplAYgILIr8IgGoNRO7pMLNHw/M+TjfCSDgJgkJ5S2ExvwX3f52gXx2GP/54f1osi3MqEEIAPGDT9UTgaPTUbp6fVQvwhwivAVBnnmmwQ7Z4u+mPpicM/9eTJVyIikJ5DYDRXDJbqjsDwGAqHts6zJej85JvAk+i4IcLlwlIt2QNOrQfZnfOdgSzAzTwZrZ5stnwmRKEZmLaHCCGwCiU1wBYjAWdCn9T8WSNhL/pufVXWDoIQyGue0BCwDZNBF4W0jPzgDoAJUmyjbRZAmKdeJLdJdpTgOQXIQBRKI8B8KC4XXIo/mX8E/lXz/QKvsaNyx6w32fFkEdqAu8js/4gHYAKMW4ywZtEKUfxJtF/1sZACxdtBlDSfgZzgCiU9wDoSPxbStHhj3KUXzCFy6Xv2VBI21UA0hVZlIDlxgxLajhAHWWS9k6FnWTO9ZnzhLNTgABRBCAK5TkAOhIC+4n9K1Yyoi+8aA0Bn27QhsCW65WQUYeGwXlaCwnNc4Dg+6arwCoDTeGuzByiZHpa9X7qD2AIjEJ5LgeYc2QMpJRNnhD7F+AW7mGB7fuUgNfu5gFZQ0znGkxgwRjKswHQKOxaS7zT1V7DJsp6WtBaA+7JCEAUylsAFPNbcX9pMwSWgqk4499yZ9kEjYDul0JG43YLwmBamRFmOMCeYmmFpowznoT5NlO0S59TKPsk/RvUZxVshEahvCYhXTlLxjfbhFAPxmH3QSEa4JY9yBFplP8PDYEsDm7TayHkr+NnAZAGweadWLMcoNKbTvpZayMyzSYiAFEobwEwUsjVYpuMwtXrwb3YSV7tflnqRUMC57stXz6cN10GILOBMBbygZjAADcTgCrEFHk6B6ioe660r6sO0Gge1PcJogNEobwIQN9BpbiV8K+NPwh/Y7V8Rlwaf+x1eREI6HIeEOrBMBYy6MCufHOG0gRARjSZGj3FsHWKtRFQdYKKyQGqj9UnoaUQAYhCeUohPrJbOUzurZkFLKnDH4VFC0ink4+BBvWAJAruuwjAvloOvj5/uKKbogULACXJZAF120fppkFOHRYxkNjrGRzsmZ5UZByFQ6E8BsAwIWD+NJEKltbK/mUTUP04WJl/cInpljYEtvpuWkA1EdjuXN9dPFTLUZ8NgNS6gQ2UFXjTcMgewkf2hZ7+rPG5+afgAeYAUSjPAZAgMFI+Pkpk11mIUEoljk7ymTTPLT5DZH/hkMDTlmjX84BsLqQNTdHFfZFnf6juACXNAVKMaY+0J/VPNelfVcNe9afoAwkBiEJ5T3y0cri1vedfcSdCPejfi22dVQvLnKGcnQekHpBEwX1384A0EzjuNN/DWAhbk6oBUJEt0xwy1HKp7dOwpjf7mb9T0d+ZHpDfhQBEoTyncOBgP3cKZ0FWAiAJf49quUpmzr6VJQAY9qV3XW+JhkIInY1rt5qwHYF1axs5QEn3dtTdqe8k9aPZCBrvydfpd+pfo78GiyAolAclhPl0IQcecCUA+hNvzvIwYxFezwDSQyGRxs3lxV3b7SD4BXKBbRgLubii1WAh/FatAuv7nE1mrycrhr+TVCOoZgW1qFd9xoiXJQyBUSiPmkBx/3grtnQUXK+Xgv74EeFfmg9t8rohICDkAfsu1oIJ/vr9F1oP7nSahIAHEZ7j3t7+CjdBFGoCZTbZIbPPNXOn2LKBsmI1hJK+B4E5QAQgCuVNEwhRcC259G7oUirODl/6wpu9MFsQ6G4U3Cd6eVE7YlqEgPB38/ztr//416dPlGLU2VGIqXO9suUTzSHqJQ9JUh2gZJoHxhwgCuVVAHIBsZA/SSayS6yGqXfrYP+qbPhj0/CbYw2Brb6LeiEAfIEw+GUEmcCHKonc+d/uAYCfzJaPeTk91SepGGQl3p6e/VO/qD9BHST5FtwHiEJ5UqGQwEUy1ZOjxOI8IA1/k4c7Cy7vLv/CAfH+8oFEwa7pmQGQqv3y31bzAa7WpQkA/w0AVC2fkQP8H3vn1tO2lobhyU7txAkt0BKgHWhL05bdY1pAgrCbnYKS0bTRFG5mFXkmkm/ii2wVX6D5/+N19Fq2ExKwA0HvEw45QCMV6dH7fetby4SvBp+ZCZDwb16U/GhoJGodmGArHADzC71C8LtXdCT6/Xj9rd9feBv6jw4/Z5M+C63NJj0iNccA+B9lQH8w6Hx/93JjdXVnr/FvkQCjNCcWeInIf0QLgh47AIuoNBi1Bwn/LQgQgLnFKSyuPnzxdvxiML3w24Ow/N24wuaPUSEwNCDNgPvH3XxLYOo+9tE5/v7mxZPm4Wnjv1yAnt7ZS0+AZKgf/8ejH+8bEjU1iB4gAPPbB3SsytrDF0vL4w5IfX9vffnVi/parWA7165/VRXMBwJz6wOq7Bfqjzmw0/nn94ODg5Pez58/6cWM+PoGS3X6iB9T41CN/fF2H4kGZ7AKDMCdCoEVmgHpWnCaA8/fiwtfPnxazMp+woFsIPDrfqfbzVOAPhNgSHBx0Tk+/vOPHlsE8bQun2zpicCn3VMrvnzb2zBKgDIjQoAAzHcItGur9e2lhREnpD7/7fHyq9+f1Neuuvlt9BuXrEqbXy1uJgIMLoJO549/8QQ4FLdkAjTvGaMyomEo1TlEDxCA+a+C7crTjWevHz2+FwY+7SY2vz1eWKLDf0WrlPEbl0tsILB5cJyrADX/XXS7//ifd/YzLF+Jx28sxPFH8oF2j9pO/hw7A8YjYjha/gNIgADMNfRsmGJ148nrhfXnhgDPaf37fGV5aZvGv7D8LWf+1nQpZOswlwxoJsAg5OIiCLp/SQESIl0WxkCWBIdEXOpc3hPLJLLWVSsk0fPhFyRAAObdgVaFbgpZuM82hZyrIPieTr+8eVZfu+bmt3EhUF4rKecEKATo/6UnQCLlJoQ3pDs7CN/gQT/YJw98/NFQpEKeAPnLECAAcy5Axy5Wt9hA4Pl5KD6ZAJ+vLy+9eLn1tGI7OQkwNKDYFNId7zI52jJ1/uMCDAZxAXIHcvspDxKPKBuq12UCJHztlyVElhLZy9gJAsDcG7DEBwJfPX4vDXh+/vze+jKLf+bFJbOvgmvt5tc/5WKwkl1MZqmvJX94tP9CAV4wAdK9wEMvcp0nbCiMJluAkfgIMTRI1HMMCBCA+YcuBj989+j++vr6yspvKysr648fhOUvPUWllOf7sg157ebBvmgE+nGp+UqAfuprkwjQKIF/igQo1RethujS0xqBKhUKaRLRCOS/CAECcAcEGCaxtfqz128fLSwvP1heXnj09vX237eqYflbyvmty3ZrsynGYfy45fw4qdlwpP/0CtgUoKfcp5ZEiEe0+Kfkp60Wx1qHBD1AAO5KFWxXqpv1l9u/v1laWnrz+t2T+iY9+iWjzW/j3pqfj8UyoJ81egK80AQYFb9qoEUu8RJtEkYKUjyjFk2iX4MAAbgLBuQKXK2/fLa9vf3sycOtajFMf6VyOf93LpdsuikkDwPyADgYJEpgT6t+z2IVcBT/PK1Y9sykiAQIwB0LgbQO3tyo1+sbW6vVolOe2XuXiuJaSZkrcBDNASYSoKE+4umrwIRERe9ZJD259BFFQAgQgDtCqWQVKrXFarW6uFjJfu/HuHcW5+SHBsylBk4ughiLvFrzT1/piGJfNDmt1kw8JEAA7lgVXHIcy7Jt27IsZwbVr54+7RbfFJJLDcwCoJEAo8Ye0R7qFa8MhZ65UhxzIQQIAMgAm20KOe52+/0ZJECia04tfxB9LvBM12P0s0RvAiIBAgCygF0vM/OlkEQCZDtB4gPNpuiiFyM9qoCoLReHj7ETBACQBfycfGrAXBPgmVwF9vgHkd88/bnoS/xmPnQhQABARiGwtSXPyc90EdhMgENCXJnoVLaLvsSeid9iOoQAAQAZhcACOxohwyp4kJIAhyRdbd5o4Rm6NOQJAQIAsquCxSnRmRbAyQQ4qfkuewElMAAgI/jRCHQgsJtpBZxIgMlop6strTYepUUIEACQnQOtltgUkln9m5YA3SmK4JE5EAIEAGQrQKfADLh/3M2uAk5NgCMq25HPplXFLgQIAMiQksO3xe13slsCSUmAKQu6JC3hjWsGogcIAMgcR24Mzm4KJrkKPO3SR7r/kAABABmHQLvGt8VdU4GDSxLgGO1NaEAIEACQeRVsV4422Ej09QQY7QOJCTDhsfH7PZAAAQCzQrta3PX9F6hrIo1JgIlkN2kNDAECALJ3oFWUm0L8/uAqNz/8NFqAQoDDUIDu5cluovznIgECAHIQYMkqLvJrJYkwN6UAVf070BLggArwLBRgaC795rmJW8pTKT+EBAgAyMWAfCAwrILDJEcDnc+0Rr+M/vT5PSq/Pk+AgZ4AuQBZBWzckmojEwkQCRAAkBOOXVv98nW/0+2yAMg/uQLHFr6i/O1HAXBgCtB1XS+bGxIgACAfwgxYa/MrBvMUGBmuzz/YFz/6xqzX9/UO4CAlAWbmPyRAAEB+VbBdW+NHIwxEH1BlO2HE6P5ABcRk/EMCBADMoQLtytHWYVgFS/2ZKW+ggqGWDjUtGluBkQABAHNmQKsot8XJ/p6vJ0AuQZH7fC0FsjXgvqiA0xOgufoRXwvRP+LftZ+FAAEAuQmQGZCPRAuvRcVv7ItKgUYDMDkGEy+Bk0vCU2RACBAAkJsBaQZstZtfjzt+VOKKO4YBVQrk+ov2weXZA0QCBADkCl0KaTfDKjjqBMrA56v6V2U/YUR/fALMzH8QIAAg5zLY5leLYyHQ1+rdvrZDRIuD7BwYWQcHsTEYkpoAR05EX5oA9yBAAECeVbBTaK3RTSFdtb9N7XNTj33jBW0fHPOfJkC+E24ixHa30S97PQgQAJB3FUyXQtjRCANfyM4fyLu+SH1CgvwZeRRMMgFSAWbmv97JtzYECADINQSWnYrYFCLCnT8w72jRUH8YGMdhTSlA7xIBur1e4xQCBADkHgIteU6+Fvy0LKjnwciOaifcFQV4iR57jZNPO7s2/joAgHxDIL1o+tahlgG1CBj1AJP6EzVwDgIME2AYAHd2Lfx1AAC5O9BmGfC4qzcCza+xAjiqgHMQIG0BnuzttFsQIABgBmVwkV8pRG8EGtkvpr/oiiDZCNA1F0hcl3YAWx8c/GUAAPkLkI1EcwNGcU/Lftrq8CQJ0FVSc03JucZzxiP1ndLY+xj6r4S/DAAg/xqYXjJ4s0mvlznQlkH00T8/HgCDKRKgO2UHkM3AlMpl/GUAADNxoF3dijKgNgWtquHYEsh15gDHOdH1eo0feztoAAIAZidAdqUQYUCz3PWNjSH6eajCfxkugrCjUOkK8GfUvwCA2Rmw5BTXmAE13/W17/1B4iisrFeB2TXjwvr34+5nCwIEAMwSp7YpNoUYp9/3Ez78lXkC5BfM7PV6jcbpXpj/LAcNQADALCkVWqtsU0gnNQJq+W+iBOhO5T+2Abhxcvrp2047zH9YAQEAzFaAjjonX/X8fqnQF1sC1qZgkgJME2HKHIw2ERNCeo0fVH+78B8A4EYcqBvwl2+ufrDH3H1mAry4bgncC9Nfr3dyuvdtZ7dlOyXoDwAwe8pWjVbB+1oITGVED/CqLcBeo3Hyg+rvI2v/wX8AgJsQoGNXxLa4yHZ6EmTh71dqD5BcTYAuPfuAhb+P7d0W8x8ECAC4EQOWnQIbiR4fAQN9DlqUwFfzX48dfnVKw1/rs+2E5S/8BwC4MZzikdoUkmI+OQaY2ApHXG9qBbLBFxb/2jT8YfgPAHCzlKxilQ8ExtVnWDCI9wCnSoCuywdfTn6cfvpGl35bH7D2CwC4+SqYXiup3Tw8OO4m5RdI/SVXgadJgK4QIO/9hcXvhzD+QYAAgNsQAu1FtjG4q8tPzgSy70FyFZhMNflM515o8Uv1R8Mf/tMBALckBFpFasCDZB8w0K8Il0iAU/T+Gicnovj9/AGDfwCA21UF19bYSLRW9hoF8LV6gPSqb9R+svhF7QsAuFUKFFeL66bOQBsdwCl6gGzTr9z00VatP/gPAHCrKNmVaFtcoIU/bQpwygToasUv6/2h9gUA3E4B0k0hX+hItLkUHBj+m7wH6IpNb8x+vPhF7QsAuK1FsBgIDKtg0QJMDsFMnAD52IsXbfr4YKP3BwC41SGwsLjZVGvBahkkioCTJkDe+WuI8/5ayH4AgNsfAq3CItsW19UjYHoCdMcIkPmP2m9P9P7wfwsAuO0CDA1YXNz8IvuAMgJGRyFohyGMFaDXk5s+eO8P/7cAgHmogu3a2pevtAo2BgGnSoB80wc77Q9zLwCA+TJgWxwOE8QCoNEDHCVA0fqjc39Hny2YDwAwR2Uwz4B8U0gQxFqAl5XA8dNOUfsCAOZJgGV6raTFrcP9427QDfRtwKoFOFKAof56jdO95he26QNzLwCAuQyBVXbN9G4iAo7rAbLW34/Qfx+PKqh9AQDzKcC/lR16tTh6Tr5R/449Ep8tfPDi96hi40LnAIB5hY3DNOli8P/Zu5fmtq0zDMABQQDEhQABkgCJK3EnSMpj2ZnGSiyrdpWFc5lGXXThVVfZZFJ3puP/3+8ApGTKlNpKzJiE32eSTJIFJjkfzotzA/h+vRDYTIEpAP+5402Qzbm/t2f10t8JPnYPAMc8C5YEJWA7IZdbI8D1KuCvf9sKwHfNuZfrlz5w7gUAjn0Q2LwUclkn3++3zkHXAfjuZvLb/Mov5R8W/wCgBWTu3H7ZJODvdfjV8fcvNgD8wPZAWALWP3T0Y/O5q2byiw9eAUArZsFsK+TPP1AC/rte/tscgnn/24d/sACsf+no+qWPc3buBR/8A4DWTIP5izOWgH+6GQFS/tUDwCb8rj/4gpc+AKBtASiOL15+++KHZiGwTsD39QJg/bm/9c5H/Su/pzj4AgBtmwYLvOp/+4K9FdIcg3n/62/NAuDNO2/XXztFewFAyzJQrI9Ev7m8/P7ye/KXDx9+fPf3za/8ntVf++v1cO4FANqI7YSc0SDwmzdv3nz33c8/1wt/zQ8dnTW/8ovsA4C2BqDAn19QBP7004tvXr16xbLvr7/U6ddMfjH3BYD2zoElSTg5f/7k2du3T5/+Unv69duzlxevT0V27gX5BwCtzkD55PT5xZNnlIFvv6Y/z55R/J3z+NofAHwJg0BKwPPnzy8unjAXF69fn59yAhb/AODLSEBZEE9OTk/pD/rLiYivnQLAlxOB167/Ho0CAAAAAAAAAAAAAAAAAAAAAAAAAAAAAAAAAAAAAAAAAAAAAAAAAAAAAAAAAAAAAAAAAAAAAAAAAAAAAAAAAAAAAAAAAAAAAAAAAAAAAAAAAAAAAAAAAAAAAAAAAAAAAAAAAAAAAAAAAAAAAAAAAAAAAAAAAAAAAAAAAAAAAAAAAAAAAAAAAADQcj1JFgRRFARZkno9tMed7dSTbloK7fR5blSRmh+tD/skibyhhqE65kXcWvf3v3VLGbwooT0+w42qqI7jhGO0PuyRrIRx6mVWrLIERHvc2f8o/9TYyrw0DnkZ7fEZblTbciPXC8Zo/Z0zlLX9XOX2dXqtnR0KRpwlRbXMAoMTpL0VQ9rh8fX5nAEocEaQzasiyWJDaEFvkXY72CLJqrUc5Iu5Fwpfwe16UuVkWRBkWXpMH2bLPA1pazZYX7+lCSiqVjIYannpq/yeArBZreFuOfJlRkng1TTJtWGVpKpw9N1lV4WoRpvF4EN8UofuQu/reWSLSLwdwSWITS97TPE2t8XthW52/bYmoBh6xVDva/M0VPazutKTBJEfG+E21VD4egX7SJtREpXQKsy+PqQxiHj03UXkFUNVP6nRWOH5x/WhPy4AnVIbdTtmEiAAdxWUUwyicHLvEdehq4wNdhds3wR0edZ32xmAjluZ05FeWXsLQJlTVCdOt8VBvdEiHOtzRBYVx6v6o6lWZTsCsMfmDkfy/0bPeVahIPa3S+T7se1Qlfa2FLLfALQTfXa16s9jDpH36ZSLN6igcWwb3MMHGZLAbosgsEND2WwIsGtzNJ5p7S6paLsDvdPtV57z6ABkKUAjcUW1YyuLyo9FrrfOQO44HyUsALPBtDsyB64jfnoD0qOTHpycKB/uIHdzkIfGClSh1HO3S0Q1yjx6UtkhFenwzpsI9rJ/dXU1KRCAO+ZcnBFYUZlEWcxWsh7YwSQuTOmmiLLUvl4Po+GMYfupZ/mOQRHYvgQU7WhBATgd7CEAqQ6KEQa+55bzarDIFx+pimWTgtSOx9iMmwDs6J8EILv/2F66lfoBDaMPd5Db1McOfIsqtCyoRNsqKlLC7n8/cGggeFhlEhGAd8+5BD60lrlmDis3Nh62lk/Flsd+kmvasIpSpzlt1PtKEg0/mg8Wg6XHsrWNAejuKwDZw8Lxs6QYUCn0/jbdpJYdDook81WxZQEoc2PbSqrFoCgth4LjQEe4EqtPbLlJUeVDzTT1T2qkm6xKeVUkbhoYh3XgDiPAezqeqNhuPp2tOmbhsVnwQy7Sk8TQHY5WqxFdJDA4qfmXHAuIyWiqzTO6JVoZgIN9BGCvR2Uw7DSqNH066nQ67M8b63+a6MMis7l2BSDbH0mT4bTT6Q+Tve0l7beLNBsfamC588W6QHcZjSa6VlGU89Jh3agIwLunwLxD2UXNM83L9GHnVCVZUILSnF1dzfT5ZkNAkgQlXprdq6tuP0+skGvfRsi+ApD6l6LGXjkwJ93VatXtTKYfm4y6sxU140RflAHfsgDk1NitdLpLZv2KnaeUD6+HyAI3Vu00S6qhPulQKWbdzmi7RFSkTl0kKtNUq9xAwQjwSAKQBm+qN5iurlYTrXDj8UOOaVGIhulcZwFolsG42QSRBE5Ni37dc81BFPAIwHumv0EaFbk+oSBYUdDRhHeYN+jv2KijS91uRIOkuG0ByDtWkvdnj3oA/8GT3/rpFM2rodlndVjNOpO+qW0KtC7TukjUBUb0nPIVjACPhqT4c3M0m3X0/IHnVJvHOLuLR8NMFXpsUbCe3HgVa/cZTW+WB3ZLHE4AskeQEWfLhTmlQcSsO+pri2KZ3FgWA+p6nRn1rLxsXQAqQVYMp3UADhPLVg4vAOk+9t2CSkCT3y79h646U3NYzZOyvC5RSUWi2TF7frEAHCb+GCPA48EFZa6PujRQ23lM63+4wRXbW7K7uNuv0k3p1wG4uqqHLgjAu0cY3Djw5lSB2YrSz6T4K13PuuZ5brSsck3XqdtFd0yB16fZxYM8hfbfAnBeB+BsmieWc2ABKLFDEk7qVhp7OtHMdzrt61peLaPM2sI27+k5pdNkWDfzQwtAjADvD0AnK7Qp1Xc6LIOHtJBs+OWARehUuwm6ZgrMVncwBb638Wj+6y3ZE2jGBn/zkp2ksJ0bdsDOnZXJfL4sLWfnJkiPfW0ltINQOci99nunwGFaLvr1GuDAjdXDWgNke9RhnCUD6h71g5yyr1iW7EQSVSjcKlJ9Piapz8dUZYw1wGPqx6ofDcwOJZU+jx+SU4LqVeakHkK610OUehMk0SbN3Jp6LgJw90XY/LcZ//WHcze1m5eqbijK2FDZCbTUsuLdm+k9QQkDK4o8hzu2ABQp/gt2843MZRryhzWE7Ylj2yorrc+2odgSxDzy/MAJb5eIVWnMXo+zfcuNkjILsAZ4RIQxzWA1thE8oRms/P8fxhediGYxq/Vub2+ztiXT0JJunr6eL7MYx2DumGRxDpv/dlZXs4k2z9gYiL09LX/0kRH2hQn2So3q2HcM8SRRpRQdLJY+f2wBKPBqHC1o6mgOXFs5pK+K9WgAyLZoFiY9nGbd0dRcJN5/2Lu2LVV1JXoUkKsioIBcFRRB/Jn+/585VRVUtBWwpffQXmSN/WBvhaQuM5WkMmsT4Z1Eovy4ahURyGQZhanvp2+WBjNEgM32yUEIuHNBQouDjw4oPevDYYLpLmMjqwEdJUJvvCTL8r0fqoowAOB3H5NEYRnQDiyeFGXb8FHCOKWiLfUHVwxEzt7m1swoUuXDABDzUKMgzosijwP9rW5M4vEv4Z/L0+bsLotN0M+koYuSOMHrPKH9ZonQQwTYxT4RAHceZrE8ZYTgw0qQ42HHwtoHUc2B6XbDJgg2YfRXr8K9CoCYQOQXMzriPZQ+8QpKD6ASjzkenHKISpprq/HqYC4/DQApx9hGK3npLvpvACBuziaYm7TmMQk9TkMM/xrtmJhFlq/xigwR4H8/1Y30tEAAHGuYjf9crAa/Vs2igk+7Dp+UQjriOG6Et8P/ICHMywCIkt/sMQ39iGegKL0H8QWxcD4kTRF1HyP48c7/NACs6IjQSEZvRvgl0wE1TE6Y2bJD1lviJGuMUSXGrfluZAhDBNjshnRnY8YWsd6zu3V4mdM74AJ6VZg/WED/0wA4WTpmjtsHCyP37R+XbBB1T1t/ffHW5wHgmzaYvDnHzy3MvxyvjHni4/3eTyVkHCLAZmVDtG/H1orHc8jSf/K8VlCcNMEghp/lgSL8S8WBXgfAUZTGhykPIcbcC39OBSAPANh/l6M0qdJjd3g4r39wGsMQAbZKKGKJLHiN57kcJgmTaApjfFy72j4c/VOlgV4GQFhleZnm8uwSzs+PAIYIsPeYCfAvnuPhPD+b7+nw44NZfYcIsD2EoOluDdNdlj6VxS6NaKVA2Pkp1v0+AKin5W4KT9Cyl+7PDxFgz01k0/oCr8hbCTG8sQueQwT4RwFwucFQBC+zzX1d/l93ZYtcuD/ASgHv+5rqv1V06nUAVP0Cp51X6XKGCLDPhgmAEJoXeDtq7SJL3LsRnA4RYO8mSqQcK6Iz8KJndnuJSsEFQyEumX+r7OjLAChEnuXiKqvwAnU0RIBvAoCiPFHTXMP8l5UxjzfLT6/6PESArTB25nPhtb3Ndd2MgrlS0M05/G79pmRGbw6ADrEo8kQjOxkiwDcBQEYS7H59HRfGfJ+qoJnPPtobIsD2PQ+lysdYG0n3GQ/mylHk7RbIhFq8kMbx7wJgMqP0yzJ1XrkqM0SAPTtDlJ6ofPepo8ifb6gDALbonDJyNQTAWda9yCNROe015FEwykB/z5qAnwCAVFr959g1RIC9OgPHkpO+vhZaaTrK50/rQwTYIZSrmPErVqKOESBYdkqBI/hw+POacv86AFp7EPkQAb5Ld5ebuMB97fH04DncH0htHSLAViT7nyQgMz5u5lndeSnPFR2O7g7PTm63SqQTWYbUdKoiMTYNQa43+tHtF6XaA7uMSury+vM3668XGONH8+/6BED92YPGiyzwNPkEgLp8EfqNqJ4VnthVeBfxPVBhCwBe3tSxW/LVq4TTu3qLl1QT+TH58UrL098617s1uNo4nh5IdU3ysfU+EwHePqx38b7vvJdmyIy/MIo40DsCIB4eWyt+PZ4V5vffSOxipCA0Qgld8+eU5bkpClXJ/v4bVp369MAO3RM7vP6s9MkIqfdqvWB9+K8iwCeXwNWt0wk0WZ5EMR2mWFt1ItPfqoaeUI3hdE2140XVbrq7dOZWhRxVcRe7ACArOd6xmjhxQtRfhY3dNu8HmCR5ZMe7KX9k2Zm/xGtFpowGVx+J8rNxoPV+e1ZN/E9GgN88oU/xvvPOh7JhzPigd79jQl+1WMAkwCT4PldKZKwc14wkRPSkOuGl2U6kK6NvDsEIUTjGrtDBWSSx+vqk7Zo90TYoeuTYtV44eluh7v72AH/AQYGDI6sHt6lq8vFabCvwt9M/peKhkC4eV2mjg1fVvt0qaxKfal+pUEXuAPbTNgBk3tuJMIgKqSM9bL3ZkaqMelqpgjXqQcnogQtvo05+CwAFJPF2bPt6HMsf0Cah9XI3xgvWy12s96kIUCYB278j3ncGwJF9ZsaPO+7UyHqK98V5934lQDBWJDNGV7jPBiPholbGooOB6W9PzffTAOHnVuhk/PA8eGAnviFMZ8Cv3wPT64UkwZ8TBqnvb9k/6EVK5JdN0NkfAObIBPMcAArIDwijA3GoTprPsPyekQTwKbo0kFR1h6uq7hiRj4ldns9ddNfAgMdWvyBoZ2NuLyo0QYVR5YNSCwDKIz2KYM5rjoErTQFsOJv0YixbpiqH2ViX9XrLuM+lbBavHk01SwwgiwwOhlIzOVtdstCt2zgYSRDOCUjJf2W9yN11mvi7AeDpYSjgmjtexCtJ0h9GQWmipnvwZ+SEScJu1OpCtIVfPLzJIE5QlmnKblJK95YBE9AdfGcbJ/mllUnsmeBAy2vgksCD0WgQHrtk3BBRPHx9gw96QLNH8f4Sps8w8L04KWu92Hsm2mMDA2aPeYDIJPvUE7BYow2GCi1NzfhA1admRYyfLi2lSECsgjTdRuHZapd0TRG+fdFdY+hM8Xvggwqziwr38dYMbCKCFFsAUFgii7LZcvRWUe1FqKh9XU/4Ms9HvFV6WKrJyFC9WyFB2WHrKELfV0DYhg+NwwSrL8ubcSAGshm72+KXYgInRA+6EsrZejEzo9sSmJAUgxEsblJedcuk6Wwk/GWuJ2mCxckwpWU9zQOlfagViYx7PFFBi9+NyTbBLUoPd7juASAgmoOekxU7SzO0U7Os3bzI9/4mUuoLAiSPCrb7PE+8NOqwNyONosADYI3T6BHXusgwFQs55MUcOlHvxTxLYj+wl8LvAWAUa8SjM4c+PncTBB3VjPOsyKAVOwMrGhxd45BdWlFkpZdWxcYx0Lb9PVgzqKrDBoesgO7KPNmGTdlNVDSXvC8vDpamXakwg3cFSHPaAoAjZ5tDX+NGFg5k143uvYnedijQS1mg8pqLsvoQ7vEIRp2CTfft8VS/ijCmzMjgqmZU4wCb28Ks08meEP84Jv6rZ9WtF+LqzgBY6bIsDtcPs1CV3qczQrTHS5waEDnnidivfS5TNiXLgbm/h0XV4kC1me/c45kmnzQTrCY4XbnQFtV/7mo1nU5hWR1cPRXPnLe5ZWB5yC6UNSIXYj1X4xA/dGLwKjv1sOok9GG6qnpBfcBOGNa89G1OfnARvoe7wFvabicWsue22yFsMvdzA+Q0nYH4FliS9otfrKaz6aXNtCKuEnnRVYIEpLHL/S61TwU9TUh3mBUqNy0YAy8n8ZHwzuJDFc60eeJv9NEEZq4GAOTwMqU7m/u62Dg/AyJn7E2rk60wTZGqNKvA0guvrllZhbAFVijY/8YJCEHWtiSjrwyuGseCxjEztHm5DdCgOpw9CSPobnbQwA4uj1pUjwI/KanIjNQBALE8tQLxRTk/P+xGvFkcqA2m8PkASPM0MZu6GPy3DpWIpLNpA5O+jPkELr+wEIFu/jdF7zrgnzVd8NDGpDQy7cWYxwLUYyP3w/pStyqhOB6vrLILZY2ogMfD140S93LEe8tfMEbwKmvmjtdrLPu6IHVXncA6vTOrNCPuwYKkDzKEjJXTwxunT9kWFpNjW7bU1kcEwGP1qWq0N+GzYuMIVWYxRdKe2O5wFigwgjT3huX7+hxGxgjey7BoLqnwLD4mP6wHiC64VHTbfwyAinnAdYcRq/LDEx95gvHr3Ki/qfYq/JtLL6Ng/wUMnEREg8qvtGLbe84impwS4SxeGf1ZZGRzYxrIYor0+7bedu5AD0PSGhA/Vm26Ev+YScSiMlvCKGwDQOaNKfgC9Yx1rKZJ5Ikq4iBaTmTxr24E4vkXANqd4h6PdqGWNislAghwlwoayU6MxX0AxJMrdeMhkxY4Lu/OcNW0O+xwLTx1edoZuzmFo6QbiJh4V4PVidwFAEtrxfNGmd4FQAFsEZZ5cw3s/Xhcj12cfqETO+zEDDuBpTqQqv4BGebrALgMktPJu6k+xTiMAJjj6MBYx+MTALJPVYMPVwDo+ACAgIlx2AkAtxAIIQCGD7hQqJ7Rxt8XMMfhqxdn8VmgwxkEpet1VUvDiWy/aADAHQDgVxMA4uaHl2N9osubKk2RvYzBXo5jepmtvlRbc2THRG40OyBDY88uRhIz95mFZYYxXodxMLvHRSfIDAwRxgGLnwSDQKElc2Gk0yoA8Y8fY8X2s/Xio3D+nuISIOK4MG8DQAHDv6QAXwAsdVd1VTLxrvFetB/Cklr+owAoSTJ3WtJm/+fuStcUxZZgo6IorqCoiCC7gi8z7/8yNyMTa8ouVpuqnmv3r/mmP8VDnsgtMjI6NyrjTxGQmQfUDJPybZoc4FQBIFIyj9/eP6Bcra+pZ0dRZKeUkG4W2wtXxp40UigCNFIAIAiqfw6AWEgZUPK7LK4Ptl5fA3oK2/boIczNkayRENCEzE2pLfYhiAoUo996JFjqtBSycwpcACBhYssIMLo1ACA5wJDDZ5zT4EgZ1zXA6eH4kjXO7yK73gmV/gwA1R25ymyO/UR37Kc0Hy9KXlWMxb3yDPHVdv5Ik0Px8znYsPNrdN71re6mchpfWBY2LWXFDyG794IkY1u8y1kG9UURxH87lHjk+LfP1ssfBedIJ5KH7sq/HusBkIKLU7A2gZuU/W+46ve4CfGmwGvsLfT14RsPvI6tdH64kCvN0tBtagSrnIRt7/ftvKJrXJMCayji2+vFCLE7xwknx7f2ewsdiQBnPmBG9m8AGH4AYOsUGABYmgIzPpLFSU5FlpIEaMKdLYsfgiJDslO4ViRDpbtO+pDEJyeAGHi0uRrPLZ+muzRznYiMM+bwgRw3AkBCawTRWfE3jm/pyZemb0HvQGjTPgXe1qXALKG23iBQHjAo5Z4c39l3uJTOhzugq0mOzEcKvH0FAMHyHVq2bCe/YD+lfJMjb8qHvSQxwhQ8CEIeZ/UHdcChkywu2FGVOr2LG5HLlTWb+B3HJZy+LT+EDN8PoxQgT1GgXIm8ViOciwLRDekD/27zyXqLj6LsdXA0U9+SrWVVAFjof/H7uqDsc8vTyHDOj+PF2aMsRUEgIqM3ln1XXTujG42MLLKaAHDsUkJK/7paCroOAMcP+GR3h3ahu9rNwHOwfMNOr2vTzHL7WwFwdQIA39kWyX3yO9/rq91utwIx0aOUCztx6OsCZ1XWFOpjKZIlIjy4cVz3aRsEYuUoeon0x/MoqTqABnM0r/ivjz+ebfiulFF7BkCgEr0Nxr8RnV9G9w9cCRzfqmAVBRRFH3iiLLFPaUyGsHkFALl9DTvCeiIKmuSb9u6K3xTsBdBB3wWEhLuyz6/Lckx34ZoXfK2jon3eX40dJyb4NzpQwIYuLSEWWRwbPrgsJy/nlIQhLQYNsdysNMl/Qdq4FyFxEIW+5RbWC6akJ5nUaLS42YYntf0KAORsLIU0+UiCT2bjuHiVOl9HvMkFRZpkYPnpvFPflgujUs6KivZ2Gaf+UGuqltgyBRLnht4VALHKWwYuuUxBZrAbKsp4LKw8C7aA6/ukktc7AEYmiu/weGQ+fKcwjaTwhAVzLoIMu/JGy1v5behzLSb2AiO/aBsETpjWzHx9y/JPCYjQFwojz9bzjATzyb8BANH+Tfk20xtc0/nxHMO/x6eDXeQVM7VmknMx+BUAnDyqnVCnMpNULjp/E9mL8mBxsr86MAImtu8OX8leKdgc66cMRIhFgt5Xn6EOnF2YZrxm+Dgn514A1uxh98znQ/B2gzQ7DCI1rJlaFbKtoOGORWZo/oD092S9OoWUdCQxHcl2ngQJ6G2VADid7Q2WdcfFv3rgb4JBL58lIQk+CiOvC5MylfHb9kFU8FYwEHzYXJ1ZEwCeA3QhtygYlldLqgBQY097ldtjJvDYMrYqg9yMgvoZy7L3n+cjegdAG/pf0ql0BX8fD8EzdxRipeah0IcoM8UeFqNPFVfiUOBIYrcfCZa5wGJabWgVo3D2fojpP4X/8v96jML1DIAoAMvSjAshjue4M+XpHfLArn6O2J/STzOBhIfOAKhpUKf3UJun93Cg+IPfFL7p402pDIPcD2B3dUQW/FL/ArS6vQ2v+M/i6qz6Jb2Ryz+RQ90C2zY3Cvf5d3z+IYBBcryUGW0Q2KGHi/GCErCR+l8Rfm+yNMTc1JP18pFYOJItittzlFmqAVA3KP/FArwl8hB9Nhx/fBjeJD2VVVQ7RpRRn2dvK/s0nVmnnIvyCxE30Or+bZhAB+YYe1XVkkoARM3hlFHWVijpqyUZ3gwjXfoTD7B/AATdgXe+KpOy2+Aa0Ie4D0QX+BsA8Jem7hxmAvHNTcB8fIHG0UIPsF8ApLAM/AsskZGnViYVVXqu3W0XS0KwVwAQL4GpQlzf4wpUeUdGlfiK3taIs+BZl8U2H1kqPbHHALjM/eG0v2sOlp0eBvJ8ID1VyayCjUKHtpFmhJmWixPzPmmCSSl6Qoq9DJLUmYUi1QGNMcLdCgBE75N+NPJfwtKgZGgAjDXEiASmWN+QGO/bB5kq3JmgwyLD39csOUfoAvksyt0Wt8rrXwmAbGiIygeUXYKqWWIIYyhSPM389gyA05VtHpdZEDFdflJis+rMZ06EkMKU/gFQ+iCwUm6zwZiN0odpem8/C4ATOhkrwtIgzplAvit5ZDpASvCjHFTM7WEwur8AgOhdh9Ab4pSQPVU5Ow6Vwn0onDi2D13p7kc0kQVmUmJqKT0K4QPXfG/9yHmYUDepCEJR3APbS24HFjKVQRsFKmhXUkqKtrdaFifiSNB0WRxx+lUAWPj5wZ11oMJyBwwEpLt3lIDH19919wWqoeF1eWGBU7+mlAx7I7eBasny6lRJ6FcBIBfQQbi5H6p8nCYaSU/Dh/3XALP52uacqvxWAZzyeMlXKjh/EwDKYnnuYQwOG07Hh12ZVj8cAWIAAUuDwBfA0twqVGKitJETKA1GIDu9AIDoNGcYUB8t1p6zx1D3pKKcWlCMebVhzBY3ecH8nWDOTXlv3ycHBi2LCNkEnq2o9VYAIMvd+B5WkkjtpSQ/UnVhawP/sLOuFP/4SBC4wSmAJFUOgHQXHUDbnU7YPq/K5T945s4Qubw5z72+KQDSdTynm4KWUaM4MMHi6Fx8ZWApFUXRSgAck5NL6GtGiywqV956aJ9+/uC+AXAXXm+pTx6vUvBJJbOli34H1dH52hTqAwCZTmxwPfRyx1AcEsohnqlDoflnI0AESmc7Y2KFGYTWrkouAmoXw310K27gCwA4XTncN6W81gyc+hYRx04R5HkxRGS8sKGmsGpmwtpun0EOCICByVsX59eT3IZqeSJKkJwr6oAVfDRNOadzbknMExuTmlUqLZq0N7gAWAGA2lh3KOXeoroX+Du1XP1RY7UoD6QP7L89ucp7dkFQqnC5CtygjM+tOZQAeY1mla+sBMBCSFp0VFubad8AODyfbKdW+XAKsrbc9LWx+1JV6gMA2U9bUUFo5WkGiql+F8L5T0WAqLcZeVHBwCqsOqiQjdPHVwAQOTTo2KDScPexQZ1e8kwZruYdhZ0BEPN2cMyXYxzpPQKgJgXAAbqLt8o65mfLKn43yoW/TSRrxcTWqCig1wZjBc9qUA2ADzoGWvUnt274QdUpHVow7c37Lp3Yvw6AHF1nrIwfB8a+MtUny8RYLkPYqdJUqgFQts7Q+03aINn3AOCv8W6/b5Bg4vqIjDuf9C/SIL0AIDcLrDCFwd95eim+BZQkdWFF/3AEyC+fZdCg5V/fLOU6YCI1zo4AiIPx07nktNyHb5K1VenJcswWYmzL6axmr/3rmNenVY8ASCgDhQUuJnv+qlldVNzGgekY4Ur9HOFx9cmOsU5agpRpQ34hik2lAEifq67CK3foefSl7rP+LTyCIvK2ZOjpSlL9+kXnFD2J31hAl6AzAHZEsu8BQBaMbri96IPkolpfsh6nHwAUUYaiRH6/jLYHHmdwO3zkD0eAwzPrgLN2uNvQK+DFgd78JQBk98MpLfaG7sYNsIGeOl9ScszbOsf8q8atYzAHw+ZGnwA4nUlKK20GZdpY3eCaIcuyHuLIfernsCxOPt/e6YoGTVwdRjjjRs6qtAnCNCwWQLksbk3M70/PlDVRRP6fy4AioUIXJQ7CSuG46c5h/fwKKehGACxUDf4qALaKiLWxaJYOTM/6EpP1AoCFHYJWYso0PCXCm5uN3vS45fKTn40A6eXn3AGm69yoYSPk4vXx3h0AP5Ua6SlaRcRSmtlwacbrLObyyGvaDpu3D/ELxsSBF4616K4gm3dkNfGch8S1z2EqCxfLYGGLVvXQx4UupcEwUymVrk/QtNaWtbe4QzoyI3f8rmuSIKIHfQ/I31SvBqE4kQunC06UXwZApMCr/zAAMhDwttAB2eHu2wCQWUUQVkElkCyVnPstsKFqrrRCwB+MAJnRBu42BQ2Z12peluOf7aUzDxDkM+6Pj5bQJm1TExVRS1lUHZyHHScWGADj3gEQaSgb0X0BWksbST2sqbWYZfHFeh8XFLSgsI20rbKPErOcCM1dn6sUPdFNqS+xUkReLAHH7pl3FYV5eMG7rAbRyiuFY4EFDIn51cPRTQD4d5sgLbMXPUIXDXuPv9Su+wLAh7abH+WZSDtjWDRLUsPatdpG84MRYDEtgQ3Sy2vYalyMrqys2+oKgIiKH/3JdotamTgd4ePuNfSsH44AhVzDa5bylvMlxZpaMjwC/9PzQGihcUSHUiidNfzB0NxtUzoK99GNpGDe0FWtNppEOkTX/gAADBxdeVMytDZmxtLDh5aVK5g7HnBiKFLQ3QFQDI0cT9ah2/Z3AHB1QgllgHf++4f0CIB0zBPsJGB5wMtFNJEyMvHVsIUE5Q9GgDy+HEhyllrDVkNRiEEkZ+4EgGPXyHnl1uZm75W256jujP+xdy5ayhpLGB1RUbyBiqKCgop3X8b3f5n0VwXOqFy6HcSJCZmTrJWss/5RYVvdXbU/0hl0D8oTC68B4LXp62KLyqkiW5UiphYrMaqzfypBTHht4wF1ideHKo9N748AjGJt4Y30JJ4ow2Qoo0eupX8oAK+LCGj+ErtJaceKDIsCbam+4K/MNhjPt+ImGl12O/VNAMShUE3r79cPn3lxAIz3vFgXB63Jmdqi9zOMZuYWDSVWgGSW3veiLy+5sXjyBqGBQg2AFfH29pXdpI2qt6cRTXWfy4sASEcrfLYctqXbqxFTizGkKXqd4212qgxDNEnDcimna+Ct1EQbTBxrO5FMQG5wdrioSsO5+akAJDP+xmbRc6IZn/TkOA46QwWdsRuaDsC4YxVVhPTM0psASF/ENLNnvhaAnNDEin46D8Y6GAjMfY7LrABp1dStBbGWWwaAvJZVBuB8BQnWBK3DCm7SynwnippgMkQr4F8AYHXs7odRx4RpqP7f7J9xCdgsdnzeh9tJGnRpnNpK9AGKm5smFbvUby0DQI++ybrWrajuowDYaNRNXkRMNr6XNPVHKujNNLhovW1mQ1D6JMjIYQ1egF0R2ZmlsgFI3VdG1CfVTQhuKxiAXzwGNXdPG+oJRErJpG9hJxBKiOafqACNKg+FajCmSXaD1SlvUBmAVS+2bSgNn+oONRHbitx8HQBbS2oCpDKrJQ9AXiZpKAGvvwwf2/IGxEzcjjKlAzVOJwtRo8wKrS9Z0TVg5unb2nN95v+aq8FW3IvdObmJk4jUpWmzGifrWUqfBRZlBC2zz12pxvh3ABAjSeKqLFzeitnsXg7A71l41nuid0tAAw6A7J3AEitAWPzxhlADlOQzEI07KwKw0eLHNsO2kbbgRlljU6KC/gcAOOLGsuyOibStQ+1m1oBaUU7Yfrc3tJxuytxTRsvbpgBwhingtFTHpKqUBGfwoo4/F4C89ggCrZ8sVsNcD6YCczen03VYOEnEMvs8Ge6ltxPKBqBBTjv++gYAB/dfesUDkIpAykqG3pPmx+Dq9wf0BqYSsMwKEMrInq1ha8qRXAVx2LgSAEkZObDYTbpWEhvU2zSnghXnYPEnAMinGT21dSNiimjcXjwj18Fk2oFFXQxfnWQHbVM8OMvkUCTkUmvU5CpXhfChSVfjYvaDo0Ec3n1OuYWiNQZNamd+xaYCkPvTu7UL+XzCsZxhsUQAojNPLEchF8dkAaa+jmVUgFR36lgHQzcKLFAKhkDgMqsRrswKMN422kjExtxswytlgnD/NG1F905LJQNn3VzSjuNEOdjyRQCkUYzzQz9LLgC/Wxp38bg9757TDqzKOJqekgpXj7v8ZfvMKxRLpmHScDn63IhgHYbYqP9gnOiiGJIKOi84KysTpLpcUZwsU7aFmbS8E8XXAbDJ6906Lh0Xa8UpXmZl9ckVVA4A6duhScJ5ROZROjE6YjjoIu0eLbECpNQEOhQS9YwuCUAOUFUDIIa06N/3VmpqvvqIFD7406Re6asBaJg0XU/Htgq3CTl3IjvryrkCkKPE8P2Tm1nx80ZNzgXWxyue8xQPaLWiRzd/2iX+82hMqkKMiXkfDMCbDtSHt5kHG0VlnhuclRWMXuEAaqjgNyt36bRbucucFwKQl7sjsw0NtYMwLG89cGf+6rTdkI69PADyzQ8CzvZWp8eh1xNMBzupsuhGqQDkfXNKrZcFYMvJDEZPAKAR2+nP/Z1aHWfwAIn0K00AYKGzwEY7pKGBpE7S7O1g7BPdApCSCDY4GsYOrHyEYBIAxdI4CkzXOqfBcuwsci9nOdgdOsoH2v8+ANKpHfkmtuvWnYynoWP1ek7vkpEDICmVMOeESNMDaZlzmz1eBkCcviL7BdRzw9luvz0cDhbCqikWmvJ4SgUg/Aim42EyZKqdEZzc35xczB813l4BhuI1i/J/5Untm8cADFUBGNvpg76/UDrLFZDwfDqnfgqA0YhmkQCk7JkaKYaNhso9ECU0/QQgdS5r4gkIncrvKsBGoz7idt5a77iicOJwFiKiOOUH4cUnC+Eh2Lj6ZABGt5CAnH1072U84nuJ2wS7PKD5JACpKqBYA4qOPbBY2CAHarM0AEbaVWrA8waz3QroEzXfdEKXLS4sQssGIG0FCihT8C7y0AKES6ZPnpVZAS7CI2anhtA6GS8EYGyn1zq+mps03nF8vgIkl0yBAPQ5serOapC/FVI3B/cA5NAerJoGClLSxAoQ8wxrcr0Fk/7Gwlf+gf+W8iP+OlI8JkysHw3ARtzpLB6pOwsUtmaX39Pm2T3MWQCMInP6U3R7YEoURSDC+PRU69sLAMhLX1H8eYPQP20tUfP1KQH1ItadyEsXFITOvWwAfsVyp7gt+hJvOSQWXWVWgIsZzMb4TEevBGA9BuBkOGurAnDMf5o6AHlC6Uym8iIBeEl4lCR+n9baSgLgJOpc/mUFCNsYNRqdtWmv36ef+J8JP7h6XTyvlD06+GQAGrrJ3Ua1+2iQuDsJGYW+o2dvTmcBkBRQy3C/oaDAGvKYTwiKdsxKGgFfAEAoCJDhvSP44fOdoOY7k5ZvMu32xRq4N9HObwBgBK2lu7I6KAIvUVdS880VoENYsjezUgCIpApFsR8NKlndZwDIc/A8olk8AGUnB7/fhGoiADsT8Ub6a9kjqNQKkO4IABCtBnKXVqPv4k8HIAbzHZ81YVt3fOOioBCzLuLArDBvbyYTgERAyu3D9H/NFrQZHrc7d95OC74pGoA4bR053uxkCfTF7BNXQBuTgn3DzWG7J0XV+T0ApKbAdeTyiPzo764AxytksNuyrWO/BGBgK2/HIUlO5ZXernx4QqnW9xcFA1DbuCPVe6TqHZIrQG7y/mUFSO8TARBDR3JXEJz/AwCkTy1k6/bdc9+IbMBS50BZAPyKU6tWxw7OGQiC3Y5FIeXcFPNiAGI70xyvxRoTmaiaptko+qbTbnfa7XXAvv3KD0NO5X4LAAkEaIg5dkURGrA+MWn8tswKkJ8le/NiAEZ7gFC1r0sDINIKKRXu0tsVlgp3BeCg9fUmACZWgNHZPNnXNNz4E9lr2uscP7oN5ivq3kQjzF3PN9vIqEUw3wacA0CS4IkCZ3XY0Fknr4S3vuuNExMxig5FQvkXigVmt4YV77TXFyXf0TpsQb7dzB0M1uvlfL6Gy+5tAMRtKl419SJeatNj8j6SUToAtbIAOH0GgIvnABhtcNeeaD58DQArr6wAvwEYTMTiS/Ky8L/DfvdtqPlQAI68U2zG/8n6xojb2qUGG/MAGHV7LN0dqjA6eBBLzyGaYpIiOYsORq+O3ZUFDX2AFe/Q2p52fuiuPUG9sbNot9um2WqNxpzP9S4ANgyUJaIMRbCNndJL9sEVYKkA/NF7rDh+8rcBmFMB1noHP1S53IEn5yL8FwOw9W3G/7naN0y2kWWroOUAyE0oUc+vAJFNuwwaZQKtnccMsCIBSBJ6zLtg9V2b9HAEE4qPFQfRlQq63sWFwOA6XsP0fQDkhZnnW9BTsIjt8W0vsQLUS64Ay1wCR/J6jXu8inIe/wCgakVZLacC1IY7z3GcsfQlygOzWv9sAEbWerEq3VyDfwWvYhuZlI4xD4DfjyaKwOOwAwgGZ4QH7gbzdvUuBqxIANKwGUk6eNZ2NXPXy/HCHN1rV646rLcBkH7X9alPjtpNouTucyvAUg9Bovk7cmHKpne86RDkUGQFaG/CRavaGklfrVa1on9oJsj1LorjtbTOtd2FVNCUVYWQtPymJkkAYh28mK/d2YpOXAPMvsKAwhq81wBQ3El8AF2z+8dVCPihCbGi38/bNv4AAI16a+xDwBikOOXKrwDLaoMhGZSp3AbzXB+gWJFA0oEJgGnunOcTADRzUjceb+C0PkCVSez0CpDeJ3yY1sDUs+eAH+eCjcZnAxBJAnQgFnw3PEcN0gFcqa6ZbyOTAyDEK7pebbXj0S9RA9o4DQnHt5EkRQKwTutfDurxvcWoVeFP9UHJ8AcqQPKg05lUQIHf5n+oAryo9yRTfu1TAOR7hiysdmcbKupUcwD4RJakkQ7AQvcAbQsDr6S/lL0ajc/mXzyLefWxET+uKmjkFEpsaMgB8PqEVttzTobUyIAiKNe+0eU/AUDKz3oAYJOCyuiMZ0pEqWSZpt4OwPil4PdN7j76832A6jYY4xeTIO0lj8JZM2UAxh5+isVu60UBMB6qUiibuBzlUbjdaydB7INX/fr/etwOcSlK5TtdBjZgiIaSLTG/BSDP/0fhuGccNEOFXr8B4EANgIJdk+ARgDgAWW97WkBLSq+d7Rr9EwCM2y/FSx+031oBOn7HBgB3tx9OLgCPygCcs62zM1OcBa4uvB0ZU54C4Ng/coQnbL/NYgDYCdTDdOmYjoyI50cAQsns/HoWWDc9mgXmCvD/6/b7p2mM1ljuUpz9mOLs67ABs2oywRP4SwDSSrg6WiActwcNEpQ/NwpdZQAiw0o7PwCwGY3LB2eNswWzNjP/SAVYcSBmxUvfJgDQKFeGAF2ArEU9XpSqClFvbDBKAMQENXRYCmmaPz9T1rTBQCa+5BuFAJBsMEiWHqnIELBEnfE7cAfAKb22+S99gLQO4v0Ma3CrPPn/ojeoujz1ad/p4HsUQU8bZ1ONVNALvWAAxk0xiMTAuP2Fm7CrN2N4375KKQAOOMX0HoCUUdGxUQCuqN0rM2/oLwCwiZeOP0uUrO7vKkBRWMsBMEz3AYpStHMajKV9gBV1Jb5Rjx5/5aGM+mgZbjs2bh9FIzR9pm1yYV5IBWfWG7/HwrM+QGwC0FcAfDg/ABgF+SoJUefJQtQ6C1HtjduufPihxjOXWA0g+gPyL5fM+BVnJoqzGm0Qm4UD8Lta+Ie9K9tWFAmC7Qq4oCiuiIL7ws/c//+Zycgst0sBhc4909O2T3PO3HYpqqJyiYwI9t4UZUAUvB5J2Eqsg32yzGycz+Kg+g0ApcNdlXnmZtGbDFgb9r8GQGURpgdAswiQySGFTlY3AJwj0ktL4gsvUhmJmT1TseYuB4B3Rop7CZ+bYUWnXbmW0O4JlqUBUMWPgIvzdlJrvE/2sGgbKjfx8aiMJD63IZ89QVQVHjHAZWFIKxRPkFmeJP5uPmn94bSWV14qGyCcOM/HTaSg8VrVf6DL9OtHAJBFYlZ9j+kwUAJpPJxhiHWwUeDFCADp6q3qALDS5nCK1fjbhYIOSPmS3xsALWMAjL6q3iU2KHk3J6vhNEk0niADNrktQ8R4wRZT1PDYnbWsKZJyhSu2rMlO14UeDM1X0zJnLgAOxE38VMoUyWqOWHfpSZvL4X2AEoR3NAXAHFtMmCIxqe1gLu74SQColPEpU6SgwaZ9vNlDJBBXY8uEJPoKAEKipb1Zn6GSxcF/88adUnbCVaMUGNyRpUjxpgGQC2qwdlG5fX4FhxOYPyACXLKSd9Tdm/T8muM1CJ/pFPjJS9sus5FetMWcnYJSnOSrL7B3mse90kQWGE+KTGgdb/Av2H9f3cRnw3K2mHjkJzZfvJd9r6ZIsOQ2bVxw8SPDGH05R7Bb7VwwefUXADXZAKvW191jXGOLXLmST4ZX8isAyDt/vD1yGTDxDuN7cYK5iRfPbDoAOdSYA/woDYBjZW27n4e5gg6Eos0JT8f//yNAkB74YM9OGwMArIQXN9IAIGwx0SZFhc3UGhYxGSCgpDF6JT4qY/RFCWN0eHbRh9GtrXe1Ltp8llMLGfvrYlj4Nhmap0o9acrE5t1WqyZ9ryfmk7LFjOga6w+0wkDamBYVWL0vMKc3qGfEvebfRrBm5eZnujoSOjOjCnIDFGUooopbRiXTVwEQRK4Tjl/iruPWTXbfglHgWsixhSKZUJyO13oArIUraWYft2HuBrcIc+VN/v8R4C2ymfYLOZy2DS9t/uMUAI5iHhL3KcM07ZJWxowAIJ2XAkBxH2QkazXMgQO9Owhol8LNh4pZczIHgkoNuqyIaQGSmWtIWS1xpH7SXbobo9ODWZo1LsSW3tcDIGXnGUoff1+KKSlnJli2etw6hRT0YWy2WK8CoER6dQDgcXGfSVcAyJSCQnIs/nhzdDMAkIOYKfzt8wFQwqbkT4gA6UJYHLnndy601L6XjfwUACoiRr2EM22FWedRWQC857LFlYp7AYVydOXZ9eo0r0wJYSBpRr++9q4oDHJZus9Rtysz1WeNNopzS7v0etPcr3XFqjH4ak0KY/ZgVGoAsLeR7LxEOP9JAMi2UWwcShthOVnMb61Ts+34KgCCA8aJZ+LuHzQX1HRAnVPjoq+gqiWJFgDjgxRligCQhwpEMeg3oMGgA1/IA7TygtkLhjh4KDU/rOHZNWbBpwDQUmV4WpGToUqBxT6qUXkAbPPxFOdos3IjvCSleZy8rufiUM66ZxuCugsjqjf7o0pnuvoVQVfEuCvjtANeZrf/0DuxKUEfK632I4iYxb/Pbi4Ha2bWagCwFTO/nsP5lvMX8lLXaUXKIdDLCRfb9RnbcXfZ9H4UAJkCMR/WeRcP7mbS4pSqrKKLqBFObQLCQAYAsg5MMQA2hHj/3wMgiNDcfNWPwt0iwG1mXQgPc3yQh1nkzgNh0MWBs6Y0AKIThXFZJGGT4iRM3B0h5pWUBcAGhy4+jucqbBkxYe6eXVVv/aqin2o/YP/NdocNpCnfyYIfvlNnHZtFbQJ03H0joLvvLrQIl3MU9KKuYYvGRgFCXGVSACiaTzNlhFxSquEjXkyG4DZRMIB4MncOCgpn7wMgU/g0AIgGccCHpXtcFPRhnFGsVERTAGjdABAjLrkACL4MWLFfv8EoHApCuKoXObPA88ySlY1ehJotKyI9CFGSs6Y0AFJ2HMut2FkveoUxFoXt16HysgDoCH0wSnxvvzFj6ioRoypnr5MXNZ0twX/aO0nVFTvmd7Jg5XDui4pmWGh/ffsKXAXyn1JdG9eCSBIXX9/33d6ZVSMtAMKXDFAfzYxus897KRvsundazSEeXyUgWBnrBL0IgFwACXapFJizqcGZAbCQGgEhU0K5r7dSYFSh5PL8DcQQOnJTzzVOBNcIsLPK28XweYGSRSEj12bnK4RAaQBEeK4Ms+Q4F5UTrwngCwAo/pbSijHbQVbtVqHcB+3Gq4gFwgOhTJREdWXH/EYWbFsEy4MTq5kNDTvTjhRwIuactZ9EZK66GBl34fe4H3TKU5e9rTUAeKu21z3D4NSW16cAIAbBsNrd3fF46sAbw90Hxnz2TAAsXMQbAB6/BRm1xWmmUpMcGEYGEa4g9/eV0QXmJogeTe77tjGCnhaMi38EAJUru20wI0iRr1z77ESgAcAtAmbM2+cktxRW823W7a9yen44MyOhomsBEDFIcJ4lFDUM1zjOeUhKASBKEZiEKA+A0seS43kMwkKeBtYJVX2XGYeHl117bC6OHc4uViCZQi55VGm8o/9Eb3cRjZkzDM0LtwqToC8IfqsU/I6eyhqUDHBKC9ng7aSSXxmw7qJOWgC8/e+EQ4rC4JR2rOP88VqA3+rBID1Mvd25w/aQnkneUwyAeeee9e/4RCfeOnzOP5jjkEQ+sCu7EindW4+hSweAQsvAdswuZyJ3G1N+4Nd/yBhdZp+d4oMF14BwJYRMvRMBAJDHTQ9hK/sap9tsL2Hk6cnoStNHwDAifnYaAB/CUeSHg1wuBkM3BDSm0SsASAEK/e4ZZMlByasV965H4bzPg4u7UqRjXRkQxQ+OW2mXBGH7rSDQUnU46TaMCmQBcX1PAmFO0t+Hz78Dc0wgBGBR1kWFoFuOqwdAiXXRa4mmJhk1C5ZUarVK41M6xizBdwaHyfM4FKp2TKSgiwBQDn7uBpAmiLeaNJ9KsxUJ7DCfPMicc7LZRQPp3pcWALmj0C3Ik1j9Ffc2vX7EGN3GZdpsNguvU0yxSRbJrT+tKVIAvibymJwTYY2Ew4xWcrbPhsU1e0QfSRYAqhgk4pH8vMSJoZvWaMo3UVkABCWPoBifpKr0+cRfmRTqcLFtbxAx5jcurjso8ru4bdvveGDYSmKBzo97CormblmnClVqLHCqAa6kPKpGJUXV0I6yABC18sVRniUm/guCU7ocK61euz2qfErHmHKKcbB3aX1myq6DSxK/3gNAWscmOw852jjwzverp/h+Mp9cl86gthEMIS8wr+iToySKcmaBI1ZGqVnaN7F4Kh54UfX9H5kFpgCnWWvBhaThZAbECBPhHbo6oyCEldQBDnv11RU1IvObEHBhwkb5vGifIoz6au0QfYSvBHWjqQYAbRUeSUQ6HmXEA3ivCkM3YW4VCo8lAfCXamUhGU98iW6dzIVC/DcRvV5WK+y9FaZw+o04N6JNj8ZfvORPzytY2DZniE4jnSMCtOSrVaEjNqo4OQ+8wePIHJaBqv9NcoIzE55P+PI7l4BPlu69+MtUcIF0oTCsBcBf16kAuuYJASEN3Mj6Zng/gr/2ZByOl63GpwDgFYuiapXdc719CY+uLACkd+21l8tlTx9LqkkQ+tDuOeh9w5z7fPJef5XC75zu2/3Qnfr+1K9r1WAwnF+F5OARXWZH87srhPxrSvtn01l39iPG6FCAbYeLRdhmI/iMA8HfZHDg34zwQZtysvIhMr9casSVkQuOyGWjDWksjv+2oj499aNEC4AyWyA+ncdt3NYfZ4tPMkpZdLjcrh+9AIBQQEO+B9pHf75YtioZmQMSdwip9XlvePtgaZynZN1OnIa6PngEFDKvBuEy5ZiVRnxKEEc9utS+DdY6MsbuR5xKUEadVakAylDwSTcQh4t9hJ5OKm1FadSPuEe9jTNOEYCUPvTS6dIrowsswSlHA0nCOvu8wvqfCPhbxoMgGCzGo08BQOwrIV7STUjZgLtblxhnzARAiisXtJILPbcB01Z7JsGnRQ/U2YNa4BDXX1qPBJ2txarfcbuu63qUfWn0AK80N64Vffde4q9AGEzRkkfv4HU890f0APnIbteX1UbOg52ZkG4vYt/k7g6LkU658ir+n9/XxtFSPi/d80rbRMJ3osUfet0ZLR8manUA6ChpLdZsPK3inu7bcyQTM6OYgov+sPws8K80IyVTvRY5K56YZPgYHntPyg/Vyxa3bzCRWYdL1yHgKNCycxoEzVZvQnda6haSMi7yCeSae7jQ6DeM2EAfWA0po8hHCHh/r8zsnHESK9Kdup1hBg/w4UQlsEfvr5lcoV9hNOU3h/2JFiLsfQwAoorNolJcxIFEaYmRmUwApGc8X+9pH3DIbalmqOqKOpVJcC/Wf/s0RY3AQEOXKVoO/ytpK+M/LCiio8cx84a73RDMnbQi9G3Q4daWsx/ew7KZToa90+2c++eh0H/+dQDEYPtx2Dmv6WRxEJh6OWyazHmrQoCJNr67zo369HN4auzxTW44oIjkvqhtQyvK+nVbO1m8Bue/FDR4HTo1mODXACCPCMVsnRFFUHkOR9fHeF9DS/AdIjBIIdf7jv8CAIouPDpREeEBBXZjIODDR10b6arqgXXC6NzmfRUXGwE6wBe/UowK59wO1jwn9YNZ0HyzXR2237ct9/U2fI8lWDLle/3wO9Si0QOnD0X/A/YHp+1Sx2WkqI0tDaMv6Qa24TXybUkcXD+rU6fr09scpZ+jBUC+zdgfAvbYR/SCNQ8TwNymCHvnQiKCrrxPAUDEY4O+qqLW3XJeLNkAOKGkbjg8rRbjdm/Uql2tyJuUQdAdOuDiC0LyFObwTP+lw8+eSar/kHeti6kqPfSo1XoXwQuKSEG592XO+7/Ml7UyUFS0tbv7x/lK/203w0wua5JMJmEvy0GfoZdBB69vToFogvyalYnlzLvdlp4gg4U4EQhiucsCtd0xg34f0RuOIXIsZtBsJboURZn1dwAQbpFnzbCMvc2exONeTyZSPT2ZB9qFijc/A/7N7pi8/2j6W8b0N5RKX/Tq19ds4NpIJF/QV36jlSRmSK/HdZN4pP1G4Ha6c+dxnluxcKEVAOmaYpPqYiNCKZHjwjARHcN0qPVkQ08OipwE5+i5gqgXcXwBd/hw7+Jwe4ftZF2zXKeNpS62hk6AlxTw8iPeD0oLolk1vR8nTw2fxk0+Ka2F2JPjJrT3aZYkacstaaYoErW4/dj+ZG3Ers+wIYgm6wDDrTn5PW1UQbimCeIzRMCdk+1PGyV/RRKqgZAf+Oe6okbnO8UQjDKs/boAp8hYKBS+YiYlcXPao1nFiqVwf4sF+I+5yak5EU+VAX4IgODfcraMs+BsH3z25B0bhT/YkOTu+5vrtLSdgGEhsEMPQTasJJDX0c6cYrieiP9h70tBLBdJah5HugVATROkE0EE9A4yA4oj9Hbryy6OrO/VCp6iDTH6SwBoeqU5RVKme+8klNge6wfz8PZpUshMzCnd5k42sJjpiJoiNQJdnmQ1E3n9cLJBnaazNeptzAHublmUaIfMbsi6cOpvKT+j504QZMV9AESNUzFMedFGDPWICG6GAh9kqJMXlBbLxsTZ3j49WRL/6gRVjFJsVwLbUaAd7M2nFHcqrrPgAhg1/oGe5gjHjRVXaYCuRF6TKLjhE1i18cMDmFUmRew4RVu9XsR9tBX1m3rUQn1f0bxaCKT3nGYF4nssUHAvoPvK8x4kKsILtsrAO/gKW4p9IP85yOLlbrVD3MT3cvceAKqvzDNDRV1hJkarmbmoJdFChGHFZgi/CABRO8WkFHe1FPTPWICCP113PoVMnUWktlBa8A3d0XfdF43438R3kRqx4P002f1Ei50c5pOwS57jRvQgSuLlbOcifLjd2NmdvsAsusoIN3b2JDUKDNHhGEh6FPxDTeCN+uN/AwDZl/X9vevuZvOpYyXR3rNP+gh4ichleTyd4xCPkaPz3TtZdfl0YoSo1gHqGCV5Ep0v7u28amkQhD/FvUdc6+Rj3UZniLYu6t17B5uBqHsAiFCEl7BijyADRjqr2mAsHcpyljNNyRP1DJ9si3kR3ZvgYt6OTtps6VgZsMN8CuAHqM2F6y7dS8Q0/riCS20xw+9jZPH9/aW72s2W5FNwrhmlrDoD+yxHmLWT/9NasByBl6MiIPpez6dFQqgRuZd1GBSn5GGl9H+Rmfx674jmSAGuaFKKJSDbAkhiYNQSEe6KhsXlabK4UxL/49h5w+LTskYXMJ/uL5jp7YXAiAu78l/cr9aD/795OtsznYv2nIjvxgBp58uWs6NEQ/NFacWBSGKcW7yAcyhQ0RLIHuEGN+z/d5ETF46JsCv0ZQ8WnQefVl1Ryfy8HS/uN0YXxwoOSRcwyp1dNvYwDBU3oEwrkVEnEV2aPGyKVPxhDDBBmZS3N+SICIzkWZSmacC/tMwBw12EoGAl4tbK/aTtAVMjtJWUaFYQpMCEOczbi5vbo57airjltRIrMINB5QvxlPZImRCaFnv/GO5rAGwxO6uk492KCS76UQFe8qEeiskVke0fZRt5rjH61Tk4IhLcFmH3y7cAt/yU7hMWf3xhm+fI2/xYXRPm1mw8MaVEqF5ehE1vQAgnT8qo4pNwSsAvLxwmyr7Ttm5zgTWzyiuLpa5jVYndIaTg2edApffFiPXjgxzjRTFCCdmh4aYkgQhbdBtwgaH0tr3OJprdA0DDTLpVMrF/a2baNTMZSgLWdkU4NBD7myrHDJB5ziDqzrKf6h41mrC14i0AVnku4kBBoKaxlWRlFJWweGa07RAAudNzAhnKsAF5tM/otOJGGqnRQa1DqdOBubHQlvOBalm2EaAusUe8UBlCeB1P2TGdIZ9tD1EznEjjvPh4FdpG16hZBYBPiwQVG+GtFeILRrXiuDBP7NAW+FdTcfPIQ7rJfUXtVGlrMnOhp6UKiRsUF0WvYdPgjJzhO1i/FtctOkza77B5OEkQLqgR7ArntwHgkL1b9hnvB1UfTQwfOBTgDxNPT+JmLwwAFt8BQD0JBzrsANz0GyqWl1mSx/LDy5tCDwNiP1faE0bgemMHsKeYCKsWr9iBNZ+UVUv9WSfRKOB3K7lBBgh8V7YKzcp6IZbBUMR28uj8uNYL55XmVBceUzs1SSDCNCM1bCn+amtbzEucxx4TV3SkP1Izs4BlW9mtVnn2F73+b6od2OeNiNW/7CYxfqY/lwLgW0sajDCvRNBB9J6eBbJNptPlkv7e+4sJ+LcHvOhLMMALBIXpNOeZ5VSlEGrnlOhkPHoEgCNmOVg8N4ThjzF0CjtmIEwtXoAa9RsAuP1ZAMQ6Tql6/O+EQKHEx7NzqXHi1olK6QHkw8szGt0T/Vm5s5n4YvAIby44EU0O1e0AkfXZsiYerD+Yf2KyLTpi91vzBwAIBFxvD3uxjlxmiLq7+bw5VGWPhZNxr8ej+28CIBNwF9vQi7QwRc0uhwyby1IJG8J2gb/7KXbfBECcyyL+Tz7xMBB8ajKKrOoSHQFqWHM7BkNyJ77GuN90y1PBN7JPDFXZOx+O68cVe6gFe1Pwg+BUUR/khx4wrSVE0cDPAJDbWWVVKDNVIRwyUyVR8dQzJ+G/CADhNQUFq6ekm6caTWsphdXuWom4pe9z+k94RO9W5ul26f46mYeWhO0JSUh6OB4YnO5evo3X4bpm3rE3Gr6Ow1QcaretIWt1TR9WDoe4GAMZOIEeJY7WyF5wRZhuj6QHW2DOat6s2fWsf3VC9B6erplG8+G/ib1h4cywM3qY2Ka3rYD3Lx+v60H6Zb7fcFTF1PSTq8bCYQtbKW/bDSa4Q7CaaV3l1kTbUb+zNn5Yk4Su0hCGmhBR9LjfZ97gfMW8jhYAPFnuoyrfQ36Kp/tgefeD5a6Zdhe7KLw9k1H5c1f1mQaCDBAbh0JwL9oYVXOLERkbN4eHdwbTvKZ4Ttm/WMfKrEPNtsVn62Dqj9jgsQpPcyjyAm5xcFJvFf1/BXFnWTi4L4s9CtCsRR/MeMs42wOX+z9K4f8AAKqhEsd5ZD9XYWg09sVzKXI9lhte23CZJc7LXPbPxjMTM8IpkqvI1a1VCjGKxNO6fH+GfUvmqVbPa2drp0lhMbfpds8aEn6ymEbE7GIGU7Ba+2Qx1pIXFq4CXN8u7U+wiAJ1Gb5x70qjz2LZBGVSOLpzX9BiN6OvlWeQ40/PnkZi0e7LwlBkRtuC2ngdsHntj5FbbTlXxMOm71gZEFO+hWz0Erx71M1bSAiDprgZSflQ4u4G8huRXh0IEbPW2vYdX3zyafyw1Slc0a1hOWyS3fXXRGiQoPtn9z/ufVwQcHPgUUsbm2gO0pTjQZa4/A8u+w7FCAy9FBy/XgcWgnVE5y+68aPeEUPFbZxU8m+V+X3ZzRyRhgddsE0CbXmjU2Y4p8hx2MzzpV9WNZBOgH+y7VN4fK7JzKts2+EJ711m0Bu/4oC4byIoiD8+cVzkGc8jto9LbvF9Jl3lVmxeltcLRLTOtnkbZ6MhUkHoPbbcmetgXZ7MoTGIzCCJhNOUYpNxEGo+iaDc8No2Rq7JCXo3+lY1GNwtPzLJIGAkXWYR139ObGUMRm8m607/CyUTVEuFovJYQshgb4fHm4ANMnwX2wOTNhrEk69h4fAh8QJ4x7VNeo+qHQzWR/90xkeLBh8QDsTR1IYvq3khEnQ6+G1tivoL4YJnP26aO2yIDOn08TGsFVlE/vEvOWegmKZYnQMExUC1iz8RPETg9rKIUJjVe3RfBNQXmnl7RNca65BHRQ8n3OsvbaivYCQSXjgnp8nJUuRGpjLWccTZOXhn7/TgeGjILPhKJxvM1OFA39DfLnqD32X9Vb7OoDeWp/dkdGWIq5F878qb1bI6YySueCJSH08aMKll3ev0PymYoe8z774aIJW3PQDVWOECFhY/f8do13VNtiHluh4DALrQOXMNOsjtIrg18Dfe4hh+h7KvmmiKNNPw0JiGmQyyc0AMlkv4dDDcRAAG7oUisgwm+enab76q60ZyV+Nz5msD5pC81rx7sDb6pr1F9dEGFwWOtqJ+Wu+CX+yQE20SJJo3Xq/Hj3tvGClkouglnVIq53ZSVZX4GzaAloGCwPq3bKLgnblFjplZPnpUIYwsV/IL1lzz+1Dz+ysNAF6pBQpbaXMcqEFjHFSlAIkfwareZB7fMJPDnXyT6t5//X0AWEfevrXyB+9VdmDjOR1C7DJfa5tAD5Lpvh9vb642z0+mDXHELvoxCFIS/9fevSy3CUMBAK3HE1dOFsx0JumqbPj/f2wkjEcShCJqvMk5e/S4wrKuba67qvzlWiOPKI8bt5HX9AOu4VcRjTEYDX+m8pIiOqRp9N3Xm1c6lMVdd8hj/9GVXyBsmtu902wd4k+V3+uRr7UWNnYVA/V59C/iNExzPfqFeXuLmS1TuvHift8whHR4+1O1E7fxxg+TxweQqzEN6ew3j/6mCKfcaigCnFKQq3L5BxwtL6fPGyrT9+nUvvFtPCax3VufX50OME1LFcsLZY3E5xmevtjp0c1zPozoIwWjpfpu2s/fYytpGqtpVHgpg/c7JV47av1Onc7W4bBstOure6Z7PT2jSvF0Ci2XaRpCU340nraqdvquOcn6cS/Sl7V1exnsnWK5mPE2jBmZ/ws54FB5KzCbOY3pZNi+g57Kq5uzoLE4YTWC8PRIpFCUsYjp1LVpLFlE47Oc/6o7XAV/a+a1ZRmPykbDUpwO6215mS71Mp3PU3XL/5vHzhWYN7VzJacPpi+L8bVhHZFWj5Umyqoam5PKe6mKn4vVT/Y38vSPOcLCKK5twZi1E1avrXvc09vK4I8K4nJXe0f+oJnuGcLYUl1ZJuyI2mPD/9UUgwMgAAAAAAAAAAAAAAAAAAAAAAAAAAAAAAAAAAAAAAAAAAAAAAAAAAAAAAAAAAAAAAAAAAAAAAAAAAAAAAAAAAAAAAAAAAAAAAAAAAAAAAAAAAAAAAAAAAAAAAAAAAAAAAAAAAAAAAAAAAAAAAAAAAAAAAAAAAAAAAAAAAAAAAAAAAAAAAAAAPCN/AVF1nI5Q93/ogAAAABJRU5ErkJggg==;" vertex="1" parent="1">
          <mxGeometry x="929.88" y="344" width="130" height="73.25" as="geometry" />
        </mxCell>
        <mxCell id="rdSZgKfeFoEqGlZAM-YM-59" value="Git" style="text;html=1;resizable=0;autosize=1;align=center;verticalAlign=middle;points=[];fillColor=none;strokeColor=none;rounded=0;" vertex="1" parent="1">
          <mxGeometry x="483" y="325" width="30" height="20" as="geometry" />
        </mxCell>
        <mxCell id="rdSZgKfeFoEqGlZAM-YM-60" value="" style="shape=image;imageAspect=0;aspect=fixed;verticalLabelPosition=bottom;verticalAlign=top;image=data:image/png,iVBORw0KGgoAAAANSUhEUgAAAOEAAADhCAMAAAAJbSJIAAAAdVBMVEX///8AAADy8vK1tbXFxcVxcXH5+fnAwMAyMjL8/PzY2Ninp6ecnJyHh4esrKzV1dV/f39dXV08PDwXFxeSkpLNzc3i4uLr6+tOTk5JSUl4eHiTk5MLCwve3t5UVFRBQUEoKCigoKAhISEWFhZlZWUuLi5ra2ul56QhAAAOpElEQVR4nNVd2WKyOhC2glIFFVGxbq30b/v+j3iqKMlknQlJ6PkuWwwMZPYlo1FoTOtdkm/Ln/Whum7OLy8v5821Oqx/ym2e7Opp8PuHRJ0Vk+rFhmpSZPXQj0pHnZQfVtoAnWXy/yGzzr9IxDF85X+fyll2dKTuiWM2G5oIPabJuid5LdbJ35Q/mR/yHkRmQ5Mj4lJ6JK9FeRmaKA6JXSe4oEqGJqzFtAhCXotieI4cLwLSd8NiPCx9/tlPxnE4Gqfo71etj4timWTp7oY0S5bF9rhGc+9ioL2K4b9Dme9qvQqf1bu8fEOsU0Sk64nM9lBv22yPXGufbq1kxlaQ+4OZumZFXnLemKk8YN+XF2xNj3JMnS3L1GjVbn2SYMT8U/8UJf3jQawM4nkz9/L8Vugl6Ffq5Qap3vtaeLmBGbX2Axb+9NZYK6c/g3uQjebOlW9Zl+m0ZeP5RhCzd/Vd3/tynwor3c0CusgXzS1D+TkXDY3B/Kql8nYfIQXcXB3PWoa520R1r40f8alHulHddhLgTjPl2wzL9i0a5c7xzoz7s+I26zh+zVgVATp7NuLmqvcYeoMypKrbe+V/1R1CsIIeKiHgUQWrhGi8D9hC9ZK9idRGXvstvtc9VThXngTdSV55CJdbGVQ4+VhX4QuGsNEwWMmP4sFnlAmshothTmVzvDeJ8haNK0NFyDK150Zt/ggLMsjM2EvcyGpi+JyQHOTroTRkHRQpUGKEbF8562Z5qagBPS32vl68vNCwSRKGsZ9XPxO9ic1fIfBXa4hO49nFmRL9wY1KDc7qoGSPa83HkUj8oC8uKh4lgaPk9z/Xr1Pmnc5VXt4TBwfN/yUSyWpa0hNqQ6aL3W5Kf85G3Rxs9/0lUXxAos6QomqajwSuOXqxV5evYFGtApbEDSkCNxN/rWGHnXDZprfHJpksR+2lkqynSBsxTqnTNwq/o5dVl8vrfeqvFvX1O/5GjfBT7U5Rxt+cv2OminZpGXEkG3BoC7VGfxbVE728fMscMa5XabJsmuJ0Kpo8yXYXad9fNIkKE3OLexqbthGyS3o5rIny80mw/S5frDXpqo+fbbJ6fiJtbtS4JQSdZtjSPIT8YKW/MtE91T0JNk5PmrwDxPqUjkWRxcGcMqwoFz8g8q+BDxQRnA7lFUMdAmvj04pqEWODC1vKxAbKTIZvvJofV4jdIPapoACMwh9TCdMflgcWpI01biOo0Tfjxb42Yi8Kxfdsc6SEOhlzWC0KgZZnkFhRZ6s/IOhQizUdh0KrdysEW8yhJHitzSP5IxSKEs90aYG/9C9RKDyIQToKO9rq8X1HoRARYk+xv4DWjFnV3oAyWXrDTuBoBLPEWstG8CntkYm+3SP+KEQ+OqyZQ7giTQwCcTEm+Cgl5j1sEMsa7GV/0Dv5ADAypf6IkAsxgSU5MhsAOY5CKGyUnAgFKW5vxBCm2FwQjDeoxCnUhbhMgMl98gZkDA16fSqdCC7ABXWi7FJ0ugTqLvn/0F/HvTdDNbRPWDzEJ2BMRe6ZAuEA3Cf02Y5nBLL2GXxEKfgCXwAqeK0IboYCLpgO3X1xGwJtbwg+McjpxXBAxtDAPhS1PlgQJaDD9BxqgIv1Qu8W/z819JHEIMDlJMBP4HcCQgOVeohKH7ZqBuh04BtBewajf5qI1N2BohAqaN6uAVvuC7NWVOpuwOV7QLcNrxLBJsXY3Oqy/ZD4RlEI7G9um8KEKGalSNYMD5yZBX7CxBOQpBrvEUDMv8UArggR6HUmTUE0AmM/NDFJe+CKohDYNcx5Bith1omTsBCAq3tS0gL2HCpoEJWyJ3ATFsB+fOaEgQmNkaSKauQIwAgIQZo+IyBAiWDMo4heBQecmwj0wlO1838zp9MeiBMnlYCiEMqI9k+ADVFGvLlVPRhwlRaN/BNgsqEiUDHJ4oCrnAMRqVY6ASWJWUOqCYsEZOSU/0krnXhXFsWGMb17HsjWCp4RK4lm1CLKVr0IQMb3Qa3F7Q9A0KC2epR0hQIot06wsmvxDyjLSNnvGAEoFhKY6GZ8A8+f/pIiAlvLzf/mFpHh0/y4txQ5CNUBSyGvrm/FFrwoxZl+Q31DS6VMB1793YQpvwZO4wzFh9gaYGA2C2G2HWqFPy5L4fNNobLAWX5/XB+KJAGCcZHloWwa7PgdYFXuoGDErSA1c0QCulCd/1EC2BKVcxoN5lugB0Xy6iEHVpy9CqrFq3jvOEC35PAB7hNQHlhW/olNWwt0+xgfgyjB02I7v6OUYMjAEggqg37AF8V29Axj1GBNGmhqr4ERh+3nGUZd4Ge18XmjA5A7aGEVm7g78I3yvAasQL09eo0ojRYi8H2qPBddQU0fug10CP/piiYQuAabEd8RhzO8R8NYNYQRH7wlegYshaYwUv0zAGGqALC1HSmMv03/4Qn0QmF8aUrpvoUUOvGhZQptCFA6/iEfOsnS+LKGNFAAylInfTgyTaINAtJoD6gPnWyaG6ISiPV6WkCbxsUulZYJDtrwLWiXuvgWLSIWZBCPgYC+hYt/2CKesMHGHp7gZcTEycd/IFZJBqZ9BwD6+C5xmici1e+RRyTBOI1LrK1DlLIT+gRvPlKWu8RLOUT4ig6Dn/mfJy4xbx7BcxgOU7yEmLdD3gJgH7S7y2kKpUCSQ+5JQED7DZfPFCHknhzyhyIuoWLgjsO1hPyhQw5YRhALbuI6slvMAdPz+Cp41xvf7oPDxDw+vRZDjcTnHJBznwPJ+IVupja9nkaHla+qzGuvA9ekeppa/IMB4yQ3nxmaeYgV9x1sJ9VEEeraHjkncy52XvQINf5bOCksAKmuDV+byCSm7S1fkgW9yvawQB+BZYRcm4iuL+X2MyalPl4l28nhn5WyzeFnu9z5G2/Lr92qP3yNMHcEBD7VlZtp9H6+kaJGmFDnPauITzZHSB43Q0qLhl/7IRb5P9l0PpMiiLBViuukvXo9GUdRq0/rt2D+s03qTfHCxssBAC2U/Ra0nhn2PszCgdTf5m4uilD2zBD7nrqvaEwHEXP9V18n4yj7nqi9ax13GUpayR0LyNEQVqhpIfYfsknf+uAc/fBxP2cuaPoPqT2kbFvrSj5dQqleZvZrekjJfcBNd7GmbtdlKAhhDLAeYEWOt8m93Cxu8amSqG4Bfw+Gm66Xm96Pz+9C2SYZuyVtPJz8o+3Hp89U4L/6K9T9M9cMOL5wTQf9TAX6XAyo7qqkW810UurLdb76hba0sTeF+rkYDrNNxA9VlU2eL1QS5ptZp63S43gCXt9bmoLVMvz/1LA7fi0STt1KFM7GX+DSfjB+J/qMIWRPwp6PV0oUjoFV3PfsJuOMIYc5USiBclM9Zgq5rEBPb9g8J8pl1pf6jFCAu3FuoZAJ8p4Ummd9ucxrQ+j1I4JCFqPuR6FtXpvLzD27h1RgKOwkUT8KbTP3nOYm7m1hihxDYceIvSi0z010mX1pzTpFpNA++9Jhfukd2kPC41KImF/qMIP2gaU+QxqPQswMWvoc4Q51w7F5dWIkRKOwAc+u8+LJs6AB9rtkmSfpTc+wRHosCrGPTp3nrQPjiVgUIud5k2ey6xCdQvRMdupcfR2i71L42Eb/Fl7qGuBjJnAcCglnIxDPt9CBWYg0ConVn0+QzregnVGiA7NXaRS67RnaGSW0c2Z0YPFXGoU/TncjnjNDOitIC0cKnfQT9awg0nlPWnSJDRqFLjuGft4T5cwuLTqnikahQ8DU5cwuwrlrWnRWKo1Chwyby7lrhLPztOiMKBqFV/KN3M7OI5x/qIMjhZQewztczz8cNcIPyceNO+5SqpnofIYl/hxSHTqXWKCw5WlfFPY4hxR9lqwO3e8ECttn4KysPhT2OksWfR6wGsy3uJcVsdaqibj4fVlmZFBu0u88YEWrCIVEJsLvHMzc01ZmcTrsvjdY5qJPEyv5CFux3ld9LrcS3C68U8AIflDA0lb3986ZJeibSOdyO/glqLPVVeD443r/g7QR2NvbCRdgw7Q+zlbnqmaeJOI2Ks/C9+QBY5inzZLBC/h5NzjTdComL89OJVVyVgJDIs/AoujsTIfuLw9PgNsv34ibyGcUOZZxyDlQ60JT3ll7GNJMGXQP30Vmn5+Md7ytmWD51Tunx+XxgZalwMt98n63o5j7x57xydy8uW/hKfnFOwcFVe2FZgOOM6Oqp2PJ+JLbAd1H7BzWC/cZzQ0P0jP1OrK+kZYzm+EPc+91wT52pw2B1dg12DAPu94+1IrRmZETQT0LjeTaF7MzNZ6v5oBbO2UHFdb06aKdwZ/3vz83aiW5brx3fbFcj0DrerzqHuSpFCl7bCpnZPvWb4yUJReE2M3DIntTsFbdfg+CY6+o6fRAoHL+HN4nvl19KHSiY7e4Eiw1RS7WUwl8I6/8hn6sCzFJp8VUUfDooZqxhaonvYcOcoJqtG8vNWFf3k9dNhaq3huvL1lZxBbvMypnM3upC2fYi57GDWtfPGbGWFXTefbX7PbATFnF5o3VDWhUN/7w1YHCQ9nl+y/0Vk1FX/eOQEJAPebjwzM/AMzV9Y8ehSiEFIFr8e61u46/n6ajONT9fjHT3PK9Z/u1EivdzUKwIEOjvutLRY78W5Dpyh6DC7daezBg4U93jLXlgJ8OA2bI0E9rWfsRrKm+8c17X7Qac8P5jmVfjjR1pHyGFNsQxoHex9RVFMxS42QNL74gFntzF/NbQf+U88bcD3bwbqZZYJ1a/rZFD4HYp1trt5tvWY2Bsfz5+eLLfFfrN+2s3uUlppXPraynN6boGVjV+rgolkmW7m5Is2RZbI9r9HiphVvxmQ+MTa14vlDG8dG0NIaeRbsYlr4bphh+dEUx3P4ESHATPqio+vYj+sTFP0OWAX0kN2QuPfg6rIdQf3ZMEz9ErpM/wn0qzLK+M9uOWVgH1wfqnD72o8VXHsP784M6KRE9tByqMvn/UNehzoqJXY9Uk8I8x+/PY1rvkvxU/qwP1XVzi5yfN9fqsJ6UpzzZ1eFlyn/9Jr6CzhhH7AAAAABJRU5ErkJggg==;" vertex="1" parent="1">
          <mxGeometry x="530" y="120" width="100" height="100" as="geometry" />
        </mxCell>
        <mxCell id="rdSZgKfeFoEqGlZAM-YM-61" value="" style="shape=image;imageAspect=0;aspect=fixed;verticalLabelPosition=bottom;verticalAlign=top;image=data:image/png,iVBORw0KGgoAAAANSUhEUgAABQIAAALOCAIAAAB9NvnXAACAAElEQVR42uzdB5ydV33n/1Oectv0GU3XqJdRL1a3ZSM3MAZjbByMDdnEoSTEhBogBJaQBFLIZkN2N9lN/tnshmxCdkMCgRAwjm0s9y5btiSr9z6SZube+zzPOef/undGtmzLtiTPjGbmft6+FmMJTTn3Kef7nHN+x1uy9gYBAAAAAMC49q2vf27SpElCCEVbAAAAAAAqBzEYAAAAAEAMBgAAAACAGAwAAAAAADEYAAAAAABiMAAAAAAAxGAAAAAAAIjBAAAAAAAQgwEAAAAAIAYDAAAAAEAMBgAAAACAGAwAAAAAADEYAAAAAEAMBgAAAACAGAwAAAAAADEYAAAAAABiMAAAAAAAxGAAAAAAAIjBAAAAAAAQgwEAAAAAIAYDAAAAAEAMBgAAAACAGAwAAAAAADEYAAAAAEAMBgAAAACAGAwAAAAAADEYAAAAAABiMAAAAAAAxGAAAAAAAIjBAAAAAAAQgwEAAAAAIAYDAAAAAEAMBgAAAACAGAwAAAAAADEYAAAAAEAMBgAAAACAGAwAAAAAADEYAAAAAABiMAAAAAAAxGAAAAAAAIjBAAAAAAAQgwEAAAAAIAYDAAAAAEAMBgAAAACAGAwAAAAAADEYAAAAAEAMBgAAAACAGAwAAAAAADEYAAAAAABiMAAAAAAAxGAAAAAAAIjBAAAAAAAQgwEAAAAAIAYDAAAAAEAMBgAAAACAGAwAAAAAADEYAAAAAABiMAAAAACAGAwAAAAAADEYAAAAAABiMAAAAAAAxGAAAAAAAIjBAAAAAAAQgwEAAAAAIAYDAAAAAEAMBgAAAACAGAwAAAAAADEYAAAAAABiMAAAAACAGAwAAAAAADEYAAAAAABiMAAAAAAAxGAAAAAAAIjBAAAAAAAQgwEAAAAAIAYDAAAAAEAMBgAAAACAGAwAAAAAADEYAAAAAABiMAAAAACAGAwAAAAAADEYAAAAAABiMAAAAAAAxGAAAAAAAIjBAAAAAAAQgwEAAAAAIAYDAAAAAEAMBgAAAACAGAwAAAAAADEYAAAAAABiMAAAAACAGAwAAAAAADEYAAAAAABiMAAAAAAAxGAAAAAAAIjBAAAAAAAQgwEAAAAAIAYDAAAAAEAMBgAAAACAGAwAAAAAADEYAAAAAABiMAAAAACAGEwTAAAAAACIwQAAAAAAEIMBAAAAACAGAwAAAABADAYAAAAAgBgMAAAAAAAxGAAAAAAAYjAAAAAAAMRgAAAAAACIwQAAAAAAEIMBAAAAACAGAwAAAACIwQAAAAAAEIMBAAAAACAGAwAAAABADAYAAAAAgBgMAAAAAAAxGAAAAAAAYjAAAAAAAMRgAAAAAACIwQAAAAAAEIMBAAAAACAGAwAAAACIwQAAAAAAEIMBAAAAACAGAwAAAABADAYAAAAAgBgMAAAAAAAxGAAAAAAAYjAAAAAAAMRgAAAAAACIwQAAAAAAEIMBAAAAACAGAwAAAACIwQAAAAAAEIMBAAAAACAGAwAAAABADAYAAAAAgBgMAAAAAAAxGAAAAAAAYjAAAAAAAMRgAAAAAACIwQAAAAAAEIMBAAAAACAGAwAAAACIwQAAAAAAEIMBAAAAACAGAwAAAABADAYAAAAAgBgMAAAAAAAxGAAAAAAAYjAAAAAAAMRgAAAAAACIwQAAAAAAEIMBAAAAACAGAwAAAABADAYAAAAAEIMBAAAAACAGAwAAAABADAYAAAAAgBgMAAAAAAAxGAAAAAAAYjAAAAAAAMRgAAAAAACIwQAAAAAAEIMBAAAAACAGAwAAAABADAYAAAAAEIMBAAAAACAGAwAAAABADAYAAAAAgBgMAAAAAAAxGAAAAAAAYjAAAAAAAMRgAAAAAACIwQAAAAAAEIMBAAAAACAGAwAAAABADAYAAAAAEIMBAAAAACAGAwAAAABADAYAAAAAgBgMAAAAAAAxGAAAAACAUcCjCQAAAIARppUIPJlJy8Ya2Vyraqp0Li2q07I6I6tzsiarcmkZeML3ZOALrWWgSx8IIaJYRMYZ46JYxImLEtGbdyf67Mled7Lfncy73rw4ccoc7LFHTrj+vIsSZyztDRCDAQAAgJHsc2uRTcm2Rt3VrDqavKY6OaFWNdWq2pz0vVIe9n3laaWksE5Y66xzpX+FKP0rhHClfwY+ToUiLZSQpY+lLP2vVFJJqUq/lv56Ymwc2yhxcSJ6et3hHnuoxx4+7vYcTnYetPuOmL6CSwzvCYjBAAAAAIaOUqImq6a16WkdunOCmtis2xt1NhTplAoC7ZwwxlpbirauFHFFkpSy67l85vL/v/x3XmLO/I9yNpYy5ct0IGqycnKr0FpJKaLI5Au2ryj2HjG7Dprdh+yLe8yL+8yJvtJ3AhCDAQAAAJxnx9oTE2rUjInerE49o1NPadXVWZVJaSGlMdZY56wwxvXnk2H9NsqDxgO/lP81QpQDthQiDFQqJSbU6aWzlHCuv2BO9tlt+83m3eaF3WbzruTQCZskvJMgBgMAAAB4HVKKqrSc1eUtnFZ6TWrR2bRKhdoYlxhrrcsXR8v84/IU61IqNsYNBGOlRH2NnlDvr54vC0XTl7c7DpinXkyeejF5YWdyKj84DRsgBgMAAACVTinR0aiWzPQXTPPmdHkNtTqTGoy+zg37eO+QBWNXisTGmIE8n02rBdO8xTNT/QVztMc8tzN5+sXk8U3xniPMmgYxGAAAAKjM9CtFa5NaMdtfOcfv7vJrc1oqmSTWWJsvjO3JxK5cgyuyRsSlH7OlwetoDq5e6np6zcad8YPPxQ89H+8/bC3jwyAGAwAAAJWgpU6tnOuvmBPMnaTrqktd6DixxcSI8RgLXbncdGKskCKblqvmplbNTR0/mTy7wzz0XPTgs/GB44wOgxgMAAAAjEehLxZM9dctDVZ0+021nhQiNrYYVcx2Q05Y5wZ+3qqsumy+d+n88HBP8tDG+KePRU9vjYsxxwiIwQAAAMC40Nag1i4KrljoT+/006GOYlNB6fdsXlpFXFel3r0mc/Ul4Zbd8b8/Fd/7ZLTvKIPDIAYDAAAAY5OUortLX7cqXDMvaKr1rHVxMubX/Q55Hs6bREoxZ3Iwb2r4/nXJ/RuiHzxQ3LjTUFkaxGAAAABgzAi0WDrLv351uHSmX5XxosQUioZmeT3Oiai861JtTt14afaqJeFjm+Lvry8+timOeGgAYjAwPKTwPKc9EWRstsalq1yQcUFKBmkXpl1Qfnm+kFpozykttJaqdLQ7mwhjpDXCJMIZmcQyypdexbwrfVCQUb/Mn1J9J0TUL00ikkQIHmwClcj3vbaWCR1tLelU6PteXU21EKKtpcn3vVw2W12VDQI/m8l4ns5lM0KIvv58HCf5QqFQKPb150+cPBXHyb4Dh4UQJ0/1FopRvlDcd+DQnn0H4pgeIjC6pAOxdmH4rlVB92Q/DFQUm3yR8/RcDQwOB764fFFq5Zxg4/b4ew9E9z5VzEe0DYjBwFvKvNJ5QSnx5uptbZOtahDpKpGuMukq4QdCelJ7QmmpVHlbeCecLb8G/xnIsYMbwHuB8IQTcuAfJ4WTSkglpRRCOmuFNa6UkBMRRzp/SpRf6tRR1XNY9R4rZeMkEsz4Acadtuam1pamjraWzvaWro7Wttbmqly2WCy60hVIlnrJqfCNP0M2kxZC1NZUvfaP8oXi4FXIuVQq1d+f33fw8LYdu3fvPbD/4OFyNj7IWwBcFIEv1i4Mbl4bdk8OlJRRbBkBvjDWikLRSCkXzgjnTw9uvCz4h3uL9z4VRdTQAjEYOHdOeyJdbWtbTGObyzXYXJ3L1Ag/kNqTSjtnhbXSlUOvcM4aYZNzyqaDCfZ0QC4x4hUDvlIoKUQgvdBmqoVSUqpkIBvHkew/oXqPy96j+sg+1XNA5E9Kw9NiYOzJZtLzumd0z5wyaWJ7e2tzY31dkiTFOA58LxW+HHfT6dSQfLlXRehcLjMj1zVjalexGEVx7Pt+4PvHjvfs3ntg+649Gzdt27Bxc19/nrcJGN4A7Mk18/2b16bmTvGVGpzfi7fafztdVnrO5GB2V/Dsmvgf7i3c/0wcJQwhYHSRS9beQCtgtNCBzdXZ+jbb1GFrJtiqBhlmhNKlP7LGWVsOsRfrMiqFlFKpl7+fYr86dVSdOKQO71HH9qne48Iw+wcYvXzfm989Y273jGWL5ra1TCgWiqlU6Pmj63GwsTbfXwjD4PDR4w8++tQzz23auGnrwGAygCG7o0uxfLb/gavSC6Z6niejyBLRhqfnJIJAJYl7emvy7Z/kH34+ZjodLrpvff1zkyZNIgZjVHCZalvXYlqm2YZ2V9Mk/FBIJax11gg3ih/NSiWVFkqVvsm4KE8cVkf36gMvquMHZP9J3lZgNNBaz5w2aeHcWZcsnjtpYnuhUEyFoe+PjZlQSZwUCsUwFe7Zf/Dhx55++rnNL2zZxrpi4C2a2u7dflV4+aIg8HU5AJPMhjsMy6C83PqeJ6P//ZPi1r1cxEAMRoWn3+om0zLFtEx1dc0uUyuULEVfY8ZmSSopdTkSWyf7e+Txg/rAVn1gmzx5mDcaGHkN9bVrV12yfMm86VO7ioUolU75nh7TP1GSmEKhEKbCF7fufOSJDXff/8jRYz280cD5XRlq5E1r0+9aHdRXe1FkLUOTI0jJUhg+djL53vro/96bP3qCxgcxGBXGVjXY5immY6atbxPpKuFcecLz+ClHUR4i1kJKkT+lju3Tezapg9vUqaO89cBwS6fCFUsXvOPqtVMmtjvhzlzlO57EUeyE2LV3/7/+5Gf3PfgYU6aBN+V74pqlqQ9cHU5u9aPYGiZBXyRaycBX2/fH3/5x8d8eKzC7BcRgVED6DbO2fbrp7Lb17SJTLZwrF2Qe1+UopJLaK+Xh/pPq2F69e6Pau0UV+zgYgCHuV2k9b/b0a9etWbZ4XpwkAxWbK0E+X/A874lnNv7b3esff3qjMZS3Bc5iapv+pXemV88PpRBxQh2s0fBUQjkh1j9T/B//kt+6jwsXLk4MplI0hplStq4t6Zpr2meKqgYhhUsSEVfG2IWzLikXzQrStmOWbZ8lTh3Vezd5O59Vx/cJy50YeKsmd3Wsu2z5ustWaK3DMNRKBoFfOT/+QCHr5Uvmz509XSl1930P33Xvg1u27eTAAAakAvmey8Jb16Uaa71iZB2zoEeHOLFSyrWLUnMme3/708J37ysWIt4ajDRGgzFsGTDMmM7ZpmueqW9XYdqZxFX83kJSe1J7tpjXx/bqnRv07udlsZ9DBThf2Uz6mretuXbdmvq6aiVkEAa0yUBJLWPtqd6+f73rZz++54HjPdTqQ0WbO9n7yLszS2YEiXHG8Oh5NNJaeVo+vjn683/uf3Y7M6QxEpgUjWFks7Vm0vxk0nxRM6GUh8f95OfzTsPlydJCiBOHvB3P6B3PqD5K3QDnpK62+obr1r3jysucc5kh2tR3/CkWI6XVj+9+4O+++0PCMCpQ4Iv3XZ6+7epUTVYXY8MY8KjuE0kR+vpEn/mbHxe+c08+imkSEIMxBq9ktrbFTFmUdM6W2VpnDcO/b9Jg2pNKu74eb8/zeuuTqueA4F4NvH4AvuWGa69Zt8YZy/DvuYiTRDhxz/pH/uGf/m3fQarWo1JMbFa/8p7Mmnmhsc4Y7qpjg9ZSK3n/huJ/+W7/roOMnYAYjLHD1rXEM1aajlkylXEmZuHreVBKat8V+vWeF/zND6rjB2gS4ExtzU233Pj2y1YutdaE47T48/CGYSEefOSpv/nO9wnDGOe3U+GuvCT1kXel2xr9YpTwYHlskVKEgbfvSPzn38vf9WjBCkmbgBiM0R2Aa5uTGctM5xyRyrokZv7zhV7+lfR8UejTu5/zNj+ieg7SJEBbc9Nt77t++ZL5SuuxvvHvRb5QG5MY++wLW/7qb/9p+849NAjGn6qM/PD16XetTmtFOegxzPeUseJ76/P//fv5U/08yQAxGKOzX1VVn8xYmXTNlemcSyIm9A5FGJbSC1y+19v5rLf5QXXqGE2CyjS5q+Pn33/D/DkztJRKE4CHhrHOxPHGzdv+8tv/SBjGeDKpVX/mluzSWWGxaCy9kTFOSRmG+rEXin/493079rOdEoYrBuu2SbNoDpwvF6aSWSvjS653rdOElII1wEP5dMEI7bsJXaazW2itTh6SNC8qSTaT/uVf+Lk7bn9ve8sEz/OkUrTJEHYutaebmhquumxFV2fbhue3FKOIZsFYd+l8/ysfys7sDApFlgKPi06mEEliJ07wV83x9h+1LBXG0HrHlatra2uJwbiAbpQ2E+dGy99tJy90yhMmLl+vMNS3AGuEH7q26aZ1moyK6tRRBttRCa5Ys+xrX7xz8sSOVBgqAvBwhuG2lqZ3vf1tff35LVvZZxhjle+J265K/drNuZqcjmLC0riSGFed1ZfOD4RwG3cm1JwBMRgXk2nsiJZeb7rXiFQVs6CHPwuXw3C6xnTONvXtsu+Y6mfjE4xbHW3Nv/WFX33bmmXZTNqryGXAToidvfqhY6kHjqSePBFs79PWufrAqeEpE6O19jw9d/b0y1dfsmXrzmPHT3AQYmypysjP3JL9uXUZWY5MNMj4Y63ztLxkdtBSr57ckrCXEojBuBj9syCVzFkbL32HqGt1JinFM4xQ09tS97i22UzsFl6oju9njjTGmXQqvP2Wd33iw7c11NeFgV+ZjXCkL/6Lx4/+3TNHn9t/cs/J+Kis3WuqnjgWbOjRWtjGwHjDk4Z9z6uuyr3t0mWN9bUbN22NYy4vGBua69WXP5R92+JMFBtLBB7HnSAnrHPdk8IZnfLJF5O+PG82iMEYQaZ1WrTiBjd5QenaQwa7KKwR2hMtU03zZNl/QvVSOgvjxIqlC377i3d2z5yaCgMlZUV28tyuE8U/vHfP5iPFuL837j9ZPHE4f2yfTlcpz+91wcb+zDPHtXCuKbT+MMwTl1J6np7U2Xbd1WsPHTm6c89+DkuMcrM6va/+Qm7htDBf5KF8RUiMndwaLJruvbDTHDnJ9GgQgzEC/bN0Ll54VbLwKpGrZRb0xe8sWyNytaaz26Wr1PH9MqG2Dcaw5qaGL37yw++8+rKqqqxXqZshOSc2Hc5/8759R/qtiYrlSgtOCGXjQlLoTzW0OGOsSfpF8EI+89RRbZxrDE04DK2ltQ4Cf/GCOcuWzH9+09aTp/o4RDE6rej2vvIfqrpavEJEBq6oJOya670Vc/ydB5I9h0nCIAZjOJnWacWV7xUds5yzzIIeLawVUooJXUnLNNV7nGFhjFFXrl355c98tHlCYyoVVmwjOCGe3Nf3x+sPnoyci6MzfltI4WxcTNVO0H6qFJatdSYpSH9zIff4UVW0oik0qWEIw77n1dfVXnX5ijhJXtiynQMVo801y4Iv3l5VW6UoiFWJ/VLjqrJq9fzwcI/Zupd+KYjBGI7OmRcmcy+PF18rstWOIcdR+AZZIzPVpmO28AJ1dJ/kIQXGjnQq/NTHPvSua69Ip1Naq0rOwPdvP/lfHzqcT6xLzii571zpY1d6peqavVT6pWk45TAcR8LbWsw9dkT1JaIptOmhDsNKSt/z5sycOm/2jEee2MBqYYwe168KPn1LNuXLJGFuWoWy1oW+XDHHP37Kbt5N5wfEYAztJaauJV75HjN1sRuoVIzReisQSrvWqbaxXfUckIVemgSjX1dn2ze+/KmpUzrTqVRFn77O/eiF43/x+JE4Mc4kgxm4HH0HP7alD9L1bTpMu1euRnHW2qQUhndEuUeO6JOxrA9Mzhvi79DzvMaGumvetmbDxi0UkcZocPPlqTvfm/M8YSgKXeHdHyc8T67oDvsLbuMOntOBGIwhkkxeGK+40dW1uLjIhsCjXvk5RU2TbZ8tin2q5wAtgtHsqitWfeHXfqm2Ouf7foVn4H945sj/2dDjjHHOvuKMFvLlSCxcuqHVCzNnLcrgXCkMx07vjnMPH9HHI13nmyp/KC/aWqlUKnzbpcvjxDy/eRsHMC6i265KfezdWaUdGRgDF0itxbJZQWLcM9tIwiAG4y3y/Gj+lfGCdc7zhWFrtjHUpzbOD0z7TOeH+sguwQbzGH0GJkK/+9or0qlQVmQ56Jck1v3144e+v6XXJfErhnmdOB13B2dEC1eKwa8dDX51GDZxItTeOPPwUX0oL+sCWzO0YVjr2TOnzO+e+fDjzzBBGhfFL7wjfcf1WSEcOyPhzCSslFg6O5BCPLmFSxOIwbjgJJWtK668wU5dLKwRjhw1Bu8GUriWyaauRR3eI+MCTYLRo6uz7ff+46enTZ5YydWwBhQS+2cPHrh7d9FGZ5tu81IMFu5NR4NfnYZNbITcb3IPHVEH8rraN3XBkAWGgQnS165bs2HjZiZIY4TddnXqjusy1glLBsbZLpmLp/uxcc9sJQmDGIzzZ5qnxKtudhO6zihVirH4MMOI2hbbMk2ePKz6jtMeGA3KE6HvqKnKeb5X4U1xqmj+8/r9j+yPTTH/mj+UL68KHhwKtsK5dGObDjPu3HaqK2+pFlunDtjMQ0f0rj5V47uGcGiSg1IqFQZXrFlmrH1+01YObIyMmy8PP/aunBNkYLx+EpZyyfSgr2A37qCcDYjBOB/lxcDvpiL0+EnCmZzpmCnzvSwVxsWltb7zw7fd+M4r06lUhU+EFkIc60/+8J69zx61Nsq/XnfuzFXBg6PBjW3nNBr8qm6hSZwQR2z24cN6e7+X07YxtEPyFnie7p4xZfaMKfc/9IRjG3kMs3etDj5xU05JMjDeJAkrJS6ZFRw7ZTZROxrEYJwTqZI5a+LF1wrllUuVYnwkYSu1bztmSmfVkT3UOcPFysBf+vRHli6am674idBCiH0nom/cs3frCWOjN16w8FKl6IEPbLrhPEaDX/WZbDkMHzPpR496W/r8as80pdyQJOEJjfWL5s++/6EnkoQeJ4bLNcuCT9+S87RgPTDOJQlrLS+ZFRw8zn7CIAbjzfsyQbTkmqT7UmGdYzHwuLshSCFt6zSXyuhDO9n1CiMsnQp//6ufnjl1UioMKv5cdC8eyf/evfv29Rn7xqtOBkpkDf5qL2BS9FnZ8iPO4zb12DHfWjuj2gzFMw5VX1uzfOn8Bx97ulAocsBjyK3s9r54W1UqkNSFxrknYd9Tl8wKXtwT7zlMtxbnFIMVbVGJUtniyveYGSucScjA4/R+YJ1JzIwVxZXvEaksDYIRU1db/a1v/EZXR2sQ+HTLNuzv/5179h/qt/Y8Ki+4IY/iJioYZ398vO6uA0PzpmhPT2xv+ePf/XxzUwPHPIbWzE7vc7fmMmmZGPonOA+JsZm0/NytuZmdHq2Bc0EMrjzp6sKqm13XPBdHgsVd47oP7uLIdc0rrLpZpKtpD4yAjrbm//z1L9Y31Fb4zsADGfihnSe/fu++EwVj4si9vAvS673c4JTol4aEh/RljU2i4g/3pQ7mh6j3oHVddfV//voXOtqaOfIxVFob9BduyzbXe3FMBsZ5i2PbXO994bZsa4OmNUAMxivYXG1hzc2udVp5iRoZePx3xW1UcK3TCmtutrlamgPDavqUrj/86mfrqnOBV+lP4p0Qd73Y8831BwqxHT2VF6wxkZ9df2TInlAorXLZzH/67V/vnjmV4x9vXXVGfv7W7KyJfjFiLQ8uUDEysyb6n781W52RtAbeGGuDK6lnVtUQrX6fa5roYlZzVRKbiOpG2zhRH9ohozztgeEwr3vGb33+49lsmqLQTojvPnvkLx47ZK1z57Uyf3A82A4OBwubbmx/i2uDX0VKlSTJmglDmcx931uzYsm+A4d3793PiYAL5mnxmfdnr1iUzhfJwHhLEuMmtQb1NeKBZ2MqrOG1KJFVeVGoZkK05hbX0EYGrsi334iqejNhkjq0Uxb7aA8MrdXLF3/+E7+YTqdoCuPc3zxx6O+eO+FMuczVeSdocea2SenG9vPfMOmNY7BUUlzaGOkhnQrme97yxfNOnup9cfsujgFcmNuvSd3ytkwUk4Ff//wVQkkhVelEPq30m4JRz9deiq2d2enHiXv6RXZCwevGYCZFVwRX3RitucnVNpOBK/cYiIuutrl0GFQ30hoY2gz8qY99MMXGSEJExv7ZA/v/8YVeG8fO2vNcvuvOWBU8YBiuA6WXHI41l0Hg/8IHbrzu6rUcBrgAl833P3h1xhi2oz4LJYXvyVRQCr39RXuqz/ScSnpOJSd6k95+W4ydlDIdKt+TSpKIT1/rnDDGffDqzGXzfVoDr4daahVwLcjWFle+19W2koEr/UhIIlHbWlz53vD+v5d9PTQI3rp53TM++dHbw4rfGEkI0Rcl31p/4KG9kS1daSuxL59Op37xAzf2nDi1/uEnOB5w7ia36k/cnAsDGSeUxXqZlMLXpeh7qt++uK/46KbCCzsL2/bmj5+M+guJtc73VC6tG2q89qZgWnu4ck5uakeqOqOdE3HCXGBhrAsD9Ymbc7sPn9y+n1kGIAZXYPJJV0erbnKNHWRgDIwJi8aOaNVNwf3fkfmTNAjeiulTur78mY8yDiyEOJ5P/ujefc8cTmz8VpbfDwwHD374UvHooRwfc8O7P0AQ+J/82O3He05s3LSVowLnojorP31Lpq1BFyiLdQbfk8a4h1/I3/d0/8Mv5Lfvj3v7rZCivJzBE06axJgkPng02rLHWVtKzdUZ3dkcrpmfu2JJzfLZWa1lVPHVtuPEtjXoT9+S+eL/6D3Zx5MBvBprg8d15knliqveK1qmkIHxMmtkdaOpbdb7X5RJRHvgwnS0NX/jNz+ZzaZpigOn4q/fvfeFY7F5KxnYnVkiy5XXFbt0Q5tODWWJLKFUStkrJkTesK2I8jxvzfLFDz761MlTlCHAm/v4e7NXLUmTgV8+g7RUWm7YVvzmd47+6XePP/R8/shJ45zwPFn6IzXwUp7ne77vaa2k81TpbyXGHe6JH9nY+6OHe17YVWit99ubAi1lhY8LJ8Z1NQepUDz4bMzRhQGUyKqES2kQrbhBdMyycYHGwCv62zaRtRNsrs7bu1lYOh84b3W11X/4W5+rzmWoC73jWOFrd+/ZdcrYIXja+PJA8ECJrExju5ca0hJZSqWHOQYP1I6+fM2ynz34eF8/penxRq5ZFtxxXXlJMG1RFvhyz+H4T/7fsW9+5+iG7UVRXhWs1dkvtFJKpbXnBUJIVy7Ip5T0PWmseH5H/w8ePLHzQDStMz2hzjemohvYWjdzorf/qNm6lw4PiMGVkHOkjJe83U1ZZBkHxlmPEJPIulYbpNT+LVTUwHlJp8L/9Nufr6mt8rSu6JPIuecP9n/t7n2H+62No7f+6V7+4PRryDdMErI8Gtw8vDG4PKKlL1255N4HHi0UuAfh7Lpa9Bdvz1WllWEda3klcBjIxzYVPvfnh+5+st+5UgA+p8eMUiitldblsnxu4FN5WiaJe+rFvvueOjW5NZzWHlonKraVXemKpGZ1eQ9vjE/0crCBStHjXdK9xky/xDLlFa/PJpGZfknSvYamwLnTWn/9y59sqK8JPK+yM7B4dNepr/50z7GC4Ur7Wkqr6qrc7/zGnWmWjuNsfE/88g2ZtgaPsliDwVXJ760/9Yk/PbBlb5QOpTrP7rlSOkilteef8TsiHapdB4u/8kc7/vIHR5w47885npQXCXu/fEPGpyYSzuzSMBo8DjPw5IXxomuHurIKxmVfXtgJk2X/CdVzgMbAuWTgL336IzOnTgoCv7LPG3HP1p5vrt+fT4QzyZB91sGL9kuTom26oX041ga/bfhHg8tHi8qkUgvmz777vofZBgevcuuV6ZsuS7NL8EuDt//zxz2/8zdH+wvW9+QFfyJdfjppz1jrpJWMEnvPUyd783bN/ColK3dM2Fg3pdXPR+6ZrewkXOkYDR6/53nLlHjJ26WU5QorwBt3vK0sz583LVNoDLypj99x69zZ00dDBo6s2HHSvNhjThTtyGfg7z139D89cDBK3NBl4PHJD/xpkzq/8MlfoilwpnmT9e1XpZLy3toIfPmDh0798f89ZmwpD7/Fz+YFoee/Ygc7raRW8q9+cOh/fO+wp1XF1nNwTiTW3n5Vat5kzVGHwbOD0eDxxGbr4lU3i2w1nTOc+51B+qGt71T7NkuqqeH1XXXFqhvfeeVomON6187om09Ef7+p8MNt0d177LG8nVWvAi1HJgP/7ROH/urJozYxbmjLy7nTy4Pd6UrRA2uDx+xo8GAnQ6vGhtoksc9v3sZJBCFEKpBfuC03udVnOrQQIvTlIy/kv/T/He4rOG+I0pnSnrXWnTEWIqWQQj7yfF/nhGDelExSqRWznBPZtG5t1P/+ZJQwEaGCMRo8HnlBfMl1orbJJRSFx/ncGJJY1DaVDh4voDVwVl2dbR/+4E2p8CJnYOvc/3yu8EdPJbt6bVIeSTpWsP+0S33+Z/1bjw/7s7/E2j9/YN+3N/Q4kzim25x77AnDD9x03fQpXTQFhBA3rk0tmekX2SGpvDfSzoPxV//6yLGTxhvSEUo/DKV8RQ9fKREn9it/ueehjb2BX7mVMYuRWTLTv3FtisMPxOBxJZp7uW2fSWloXEi6iIu2fWY093KaAq+VToVf/uzHUsFFfkoSG/etp/Lf2eqsiWwSOWdLL5uYYt/WXvX59fmf7BjGq18hNt+8d+/3NvfZOHLlgqxD/BpYFnzG74hSL1YN+Re6KEsDwzD4j7/+K9kMu0xXumnt+tZ1YcIOSULI8usvf9izeXd04euBX++TS+W/5qmlp+XxU8kff+dAoWhVxU6NLu8kfOu6cFo7U6NBDB4vkskLk5krHQVLccH3hiRKZq5MJi+kKfAqv/pLH6itrrq4ZUb7Ivt7j+V/tEfZuPjaFGqi4qnY/dHT8X95Kp+Ph36c9lTR/O6/7713V8HGBedeKmM1pK/SD+Lc6QnQKgg6a4KWqkBIb8i/1kWRzaS/8GssEq5oWok7rks31HgVvo3tAN+Xj2/O/+Ch3iAYlkiqtKf1q8sih7566NlTP3jwRCUPCBvjGmq8O65LazIQMZgmGAdsXWuy6CopBaWhx0kivThf1UkpkkVX2bpW3gK85KorVi1bPC8ML+ZQ8PG8/drD/esPKlvMv95CWWeMTZJ/2SV/Y31+R89QLgw50hd/5Se7H91fNFFhJM5NqZTnr5qY+70b57fWpMR42ZzZ8/SsGZNvfOdVnFMV6+3Lg9XzQ6ZDDyzWLUTuL37Y05sfxoFZ7Qev/brOif/+vUOHe5JK3j+pGJnV88O3L2chGDEYY75zEcSLr3Gp6iGu14IRDL3GucS6yLhiYguJNfYiBWFrXKo6XnwNi4QxoLwk+ObURS2LdaDX/uaD+aeOeaaUgd9wxq91ppjf2CN//f7CPbuHZmrMnhPF3/i3XRsPR+WvPqzKz7+0F3jy55e2fOnamTVpPxmWceeL9laySLiSNdaoD1yd4XH9gMCT92/oX/9sfsinQ7+ii6/1aweEfU8+vyP//fU9gVe5EcA5IYX4wNWZxhpyEDEYY1ncvca1THEJS4LHRuK1Thjr4nLoLSS2aKyWojrwOqqC5W3Zm2bV/dolzd+4or2zOkguRhh2SdG1TIm71/BmIZ0Kf/PTH01d1O2RtvUkX1zf/+JJZaP8Of4VGxd7IvGNR4v//ZlC9NbmXm4+3P/FH+3c0RPbESmirvywrcr/6jVT3rd43M7IYJFwxbppbTipxaM69MCQrDHuJ4/3FWM33NsXaf8sF3AlxV2PnugvWikruPOc2Ekt3k1rQw7ISubRBGOaaZ0Wz1olErZHGpWh1wkrnC2PU5UXM4pQq5yvsoFqSHudVUFHddBe5bdm/dac35jxUlr5WvpKKin+9rljF2lIWNgksbNWqcO79P4XeRMr2a/+0gdqay/mkuAjeffVh/IHCt75plBnEiHl/9vuv9iTv3NR0FF1IXe6J/ee+vo9e3uKbgRq70splRcsawvvvLS9MfvyXIzhGL696ENxA4uEv/S7f8IpVjmmd3jXr07FMRl4MIXuP5Y8vHF4h4IHry1KS6leVdne0/LZ7fk9h6IpbWFSweu049hevzr10yfiLXvoRRODMeZSVro6XnyN9Hx2SLr470V5Kxc7WPFVOOeUlDlfVYVeTahbc/7E6mBiddCa8ydkvOasXxVoTwmvlHildc4MVMcRwlpXsE5LOTBj5yL9MFZ6frz4GnX3IZk/yZtbma5cu/KSRXMv4g5JzrnvbikciEIb913Y37dR/uljqc/el//4wnB1e3BeX3r9jpN/cN++fOJGYA92qT1PivfPr7l1cYuugPqtLy0S/sd/+QknWoW47apUQ7XOF1m6NXAKyAeeyx/qSfTw73YupVRam1cOwisljp9K7n3q5MyJEyo5BhvrGqr1bVelvvJXvRyWxGCMMfHcy1xti2OHpBFn3WDofWloJdSyIe3VBLox4w0k3o6qYELWa0z7jWkdaKWk0Eq6cuK1brDObXnG5mi8A5V3Em6J514WPPovvN0VqLmp4SMfujmdTl3Us0w+diC2b21nFRMVjhjvaw8Xb5me3N6d9s6h0+mc+NdNx/70wUNxYkeg4ILywwkZ9asrW5Z3VZ3lmxmPo8EDi4Rvu/mdjz/93M7d+zjdxr2Vc/zLFgTFiKHggVwqipG7f0O/scIbifp3AzH4tYMl7pGNvbdd3ahURa/WLkb2sgXByjn+g88xnkQMxthhWqeZyQsZBx72QDgwzGtf7jtqKapDXZfy6tO6LRtMrAm6qv2WnF+f8hozXlVQ6mhLKaQQ9nRgNuX0G9uxdKtxSWwmLzR7XmBqdAW688O3ed5FvjskTvSbISin40ycSPV/tvlbTuQ/sTBszuk3zsDfefrQXzx2pHzOGzGsczLKE6EXNYefvKy1pari1qd5Wn/mV37+Vz//u5xu45vviVuvTIeBokD04HkvRH9kt+6LR2q3HnfWhS1ayR0Hot68qcl5roJzsHUuDPStV6Yf2xTHzIwmBmNsRJQgHS9YJzxfEIOHPPGWgqsYWL0jhUh7qiHtN6S9CRmvs7oUejurgoa0V5vSdaH2Tw8uleczCytcYsfL7cRZ4fnxgnXq6F55ztWJMA6sWLpg+pSJvn+R7w6+Eo0psb+g3Fufs+esKfY/eiT1qfv6f21R6pLWsxf9skL85cN7//7ZE84kp+P3cJ3OUmmt1PvmVH9oacsbjVHbM/cSHpLz2o2SLq/SqmVC45VrV95174OcdOPYZfODBdO8KCYDnz73pew5ZY+cNGqk6lOV+jIDGyW94tsQJ/tMoWhqsrrC35EoNgumeZfND376RMTxSQzGGGBmr3INHUyHvuC4O1i/6nToVVJoKTwtG1JeU9ZvyvhtOb+r2p9YHTRn/epQ14Q66yt5+u/a0xObo3G9qMYlsWjoMLNXeU//lMOmQqRT4cfvuDUzCgr5KimunBRueLrcdxuK88wUCweM/5sP5G+bnbx/VupVq3Bj6771s90/3HTKmcgNdBKHbShYeUFDWn18ZculU2re9GI1LidFDx5s6dSHP3jTg48+1dfPg7bxKfDFTZentFLGEIMHaSV2HYqL0QhWaZZSvubEl6X4Z+PYGutkJReMLvcGtVI3XZ762YYoYmiJGIxRzjZ2xNOXCcPJeq4XuHI/0g3sVCSl8JTylMgGulytymvJ+h1VQWd5NW9tSlcFqly/Sg4MmpSrPQtb3t+oIp+4xPH0ZWrvJnVkD8dSJfi5977j4u4SfKarJ4aP7e/92aGMLfYPzdUgiSOp/nqT23y8785F6cbM4DBIf2x+/6fb7t9ZsEk02EMUqvyrHPL+qPZTc5v8T1/a1lHLRh3CD/xf+uBNf/xn/5umGJfWLgznTvbjhAz8MlWOwYXIjUCZ6JcSb/kX96prUZS4g8eT5oZgBCp1jXJxYuZO9tcuDH/yKMNLxGCM7itoPPcKEWYYCj5HWolAy4b04L5EbVV+R64Ueidk/aynsoFKe8oNzj0UtpSZXWLH0dzmtxgbrJVhJp57RXjft4WlwMk419HW/M6r1oZhMFoykha/viwbPNF/196UjYtDU8jF2SQqrD+U3nFP36eWpBc2+z35+Ld/tOXJA0WbFEvpV6nykzNb6jgO6WZRUpU6mzfMyt2xrCX0zukzj+/R4PLCUe/SFUt+9NP7X9iynRNwnEkH4ubLQ6UEKfiV8VMUIjeiXQxZ8qrLpxSiULQ7D0bzpqSdYkC4dLG/+fLw/qeLeWZGE4MxaiUT59rWKS7mNH354jUQYmW55MOr/tQ496VVbavasxlfpX2V9rSWp3c2EoN7+ebZzf+NWziObOuUZOJcb8cztMb49pmP/wfP90fVt5Ty5GeXpquCwj9uC1wSCzc0Z6uN8nts8IX7+983Qz3x7Isbj0S2vNVwqW9oyh0iWQ6MpSyshmRIWHpBTSA/vrpl3bQ6jrQzhWHwiY/c/vFf/x3mzY4zly8Mu7v8mDvsazotoS9HeGc0qZR4Zd17KUUxdod7klLHMnG+z4Cw7e7yL18Y/usjDDJVEEUTjKWrZ5BJZq8pv2sVOlY5kF2T8hTlQmILiVVKVAVqal04qTY86+PVuU3prpqwJvR8JSNj84ktGheXx3sHtvnFObS6SmavcUGGthjHrlizrK25aRTuW+sp9fGFmZ+fqYTUQqqBzcbe+svGUT5x/2uzejZqMEnkTOJs+RGZs86Y8sei/J/m9AZn4gJfUqogPbsx+OY7J513Bh6iH/bM1yjUUF97/bWXcw6OJ74W168OlZLcZF8rFciBSScjF4PPsjpYWOv68kZKkfCoYnBAWF6/OvQ1jVFBGA0eS8z0pa6+tXKmQ7vThawGF+g6l/ZUVejVBKqjOphcE3bVBh05v6M66KoO/ua5Y7/zwP70a6YalhJvuSfL8XPhb4SJRX2rmb7Ue+4+WmNcymbSH/0Pt4yGyliv54Nz0lVB4b88LRIhxVBt5+ts6XKaqhZN08Tx3aLYL5wuDwUrYa2Q7uUJ0gMDxRcwb1BpJdU7Z+Q+uqI17fPc+ewy6dRtN7/z3vWPHu85SWuMD5d0B91dmgLRZ41bKV8qKUvXlpGrFX2Wmn9KiT2Ho2Jc6mMZ41ghHMWmu0tf0h08sIEZl8RgjDK2qiGescyZ8byvmT0j9DrnfK1qQlUd6LacP6U2nFwbtlf5bbmgJeulPeUpqZUcmOEcaKkkQ7vDmoSTeMYytes5deoorTH+3HH7ez092p+Bv2d6qipUf/BooSh9N4Q1Ap0Vfko0ThEn9oveI8IpoXQpCZfythNSD3ZdS0n4/OpmSS/I+eKXV7a8Y1b9BX5rw7E22I3G6URae79yx62//Yd/xsk4Dkghrl8ZhKEuFInBZzmpw0ApKUZwefDZtw5W5a2DC0UbBjJJrNaaJxSpUF+/MnhwQ0R3khiM0cXMXCEyNWIcDQXb01sWDc67laIm1HUpPSHjT64Np9YGndVhS7mSc65cyHBgtqZxwpQXBMfWxadvIz4zr4b93TIiU2NmrlCP/YDGGGcmd3VcunLJ6KmM9QaunBhU+eJrDxd6he+SSAxVWZdSylWitkP4aXFinzBJKQmrchJ2A8uDyx8IM7iS6By+rgpSU2vUZ9e2z5yQ5Rh7U76nF8yZOa97xoaNm2mNsW7OZL10ph/FTLU9+8Uml5ZaCzuCgxpq4LneKx+AKSmOnkhi41JCJsb5zinJgLBdOtOfM1k/u50nOMRgjJ7rZk1zMnGuS8bwJkkDy3qtffkyXB3qhrTXmNFd1eG02nBSTdCc9SdkvdqUp8oXaPfy+LCLSbkX/R1M4mTiXG/LY/LEQVpjPPn599/ge2PmXrC8NfjGpeorD/QfKYZDvULEiWxDKQkf3y2ifOn+WArAdjAkDy7ms29eU0MppbxrpmR+ZXV7Vajf6nVzaAdvR/GFNAyCn3//uz/9m3/AKTnWXbcyVZXReYaCXycG1+W0p2WUuJELnQPLOl5dLFoWIhPFVma0tS5JXFDxhbKsdVUZfd3K1LPb+zhWicEYLeKZy2Q6N4ZWBbvy1cS4wcUvUoq0J5vSQVPW66wKptaGU2rDlpzfmPbq0tpXgxMNB0Z6jXXcPEflm2plOhfPXBY88n0aY9xoa26aP2fG2JoON7fB+4M1mS8/1L+7L2XjwtAe5CJIi6apomev6Ds+mH6lLqVfWw7DpSuaEU4NditfM0Faaj/jy48sm/CeeU1DciEd3xsmvfLpgZzc2T65q2P7TnYpH8M6GvXquQwFv0EMdrVV2vekKLiRWhtcvlxJ6V45a05KkS+6HQfiCXW+scIkVlC/oDwgvHqu39Go9xyhK0oMxihg69rMxDmjdijYDV7ZSwnWlq/qSopAqeac15Lz23LB5Jpgal3YURXUp3Rd2ktpeXpweHBSdGQY6h0jh2ISu4lz7JbH1fF9tMb4cNv7rtdjcCLclDrvDy7NfuWh/Asn0i7KD20vtZR76ycKPyNO7C9PkBanJ0iXk3Dpv8u7Cgsl5Cuq3Eg/nFStP7u2fV5rjkPrAmjf/8UP3Pil3/0TmmLsunRh0FTnsSr4DbpMqUDmUqqn14xYjSwhpJLKiFc+myjvYLz7ULRyTiYWwlgKZZUY65rqvEsXBv/nrjyHKzEYF188Y7kMs6NnKLhcwNkZJ2wp9UpPCU/J2pRurwpac/6k6mBKXdhVHdandW2os4EW5SeQg9WerSsSesfwDdzKMBvPWB4+/F0aYxxoa25avmS+GpuVUVpz+vfXZH/rod7HjqTt0CZhUZ7HkmsanCCdFITzysPCA0l4oIK0G0zFcqCPqaX21k3OfmJNe23aG8qLbcWMBovy3u/dM6YwIDx2BZ542yLfWu7yb3QGlrpMObXrsBjJK69UUphXPrYTIjG2p9e8tJ1STKGsMmvd2xb5/++efJTQGMRgXNyzsa7Vds4aDUPBkXHWOV9JX8tc6LXl/I6qYGK1P6kmnFwbNGX8qkBXBUpJOVjtuZR7XZH96MbZAZnEsnOW3dyqju+nNca6W258uxrLnZ7alPzt1bmvP9J3z/60iwpDHPGcFWFONE0TPXtEf48Q+vQK4dMTpEtdRyOckl4QeuqOZU23LGiSFV9j5q12Sjx9+/uu/60/+G80xVi0aLo/tc2Lue+/UQoWnpa1VXpk63rKwer3r3H8ZGxOP7Yw5W4ehbLixE5t8xZN9x9+PuaIJQbjYkqmLpJh5qIPBVsnLu3MdTemOquCSTVBe1WQ9XXWV4Ee3LJoYIujeKCIM8bzPdzKMJNMXRQ8Rgwe2+pqqy9budT3xvaz/4wvv7wiW/VE/ns7QpcUh3jbNGeF8kT9JBEcEicOCJsIpwcLRw9suyml9P32KvW5yycu7qwelhPODenP5Eb7xnJK64VzZ7U1N+07eJiTdMxZtyTIpBTFsd6k5+2JutwIx2An5VnW/WolN+0u9hec7w1calyS2MBn5ySRSal1SwJi8LjHavjRfSpm60zH7NGwV7AT7s6lEz67ovV9s+uXtmYnZPyMXwrA+cQWjYutM7YUhknAFXFYmqR0WGbraIox7ZYbrrV2PPRWfS0/syR923QhVSCkGvqLn3Ciqlk0ThFeIExSHgG2QljhnPL8NRMz37px5jBl4AoNCVrd9r7raYcxp6VeLe/2I4aC3yxi+VrWVWk7su2klDzbb4q9R+Ioti8NAJuEflxJlNjl3X5LPSmJGIyLJ5k0T2Zr3ejoqjonEmMLiY2MG6iGxcWyQu/i1shsbTJpHk0xdtXVVl+zbk0YhuPkTqbkRxZkPzZPC6Gc1AMjqEP5staFVa5pmkvXuCRxxgyURbhjadPvvGNaU9YfrnNteF6j/d3UetWyRW3NTZynY8uK7qCx1rOU/3jz65WozY341GOpXrtkQwrZl0/ykZWn50uXC2XxIENY4xprvRXdAU1BDMZFChth2kxe4EbNcM2Y6D9hxJJw6eAM0zTFGHXDdevc+OrrSClunZ3+/LIwE+hhGBMuT5DWvmiYJGpbhRTtOe8b10//0PIOrVgMPAzvphA3vutq2mEs9SalWDXXV/QTzuVa4kRNVnv6LbWVtSJOXDF++ZWY0kXd2rN/2lIGfs2FUUrRX3Rb9hT1GX8SMyBcPoyVKB/SXODHNdYGj15JR7erbnJJRFNg1N0hTCKqm5KObn/r47TGmJPNpN9x5WVBON6ec0sp3jk1tf3Qyb/bGbpSZ9ANfe9VCFHTms5Vf/7ymsUdVSPQXR7ytcFjIqZoT6+7dPm3/+H7x3tOcsKOCW1Nas4kzYzoczyva7PK09K5C9kyyVgXJ6K+Ws+ZGGbTKvRk4IlTeXewJznck/TmbW/BJsZ5WunTdQwGH1Uo+aqHn1KKQmR3HYrKU6ZfKpRlrVMUyooSO2eSbmtSew5xVBODMcJXSSktk04xutlJ89y2J6TjyfEYc83b1rjx+K45576/4cD3HtnqROjqJwrlDUs9KGPyOvf1J+2nZHFl+/DOKq+0DZNe1UF/17VX/PXf/TMn7JiwfLZfV+0VI4pjncOt04nanPK0iM+z8Iu1IjZuQq133bLcz62tmdYeKFkOuvLlweF9R5MN2wvPbC88tiW/bX8cJ8735OlzamC0Xr7yeuZO9CZnZl7nBIWyBrZNqqv2ls/29xwqctASgzGy/bnGTlPfLgxF6jBaD1ETm/p219gpD++iNcaWa9etyaRT4y4Di28/uve/rt9tEyuSE8JsEw2ThReUy1kN+cGf7On1P3df/y/OM7d3p5kXPSy9E8+7+opVxOAxQSmxag6rKM/jYlVbpT0to8TJc/4rUeKqs+pDl9Z86KraztZya5+xDFspEQYyDGV1VThraupm6/p7zZNbC39914m7n+orz3mWUp1lzySt5Na9Ub5oB7ZFH5AkLvB5o0pWzQm++7OiZTx4vF67aILRKensVmFaMM6GUXwnV2E66eymJcaWyV0d9XXjrayxtfa/rd/1pw/sM9Y6IZzyXLHfHX7RxXkn1XBUmbImjqz78432Cz/rPZwfxhGwCiyR9ZIwDLpnTuWcHf06m9TsLrYLPvebp6vNad+T53g2JsZZJ65cnP3fn+v40gcnlDJw4kqvs1yYytk4siJxmYxafUnupsurtRroSzql9FlisBYv7Crki68I5JZCWWVxYmd3eZ1NZCViMEbyEpnKmvYZLmEoGKP7QE3i0oGaytIUY8i6y5YrIcdZT+X3/33X/3ry6OBMb6mE0qVXXBSHXhTF3mGpmFUummWjwn0H5C//5NRj+5k1N/QCP3jHVWtph9Fv0XS/pkqVshrO5cohRCqQ2ZQ6lw03otjVV3lf+2DTn32ibcH01GAAPhdWiMg1ZEp5e+AvSCnla6auSCmPn0z2HI5etaMShbLK13hXU6UWTWdknBiMEWRap4uqRmdZY4NRfocwoqqxdLhijNBar7tsxXgqjtVXTL5y187vvnDKJrFzzknthHJClj5Q2pnEHd7m8idKvznkuyiVXzYq7OqTn7qv8LfP54d8xfUwfc9jpoOi5OplC32f1Vuj3cLpvpKS2HTuOVgrWZtTb/rcoBi7S2am//qzbe+/utZTQpxvNHWivkr7Wr4UecsDwq88y6Q4lTdPb82/tIR4sCNqrK34CYmu1D5yITGYGIwRjcET5wjWmmFMkOXDFWPEvNnTtR4/hU+O9yef/+H2n27rc0mxvAVm+bopVfklB8eErRFHtov+Y8M1JlyeFlGIzZ88nfzm/b3HCzy+HEqJMcsWz6cdRrPqrOyepBNmRJ9PuPK1rM3qN46ZiXFXLMj8t0+0dk9Nidhd2HqGQmTNy2l7YHnwq1nrtu8rvuqbcU4kMe+pSBLbPUlXZ+mUE4MxImx1o21ocyahKTAGbucmsQ1ttrqRphgTrl23JgzD8fGz7D8ZffL7Wx/eV7BRwTnhpHRCOyGdEOX1wLL0Utopzznnjux0pw4P0zrh0stZExd/vE999K7epw+xy92QSafC669hXvSoNrvLa6zWrCQ9L54WtTn1BjHYWNfe4P/uLzQ31HqlDHyhffy9x5Ji/NK6X6e199okHHjyrsdPPrmlP/Tlq3I4I/zGisZqPbuLOSnEYIxMDG6eItLVgrJ0GBvHqxXp6tJBi7GQKJYtnjc+yhpvPZK/85+3bjwcufiMRblSDI4Dl25uunyDk4PDwlKKY7vEif1iOGfauGL/tpPizn/v/4dN+dHcemOraztz+uTqqhzn76i1YIqXSWtHYjr3E9AJz5O1VfoNJkVLIQuxlW/5dH1iS6EUg1+aFq2UH6bkK/cEVkoe6Yn/41/t234gOnNqNIWyBuqZZdJ6wRRiMDEYI8K0z6BANMbWXaJ00GLUW7F0QZyMh2kmz+zvu/Oft+3oiW1cfPXC11KnUZVHhoVTanBYWCondel1fJ87vuf0//n/Z+884OOqrvx/2ytTVW01y3LFHWzAVBMwxbSEsiS03WwgNG9gIQX4wyYb0hNgk9ASSIBAMBAghF6NDbgBtgEX3Jsky1aXRtJoymv3/j8zI8nSSLYleUbzZuZ80ceMZt48zdx3733nd8+55yQBhISpBwx+/xf6zz/p9Gv8yM3lpOwNTquVEMHFmV87EcavPZEYnj1ZArE0VCjBee5D7U/BGLV18vV7tOHb6QxX1+mvrepgNE70UtZPCUsM76gJ3/NkbVOb2ft40wBzFFkWnz1Zits7DYAMBhIP947m+RARDaSVkWqZPL+Ue0dDU9icCxac7nI60v1bfFLZ/oM39jQETG7qA8UnY4F7KeFYrqzYr4QKSkVHg2itjojBrgOS8MMtyzTeqsE3LenY2nKkCf+zuWBSDFmWzj/rNBi/9mRUDq4oJqYFYmmI41oIr4swcigZrJni4w2dwxyxFHcG+a+ebarzmbTfX6GUMVmJU8KKhD/fFvjJE7XtAatHCZsW51mfANy0REUxGZUDMhhkMJBsGVw8Hjk8SMDCKpBG93OOHJ5I1wVsTEF+7oSxZen+Ld7b1nrnu9XtmiWsQ8jLWK4s0uX0xDiaHIt0PaAMdbag5krELYRxEkeFFtzRjr+3tPON3VBL6UgpzM8dU1oE7WBDplYwtwNDRPTQZTDKdRFG8SFaTqL4w/XBPft1NFQ/JMP+gPWTJxs++DIgH+S9lElMVuIiQxQZr9zo/+mTtcEwZ92+akh+JoRwO/BU2B4MMhhINlbxRIiIBtLxLhHpuoCNOf2UuQKl99zy0vrGny6uDulmV22kw8YnYxJNmoW64qJ7oqMJE8E20bhbmEbkSZGs2GNu6B2a+MWnod9+FggOK7YwSR8t7S49k9g5p58Mo9iGTB5DVZmB2TIcGeym7JBp+ylBTW3mg6+0WKYYgrUu4bpG45aH61771B+X8qq/Epbk+IyJqoyXftH+s6dqNQPFEkmYZravcgiBVJlNHkOh34IMBpI50pw5PLcYQblgIO3gFs8tFs4caAnbcuJxs9R0zhH9xGe1v/t4n2nxoRVUxxihaH6snkRZXYWUGAp3oqbdWHBEk1gTUnCLc/NfVei/lnTs8hnQD4cHJeSE46Bskv2uC8VTxlKLgwge+j2zSwYfptiyJOG3Vnfe92KzydGgfMIS3rpHu+GB2o83Bg+tgbuuoBTzCccpYfLuZ+2/eqbOtAQhiAtIlIUsLqaMpZRCXDTIYCB502JeMXJ5BchgIN2IdFqXN9KBAZtaq3TyxIo0/fCmxf/v45o/r24SnEd+huj3FDhaSwn32iccdQsjSVWEfsMk7egChCQ1WfuEowF1lhb8yodvXNL5buXQAqRFErJkpWlMQEnRKIeqwFi2FV4nnlBCTciPNYybphB5HioxfOjxiBEiBD3xru/2R+v31ulIxofKbyfjNZuCN/yxdlOVpsqDFWxMkpkkx59Jwq+t8P3hpYbI7ImRYcL2YD6hhHqdIINBBgNJwyqZGC3yAQDpOJfQSAcGbMmUSeO0cFoWsw0b1i8+2Pv8Bp+wjOFuGMExY7LrMSYIEyyp5Xnqw1fMWXhq+R/me08o5FhKbvIwYWi+MPrxyuD/rQloJnjPhoym69OnwAxjLyaVUq+TQHnH4UwICDkU7FTwYecCghEl+NVP/Ff/dt8LH7QZ1kHcwhLeuD30w7/U728xBuMH7qOEZYWyPkExGCOZ4ReWtixa3CIxzHm2J8riHHmdZFIpmOggg4EkQWVeMAYiooG0vUtYkQ5MZWgJGzJ75lTVoabdxza5+On7VW/u8HNT69ruO8wfHHUIk9iGYSw7zpiQ8/jVxxw/Lg8hlK+S/5vvObMMIeYUIolbhYVlcm49v1vcvNRf3WEN0laGTNExXE7HiRAXbTMmllOnChWDh6mDJYbzPINqPYyRKuO6VvPHTzV+78HazbvDESXcO0CX4d179R/+pWF/iykPq65PRAlTFvdHMcKPvNL41iftioTN7F68E0I4VTqxHGQwyGAgOViePO4phIhoIF1vEtzinkLLkwdNYUPmHjtTYul3/35zc8sHewLCCCfiZFGfMFUkiX7vpOL7L5ky2nMgwtYtkd+e5r50vEAsljpVJM+Y4lro8yZ0/WL/h1Vh6JlD4vjZM6ARbEXFKJrMdOsZbXwTZJhiSIWmGMWU4A/WBf793n33Pt/U1GoiGaNoFvxwmP/i2cYd+3V5uLVtMcZMUQkh8R/S4r9ZVL/yqwAlWb/cgXGkwwMgg4GkWEf5ZVhWIU00kLY9WGBZFfll0BJ2Q5LYuDQslcQ5enNzdD9wgkBMKfXKD10y5fqTyyiJv/dJBP3kZPe1UwlikkBEJBUj3Bjkd6wIPvxFp3G4gFLwBveQn5ebAYWvM2diYai8iEDypGFAKQrr4nf/aNmxz2BDybqEMVIkHAjxR9/yXfmbmhc/aNcNgWTy5Lu+5ZuCg98PfDAlLCkOjPvMjYxgf9C852+1G3eHaHYrBsvi5UVEgqpJIIOBpAywwjJYVQXSG4wj3RiwGUdPPyocTr/StQYXDZ0G51YCVB/GWFZPrXD97fLJJ4/zHvR2iNGtx7luO0bGhCBCk5g0CyFhmaZlPblV/PeS9lq/efDFJSiX1KtLGMZxx0yHEW0TnAopK4Q00UPXwATphvj1s82vr/STYRl9hGBFwlUNxv881XDjH2uffqP1b++1MZIACxITIikq7nsmieG6Fv1nT9VW12lSFqdKtrgoK6ROBXQTyGAg4TBJ5BYhAauqQDojeKQbMwlawlbMnH5UOpZKohg5GUnA4iBhlNIbjit44OIJxV7lcCs56JqZjv89yckoRiS5y/5CCG6EPm3E133QubIGAqQPj8Ohzjl6GrSDTSgtIC4Hhgi2oWpg0xK/e77lX8v9EsNHMr0xihnBy78K/vL5Jn+IkwSZ84RSJqtxE6/M8JbK0P8+ub89YLFsVcJCIJcDlxaAbgIZDCR8dKke7s4XFmwMBtK5G1tWpBurHmgKW3HCnJlSGgZyUYJOGZeDiHRExYGoPMpJf/+NCTefWiYNzk7EGP3bZOV381xOho7wrw/mh+vh/X5x28eBv6zzg2PtsBwL3mDbUFFMHDKG/FhDMLgJsix03wstL37ccYQauHu2QhLDlOLEhhJSxvqXUFJkvGKj/9eL6jjP0shFIYRDxhXFoJtABgOJhucWY8UJ3mAgze8SHCtOngvVg22Ey+koLR6djp8cY/zvxxePcSHM5GGeQFJOLHM+dcWU+RNzh/qnzxmnPDDfk6sIxJKe/FxYhm6KP2+yfrjU1xgwodMeghyvpyA/F9rBDpSNIrJMQQUPelaJTCwPv9r6/NIOKaHCNRmalEky7RfYpUr4Xx81L3q/WZFIVspgJMu0bBToJpDBQKKxCkqhYjCQETMKjXRmwDbMmn6UloYbg2OMdksPXDRxrIciKg8tBxUmmJBr5hT86bJJY/OGWSnqpFLp0bM9pU6EmJLcfcLRBNKWHv5wv7j27dbVNaHehlcyftIX0zDnzIK4aFtQlAelkoaAzPA/P25/6r02SnBaeFOZrMQljo4qefSHF+qWbehQ5OxUwqIoD2x1kMFAwoeWpwAaAYDODCSc6VMmqKqSvp//qNHOx7551PRRCpKUwZtvhU7pvgvH/fD0MfKR5TadUSj95RzP5ByEpJGouiyMcLVffG9xy1PrfAeehE7cC1VVZk6bBO2QcihFo3IJZIkeJIqMl20I/uGlVoEwSRO7O1pCyREn2SnBnSHrnif2V9VpEsu62GiLR7o9BSEMMhhIpOkjKdydh6BiMJABcIu784SkQEvYhHFjy1iaV3gYk6v86dJJJ5Y6kKQexqeKMZKUOSWOJy+ffN7UxCzHjMuhj57tmZ0vkORI9j7haAZpI2zyP6wN3v5erS9sMgIFk+IZP3YMjOuUIzM8Kpdw2M0+uLbaWqX94pkmf4inV80hQgiT4+/mEsO79oV+/fdazRAky4Qw52JULpEZVHUBGQwkUAYrTuHMERyWVYH078ycRzqz4oSmsAllJUUZ8C0K3dKDl0w8Z4IbsYOssAiEMMWEXjUr7y+XTZpYmMgeWOQij5zl+VqxQLJjhEaRqb2317j25arqdh1ZsFu4DyVFhdAIKcep4lw3FiCDDwejuMFn3vN0U02TmY7uU8qk/puEFZksXtv2zLvNcpZtEhZc5LqxUwUZDDIYSOC4cucjSYbYNyAzujOS5EiXBmwiIPPzMuOLuBV279fHf3N6LqKyQDjej0plr0J/fW7Fj8+ucMqJ937nquT38z0XlgskqQKjZPmDez3iurarjdd0WCIRlZMzyRusqopDhXiTFDMqB0sMrJbDWdgEhXT+m+ea1+/SFCldtROTlbhIbhzN5P+nVxpWbwmk7/caln2DJBbp/NC3QQYDiRtXOaMxZQhSTQCZ0JsFpkzkjIaWsAOlRaNMM3N8iTIl9yyouOH4UYhQRFlUjkYtTUmZUaQ8dcWUi2cm0U/oYPjXX/NcNSmWMQsnKyj6QNIsISxTcJ74/FhpfqsJh7XiolEwulPL6GhoKKTIOgQRrYjxX970vb82IMtpLJwwxlK/SsKU4PZO47eL9vs6LZo1sdFCCJnh0bkgnUAGA4mDe/IxpIkGMubeTyj3gDfYFpQUj9IMI6PuWAR///Qxv14wdlKBKlFCCC50Sdccm/+3y4+aWpT0UHyJ4B+f4v2vGRERjjDcPVPVB0h5aRG0Q2rJ8RCJwRA4FLKEP1wXWLS4nbG0r7NLKGWS1O8Lks+3BR5+uYFQlD3uUYmRHA/0/MyBQROkXDUI1SOgYjCQKQjBheqJLoWDoyDFjCktlqUMnOQvPXrUhTMKq1tDBkfFHinfKY3cfI3QLce5vUrg/i8008IJTm0Y5xROjvs23YelLMtlIINTjUdFjBHDBNPlILY1xdUNxv+91BLWRWZkVKZM5qbJ+2axkRl6/oPm+cd6TzvarRkiC8ybSLf3qNDBQQYDCZtaJOH0IMiPBWQMnEe6NJXGn1EZ90rl0rK4Z8aftf+wx4w5tT7umX2rilN4TMmxzXHP1H1ZmMJjCqf74p5p3tK1H7i8rFhVMnMXpUzx5FGpycSGEfrPma5chdzzaTBsMUhhNcIQgiePHzv4CQSOScYxHuckAhskD9ZFMTJM8Yd/tuypMzJm6yzGmMmqHg7GDcZQmP/xxfpjJk1wKDgbLFmCkccJ3mCQwUCCEIxx1YNhgw2QOX1acNUjWMLmFkm1bHWMmqfZ6hhPSfBgMrhiTAn0xyQp4YsmObwyvnNFsANJyExE5PkBt6/oeebAht6EDc9MSENRDh071XidGLJEH/Q+wvCz77Yt/jyQYZV1YqHRZt+NNrKEP9/Wuei95lsuKwrrma+DuYh0fujkmdOroQlSjOzAsgJB0UAmqWAsKyNUWgY4JKUlEDuaNCWM0Rlj1UfPchUp6KBlnIDkkDH5z9NYBrsxFA0e2KaT8Ofbw4+92YYjZNq3o5KM+6VFYBQ98VbjpspQNhTU5Vx43SCDQQYDiRpRrhwBqVaADFPCmHBXDrRDapEk5nG7oB2SqoSPL1H+ep63wi2EpCammlF3waQoKOGlkkRGbNnHGHs9buiBqZTBLsIhiq2/SiS4ud2694XmtoBFSUZOeoTJ8gDfus146J/1hiVwpitELoTXBUY7yGAgUYLB4cEMqu8BmdSnEWZMODzQEqmltHi0pmnQDslmaj578lzPjFyOJEicMkIYhjEGsmSlFI8DQxBbP4mICEZ/fdO3fpeWwX5RyiTSr7iJIpGln7d//KVfzvQywoJHOj/0dpDBQIJQnIgwyKkLZJQOJizSsYGUMqa0GKaVkaHcyx4/N+fEQi6YQxwRcdWDwd02MIzR0mIoTp5KZAkLsFv6IjG8ZlvwXys6Ml4K9ncI42hWsMffbAyEeGbnThNIZPz1za67CTRBikeUpGJC4GYCZBKRLi2p/dON9mcwx/TP1ZzaY/rnak7tMT0JseJwqArGcLceIQod5M/n5Ny1vGPxPqcwQsNd2YyJ3z46GFJkDaA3JElV5EFOIHBMMo6R5sHqfR8IRoEQ//PrbYGwyPgtsoQyQim3rL6jEn++rfOdT9suPzM/rIsM1sEShf4OMhhI1ICSHbDiD2RctxYicSmyjDC11TFhn2KrY/x1zoNIBZjeRxSPQv5wZs7PV3a8VKkiIwwTe1KBvcEpXomAvVzx8y3+x4cda7aFJJYVi49MUnSrT5ECHE1t8OTbTWcdn+NxkkwtniSinR/IGCAoOtUoDkgTDWScCuZIgUzRKSYvx+tQIYPxyE7nFP/ya97rpxJBZYGI6OXOHcqPSFJmrNgPwYKmv6HudsG2i1TLYNDBPZqQ4j21xlPvtmGMsiQCh1BKmdSvV+CtlaFXlvkkRjLXvAEZDDIYSOCIAm8wkIk3CgEFk4CshGL8/07y3DFHQgQjYrvgOYxpnmTK6X/nL8iHXPQplcGUQFR095iKNMQTb/v2N5uMZtE+FCpJA7bGPz5obu0wSeYKYYmCdMocYE0DZDDQdxIf6Bc88JG4/zvxYc858JvjLenYnRVkMDBsSotHQSOkag65aY47VyH3fBY0EEPcHMYIiiXLSvjeYEzZMfmZEH9EKezPS6kMlsBy6UJm+KP1gbc/68y2zEmEUEIZt/rMb4zh3bXhJWs7rjgrP6xnYKijEGgg+Q+ADAaGN6JY2txMcPfPISRfH3F30GMOowZ7PyMGa9thdpDshBLB0oALtCL+NxENT48ZnRx1F+3s9Wv01QPP9xzDu+p8oq63o36PRa+Tdz/Pux53HcCjz0R/Ip+sQ0vndItCCAY3ipTbqTC9p3K2vGKa0yvjO1cGg6aELMMeditVrcAFpWYGtHBBQR50M8AGUhD5/Najr/s0Q2TJruA+EkKS9L4yGEdLCv1rWcs3Ts2lFNZKAJDBwOEEXLpUHeAImVwYXHRpNn5AAcb0Ie9WjD0v8egmt64HPWJS9Hmp643RouSxl2IS0Yr+IUt0/8sPPLYE4jzyr9X1FoEx/rI+0F/uEoQf+aIxR6Fm3Nm6P0Ovf3tJVnQordv1GHVv4es5ZgCd3OuYAwcfeDL2rXuqpMSpd5a2OlgggTH4alKM2+WCRkjl1I7R+RMdHoV8/6POVl1Gpn7YYRP/02u/cCI+EGGS/J3xbWUZ0S8YgbjEVGIYSFVA5CCJ4ldX+jfs1rKziA6hjBDKed+U0Qyv2xFYszVw+my3ZojMm9gNHSYAkMFAwq4ATQsVTDD+ybL9CsW8S9R1abneorHvkwOLxj7HDOg4RcO8s1IckY79J6yP9vqHdELc53/9nh/EwXjgIOgBToSj8c8ZmFJDRDs2kFK8HpDBqTeY5o2R/3au55YPO/cFFGSGUWpGO8aSQoX17bK2b1WYmdG2bjd075TKYIuriGb59mBKUEOb+dKyjmxekyGMcd2Km/fCGn/5o5ZTj3ZjnHlrJdjoWykKABkMHIFewCwtbiQYoT1tmhiMJuyn9Pof3v9IjBFBSRGEEoHSqSno19GOHWH8WfvjXutfghKOScYxsgxx6XZQwviYIvnp873/tbh9hz9aSOngo6b/Ewccw8P+80xBljknJ3x1RXhuYeZs1fvFq9eMPwsGe8qOMUyUiQpniAY0xW9/2llZZ8gse80MyiTLMOIqnkiMLFvfsWNveMpY1bREZk3pkc4PgAwGEgRJG6cZAz0JZGLHzlRcTqgoYxcm5rJnLsy7eXHb561OpAcPooJFnyDo6M/wU2RhjCUFm8YJuaFvjdXmFnAM8zeQOCIyOLtbgBLU1Ga+vLwjyy0jjDGh1DL7yODYlull6/wzJzgyTQYjkMGZZatCE6R4RFGovgdkHEJEOjaQUhjEpduJYhd54vzcM4o5kpK8PIEJlh0SIaflBx88PnD/saETCkEDA4mWwRbKch3MKH77s87dtUZWFUkaWEiwAW73hKAP17V3hjJu8sHRzg+ADAYAAABsi9sF3mB7kaeSRxfkXDxOCNkhMO6bD0v09f6K7meG8oMJkh0yRWcVdD58fOevZ4dn53NodiAZ6IbAWayDKUFN7eY/s94V3N0aFGPSf5lga2Vo9/5whi0TYIR1A3xXmQN4bFKMsEwkyeAQBjIKjIVpQDMAQBxOifz+zJzcT/xPb1OQqfWZ+UXfB0O6JxCCmeoQ4fmj/N+sMCZ74YYCJBd/SESET7a6xRjD764O7N5vSAx0cOSOH42L7hMhQDBqD1jL1nUcPdFpZFAqNUwinR+uOchgIEHwtLmNmFwkL0UWyvYAK+jYQIIJBEMupwPawW5IBP/sVK9X9j+43kKWhXpSy/TaEjyEvFiEYklxi9A5Jf5Ly/TxIICBEaEjwEm2htpTgprbrJeWdcBegwPzEGNWv7VvStBH6zquuWCUImGeKTMTwbgjAFE2mQM+7vRLoBVSSOji7wvVi4TdB5VAqMIr27xg0oBJvARCxhAzNOAjLZiU9cofExzucLz+AAzwFPLcX+7L8bqhHewJF+KpjYFffBbikVnPikxU3EKcR6dXE4mYQraKJk5zuHPFgDcIwjCTc0j43GL9knKj3JVdAjisad+85gfQkVLFHVc4L5vvCoWzMVmQIuFnP2j/1bPN4AruZWkJLRQQfa03LpBTIS/+fNKUisxJlOVQ2b8+Ctz/YhCueVrz8G/vHDduHHiDbYBpRcSQSAOj7Venl80sVHVL8IhYFRGDrVvWRrWriCnb3i/xbsXLRUziipiE7v1S1xujfyL2kkCRBxaP/iu6/+UHHlsCcR751+p6i8AYf1kfWF7TGVceSQjkksmp49yM4q4T8sin5eLAyTmPfaMDn+SAJu8W8Lw7jSvv1vyi+3N2S31x4AE6kO31wK+opxG6FgL6vFHEdwGJ4DReacbRjg2klGAoBDLYthCMv3uMO0chd60Mhi2MTL1XMLToNYPh/pmiMWWIygU0dGFp+0XlRnFWuvx1HbZdpJKOoMjObbEEo44gf22VH/pA31kJY0KEFV9AuDNkfb49MGOCI2MsgmgHgKCbzAFkcKoRFkY4LYYUidZM6jLI8IAe076Vfwf0isY9gw9zwCBbhjHy9w3NS6v8cTLYEiJfZT85taTAwaw4W1IMIPVj6pQPqIS71W8vZTvAk92CuefXPicZyPXdc0BU3kdPhRC677OGqnYtTYtURa6qABmcYsJhDRrB3sMEXTbVmaPS2z7saBcM6WbfgkkiYlcy1lsFYyphKhVJoYvL2i8oMwrV7G093QAZnEr8Qc6zUgtIDK/4Kri9RocE0fEmIqE8TgYjZJiiul4zTZEO7p5BwUWk88PlBhkMJMgSMg2RJl6/PhvWxME0qhiyhE0EFAtzoHtyrGUNSxiWsAYXbI1j+dNjMv9A7sMBLxLG/f4YPvhp0aAPphg/tq4pjY0MjDGkyEo1gWAIGsH+SvjsCuWp83P+631fA5eRcWDlQgiuuLyS4ozFGWIqIcrKpNClYwIXjDFz5KyXYf4A9J9Utn8YmSbHOLvye2KMTAu9s7pTM4QigQzu2zhkgBJ9jOL1u4JtnabHxTJAB0c6gMn9YbjaIIOBRA0qPSQgzYLN1P6gRf1h3MtHoOojtgVO53sF1kGDpZj2DgjbSw+76oRiadE38m98u6my04H0zmh8iMUUNa90XORlImFCKpTQN8s7F5RZbgnaDEVTNoJDJqXTi58bZtbVo6YE76nVV20KSeAK7gchBPVbFyEE7a3XO4OWx5khcsMwebsfJh+QwUDiZDACGQxknGkPMjjlWBbcqtNmuMwokF68ZPQvVweXVBFBqKI4PPmjJNUpTH2yS/tWhX5mkekE71MvWlt80AgppLGN66ZQZSKyyR1MCVq6LtDSYYEreIB5jGCMcVx/IBj7g9bW6nBxgZwBti7GWDN4YxvcW0EGA4lCC2FMYLs9kFlmPUEayOAUs6+2ARohjRjjZX8527uxjXzWzGoC1BJmkdo2t8A8vsCSKYaKcnGYFmQfSCVN7cIwkUPOqvsaCoT5io1BAmPxYEKYUKtvmAbGKKjxHTXhM+a4MaZp/w0RMsxI54eLDTIYSNCgAm8wkIn2AniDAWAYRtbRefzoPL2f6XVEcM63btv28ccfr12zZk9lZW1tbTAYdDqdpaWlE8aPP37u3Pnz50+bOpUQkkZN1Q57g1NKMCzaOkWOG6OsyZTFKN62V9tWo1OIiD74nT+6PQz3nX9EWOfRYnCcUZLmQh+3dYpgGGQwyGAgUYPKCAvY4wRkFoJzbEASiRTT4e/UNE1RFGiKrIVzvmTp0r/+9a9r1qwx+qZWDgQCO6O8v3jxfffdN3fu3JtuuumsM8+kND08Nm1tHXB9U4huiqY2Pr40iwQhwWjVppA/yCEi+mD2bNSp0y8fKEZtnZYZTVLK0twfTAhuim4HgIudOeMamiDFaEHETQh4AzLqXsjNSMcGUkpY0zncrLOYyqqqa6699jvf+c6qVauMQ5YXMgzjk08++c53vnPNtddWVlWlxbeDROipxbJQUxunWWNCxiKiV34FEdGHQOCBYhsJxrXNhmYIbvF0r7JFSaTbw4YMkMFA4ubWkF+YJqhgIJNUsDBNHII0xSkmFNayq5gJ0IulS5defPHFH3zwQV9THhcWFk6bNm327NnTpk0rLCyMC4ResmTJxRdfvGTJEpt/O9O0QAannAafhbNmSxcluKbR2LEPIqIPvVgwkAwmqKndNMzI3cg0ebp/wQYfiOCMAoKiU70OEWjHggtYjwAy6V4oOAm0Qzukltr6RgEyOCt5/Y03vv/974fDBzYmlJSUXHrppecuWDBp0iSv18sYM03T7/fv2rXr/ffff+XVV+vq6mJHNjU1XX/DDQ8++ODFF11k2y9omEZtfSNc6NSyv4nrupUlpYMZRRt2a50hDjL40DJxwOc6ApZlCYywaQlJpGs+HIyRrlv7m2AbI8hgIIHoIaFr2CkLAStMQGbcB4nQNQQpslLNvtp6VVWhHbKN5StW/PCHP+zRwIqi3HTjjQsXLszLy+tz72csLy9vbpSbb775scce+8tf/6ppGkJI07Qf/vCHeXl5XzvtNJsaLozVNTTBtU4t1fU8pAtFwhm/3IYRMk2xYXfYtNJ+d2uS7/4YDbQuEta4xaP7pbiweLomysIYh3RRXQ8yOKMAJ2Sqx5VpkrAfkkUDGaWDw35smtASqcUwzCAEjmYZ9fX1d955ZzDYtTO/qKho0aJFd999d5wGjiMvL+/uu+9etGhRUVFR7JlgMHjnnXfW19fb9HsK5IMUWammtoUHQiIbjBeMUUeIb9itgQYe7njtfWMS6dsNAiFR2wIyGGQwkEAsAwf9iMCFADJmUiGRLm0Z0BKpt1PBY5Zl3H///dXV1bHHhYWFf3/66dPmzRvke0+bN+/pp54qLCyM/VpdXX3//ffb82s2t/rgWqecoMb3N1s0C3JGUYor64y6VpNAgqzD6t2BRC6jB3YNW2mbKIsSvL/ZCmogg0EGAwmdNnDYjzFcCCBDwJjgsH/gmyEwsuyp3geNkD2sX7/+ny+/3HVrJ+T+++475phjhnSG2bNn33fvvT15s17+17/Wr19vw29aWw/rO6nHMFFNA6dZkC2aErRrnx7SOMTtDU8H95bBKG0TZVFKahq4AYFuIIOBBF8Df6vgsDEYyJTbILeIvxXawQ7U7KvTNB3aIUtYtGhRT2GkK6+44rzzzhvGSc4///wrLr889ljX9UWLFtnwm+7aXQ2X2w5UN1nZkCBLCFTZYBgW1PQ4fEMN+KQsYYIPCGTTTM/t5EJEOjwAMhhILLi9UVgmbA8GMqI3Y2GZuB2SuNqCuoYmA9aus4OWlpalH34Ye+xyuRYuXDjsUy1cuNDlcsUeL/3ww5aWFlt901BYq95XC1fcDuyusYLhDC+bhDEK6aKyVqdgLw8XRSK948m5EJbF060b4GDY2l0DMhhkMJDw0dXZigwdwTojkBHdGRl6pEsDNqC2vpFJkNQlK9iwYUNDQ0Ps8Wnz5k2ePHnYpzrqqKN6dhQ3NDRs2LDBVt9UcF7X0AxX3A7sqrU6gjyzc5tEZLDGK+sNqJR0+LE5UES0EEiVcdyuasNMM3cwIagjyHfVggwGGQwkfJLVgjjYjiFLFpABnZmQSGfWgtAUdmBfbYMsydAO2cC6det6Hs+fP/8Iz9b7DHbbHqyqChQNtgkdQbGnzmIZ7SclGLd0WD4/x5Af63D3/wGjooVABV4mMdz7NcviVlolymKU7KmzOoKQ9ARkMJDwmcPQSKcPEXDaABkwo1DS6cOGBi1hE3xt7dAI2cCeysqex9NnzDjCs02bPn3AM9uBcFgLQCUwe2BZYvveDE8WjTFqbjcNi4MIPhxCcN4/RZbFxYQSWZVJnEa20ipRFiV4+17LskAGgwwGkjHP+lugEQDozEDCqdlfD42QDfh8XTWEVFUtKCg4wrMVFhaqqhp73Npqrz0OTS1QLclG7NxnhXUzg3cHE4x8fm5AMOygdLDov7+PEOx1s/49JI0SZWGMwrq5cx90ApDBQHKgLbUIkkUDGQC3Ip0ZsA17qmssDnUOMx+zO0c0pVSWpCM8myxJlNK4M9uE3ZV74XLbh23VZmdIZHCWLIxRq98yTZHlaUxFFC4459yyLLPXD+/GsuKlbXRjMKkokvuHQKdRoiyMcWdIbKuGfJMZCIMmsMVqRFu90IJIUpEAgxVIX3uBCC1I2sD9aCO2bN+z4IxT3W4nNAWQAYQ1beOWndAO9qGpXVTX82MmUZ2LTJXBPr9lWkhiWSh9UVTzRiSuJDFJkhhjEqOqqrqcDoSwiL4cDIdN07QsC1lGMBg0DJMQwhglhAiBPE46fZw6YDixYQqWDq3KKK6u503tEBENMhhI0jwb9pPOVlFYLkyQwUDadmNKsa8Vh/3QFPbhqy07FAWyZAEZAkH4qy07oB3sg2GK9TuNY6coyMhM64VzFNSyUf8IITDGJUWjJ42vmDJp4vix5QV5ubk5OXm5OR63kxAadRBzi3PTtAzTDAaDjU1N23ftbmhsqqtv/HLjVy2tPl97YOZ4xe3AAy6SRBNlEfvvLaeUrN9ppF12awBkcPpgGritQYyqgJYA0lkHE9zWgEwDWsI+BIKh5lZfSdEoaAogAwhpWkMTZB+wFxv2mMGQRQhOm72eQxWEPOsqWsZCoH9w03e/dfGFqqI6VAVjzEXsPxF3obtD4sWkCeNPOXEu5zwQCPjaOnZXVq1cve6oUbWq0moaYYRp/52YlsmpbOsEsRjjYMjasAciokEGA8mENu/nk2CpCUjvOydt3g/NYDc+WbP+4vPmMwlmeyDt+WL9ZmgEu7G12mzusEryqZmJGU5EdBdrtl1T3TAuOOuMa6/6FqHEsrim64MXjQhhp9OlKOrowoITjz9W10I8XE38n3H/BsQ1hPvciUxTSJKt95ZTghrbrK2wMThDgRRZdgG37hd6GGHIyQ+kaQ/GQg/jVpDBtmPj5u3hMJSwAtKecFj7HGSw/egIiC1VFmMZak8KZFrCsixN18Oapuu6ZWV4QlPOhcftvuaqbzGJmaY1JCe/6PYVM8YkWaaUYCJZ6iQ+6t9x2fewawoSRu+iStFEWbZeZWCMbKmyOgLgpspMwD9gF6jfR/zNIr9UWLDmBKShCiYUtzVQP9QysR1btu9WVAXaIZGGcbeph6Ok8CTZZa9I7KutkB/LjqzfaZwzV8H9i8amPRYSwu2QJlaUzzhqnNfjbm71bd+1p76xyeJckqSMHLeGaZw195Sjp08xDPNIJkmEkCTJlLJQKGQYplDG4+Lrse9d4Vse7Sm4+89x266h4KhQX78TtnqBDAaSPtnqpGWfVViOQAYD6QihpGUfsnRoCbsRCmv76hrGjy2Dpjhyli5d+uOf/KS6urq8vPz3v//9rJkznU5nxBoeio5dunTpzbfcgoS4/PLLb7vtNjVKT4GiwWOaZmNjYyAQoIwFQ6HYk5zzyspKTdctc5i3EspY7f79vLvOVjAU2lNZaZmmy+UaPXo0S11q17a2Dl9bB3RCG7Jup9Hu5y4HFhmTL1pEXb5ysemZ893rp14jlzkUmVs8rIX9nYG16za8s/TjNes2WpwzllGGtBCIEDLvpLmyJIc17YjPJjDGTqczHA5rmiaQhPIvIcTNW96MhqPiaKIsYXFhz0RZmOB2P18HMhhkMDAC0Lrd1uQToB2AtIRbtG43NIM9Wf35hvLSYsZoGtpkouffA6ZJVHMeoQdVHCTRyyFOW11dffMtt7S3tyOEampqrr322scefXT69OmFhYWyPNh03L1P8vgTTzQ3N996662lpaUul2vwSphz/tprrz3x5JM7d+7Uoqaq2S16Q6HQVVdffeSN03PCL7/88owzzkAIKYoyefLk66+77pJLLiEkBd6bLzZsgbFsT2qa+NZq8+SZiqZnQMAwj2hgqQjlnUNy5mLq8WKEkRVLDYUJZpSef/YZZ5528ocrP3v6hZd3VlbLQ1wIs/eUy3NzvCfMOdo0E+mSUVXVsqzIOYUQufOJ3sg7PkW4q8K5bRNlSYxsrdZqmqCGC8hgIPkQXz0KdGCnR3ALWgNIIzChKNAR6cCALdmwecfXzz3DzdKmerDP5/t42bJPP/20uqpq+YoVsSenT5tWXl5+9tlnz5kzZ8KECYwxSulQ9VhVVdWyZctWrlpVVVW1adOm2JOnnHJKeXn5/Pnzjzv22NGjR8dO29+u3bVrV0y+xggEAp9/8YXX6x2SQ/jRxx7rfZItW7dWVVfLiiLL8iBlsGVZ//PjHz/zzDMHOyCx9qsQwjAMhJBhGOvWrbv5lltWr1nzm1//ehju6yMhFNbWrtsEY9mmwpGjTzbrJ89M/80XwkDEhXNPw/lnYakgGhRt9PZwx8ZpOBzGmJx/1unHHzPrgcefXvzRCkJwStaGEo5pWjOmTC4rKbZ4grWfqqqBQCC6+khRwQU4vFvozdH00bZOlPXJZp2DCgYZDIyElgi2k7Z67s5FIIOB9IJQ0laPg+3QEvZk28496VI92OfzPff88488/HB7R3z465atW7ds3fr+4sUIoblz515yySX/dumlqqpKkjQYSVZVVfXnRx9dtGjRAIbOJ58ghF588UWE0L9deulFF1986imnKIrCGOttmW3dti3ujeFw2NfWpmlaLPZvMN/u73//e1/9wAOdnYHOTtM0B3mSxx9//BAaeAR45plnxo8bt3DhwhE1VhiFisF2ZvVWw9dhup2Ep2tctEDCRK6ZpPAS7Bgf/XXgUFhKqcvlikb5hvNyc+750X9PmTj+L39/3jDNEV4bSlI7nHz8sQ5VPfKI6P7tJkmSpmkYWYLmY88JqOUthGgsUZZpCYnZSwYTgn0d5uqtEBENMhgYKWj9bl4+DdoBSDMwpvUQEW1fDMPctbt62pSJNv+cS5YsueW//7u3s/RgrI3y8ssv/+qXv5wwYYLb7T70Dr2HH3nkN7/5zWA+wyuvvvrKq69edeWVd9xxR25urqIoh3DycM6tqHwd5Bdctnx53DOlpaVDSsTa1tb2xJNP9vwqjZ4klU4fkcxE2KjdYjTuiv3yxJNPXnnllbm5uSPWNxobWwLBEIxl21LbxDdXWacdzcJpGRfNI2Mo50w6+t8QdR5MAPdGVVWMcTgcJgR/+1uXFubl/e6Rx8JhLa2VMBfC5XQee/RMKzkOUMaY3lV7yUKuGci3NNrUOOoQ5pLNEmXJjGyuMmohIhpkMDBikPpKFPIjSY3WaweAtNDABIX8ka4L2Jg1X341afxYSZZs+wnvuvvuOE/pYVm3bt1TTz99/XXXVVRUeDyeAQ1Qn8935VVXbdy4cUhn/scLL0ydOnXBggUlJSWKcqhQzyGJ2G1bt8Y941BVQkgswHswruANGzfu399VlkydcGLRLa9Rz6iRuF9gYvkb6x++RKtcgxDav3//xq+++tppp42Qdc7F6i83wii2t4JCn2wyTj06DfNFC0tghYy6iOSfhTAejAaOoSgKxjiaBtm48Jz5Dod6z/0PpLUSFkK4XM7y0hKenKJQsfiayJwpBKK5mCjC0u2ZKAsjxFGkS3OolJTZsguawF7Xo6ORtNZiCssTQPqoYMpIay3paISmsDMfrlxj57v5TQsXDlUDxwgEAnV1de3t7Xwg90V1dfUwNHCMVp+vqbk5HA4PSegemvUbNsQ9o6oqJkSSpEFuLGxsaOh57JxzMcstFkZImFrSf4wQyy1xHXtJz19vqB+5XACGYXy0ci2MYpvz2Ra9uc0kFKeXBkYsh5RcRwoWRH8d2oqSLMuqqgohwpp25ryT77z5RsYoT9u9pJzzkqLRLqdTJG0po3uxTwhMEctBvWZX07RRuxGKm9vMz7ZA8QuQwcDIQvfvQFBDEkgnHYwjnRawNy2tbXv319nzs911991vvPHG8N5bXl5uGIbFeX+x6vP5brzppuFpYIfDUVhYaBpGAjXwgIwaPZoQQhkbpAzubWFjQsUIGtyCc0zogJ8k2bR1+Cur98Eotjn1rXz1FkNmaWRYckScuPgaknNctELScAa7EgUhpOnahWfPv+k/r+6fhT5tmsPiY8tKFUVO0sfvUyMdM8S8vds8ur/ELu0mM7J6i1HfCoGZGQ54He23MtGwB4U6kOxAkJwOSIP+SlCoI9JpAdvz7gcrrv/2ZQ6HaqtPtWjRogH9wGVlZbNmzZo0ceKUKVOYJDFKd+3atW///u3btlVVVzc3NxcUFCw455ypU6fGcjX3l5F33X33gBp41qxZkydPnjhhwrjx4xmlwVCovq5u586dW7dtq66uDgaDZWVl3/rWt4pGj/bm5EhS0sPIKSHyoL3BfYXpiF+tVNiohmm9t3QljN+0YOkX+tnHKYSgdJCBXCBGiq4k7lmIH5HTT1VVzrlhGIZpXv1vFzW1tP7jlTckWU47hwYXvLysRJHlhOfH6q2Eux9RTPu4naN12oQkpb7ZMEbBMF/6BbiCQQYDIy8rOppJSy0fM0VwGIGA3cGUkZZa0tEMTWF/ln/6+cJrr7DVR/L5fL/ul7mqrKzswgsvnDp1qsftzs3NzcnJcblciqIcd9xxhmFomhYIBDo7O4OhEOfc43aXlJZ6+20MXr16dX8P86xZsy684ILy8nKv15uTm+txu2O1jjjnmqaFwuFAZ2cwGAxrmixJhYWFxUVFse1/B/v8OV5vRL4eWfwOxniQG4MTO3aj2yDTYLEVY/ThitUwftOCdTuN3bXm9HGSbti8a0X0Fy68iOScPPjNwIfA4XDEqm1jjG/+7rdbfW3vfbg8XfLz96hQWZLKS0uT/Ve6H/Ho6kOfec80uSSlPppAYmRLlbFuJ+SIBhkMpAK6dzMvmwLtAKTDnTPSXaEZ0oJQWPty45YTjzvaPh/pueefj8sLPXPmzEsvuaS4pKS4qKi4uNjr9aqq2lNTl3NuWZZhxPwuZsRuk2WHwyHLcpyM/OMDD8T9rXMXLDhnwYKCgoKy0tLCwkKXyxU7bcwNa1mWaZqxM1uWRQhRVdXhcBw6AfWoUaMkSSJpt40lGtvMQx3UmSu4aXPP3Z7qfS2tbTB+0wLdRB+uM2ZOsL38ExbOO4cULojGQicAjLHD4QgEApxzWWJ33HzDvrr6zdt3ypKURpdPkeXS4tHJ2+/QJ1xcGNxoiZPBFheWJWiqt5cTgj9cZ+gmDGiQwUBKZHDdTsPfjF15AgoIAzYGE4r8zbRuJzRFuvD+h6tmTpvscjps8nneeuutuGdOPvnkwsLC8jFjxo4dm5uby6KbZnskbqzypKIovbeQ9Q8n9vl8y5Yti3vyzDPPLCgomDhhQlFRkdPpjOnquDPHXDo9du1hPbSEEKlbog8PR7TsygiPWx7wNT/33+Hdn7jnXp5/6a+QjWNYNU1/892PYOSmESvW61edqeS6iWXbHLvCROpEXPiN2C+J005EVdVgMGiaVq7Xe9sN1/zwp78Ja+Hh7HdISasIwRjzejw8mbNB9wSLkbCQ0d4/lMY0eWpTbVOCm3zmivUQj5kVQIosW6qLcIDu34GZBE0B2LqjMinSUcMBaIp04YsNW2xlk23olzm5qbFRVpSCgoLc3FxJkgaMFsYYk170P+2OHQPkbGtqasrxevPy8mIauL/KjT3Tc9rBqNPY8YPXsdXV1XHPlJaWMklKhhLGTMGyE5F4gxJLaufq5wNfvmK117cveSi8axWmUd8doVh2YqbYy0YhZOXqL2HkphH7mq1VmwxZsq15KRBRyahLMHUlfFNAbJEOIaQbxnHHzLz2qm+aVjo5MyglXo87eXmqeK9chliEELLivMERGWwJntJVOVkiqzYZ+5rBC5UVgDfYrhemZkt44nEoTRJNAFkpgjHXQnLNFmiJNMKyrA+Xrz53/ilMsunk/9rrr7e2tu6dN2/a1KlK1FN6wty5cbo09uAQ0nFAM+5Pf/7zrl27Tj/jjOKiIsqY2+WaMWNGnI4djAd4COa2EHGPq6qq+tmdVDkyf/JAY5NgQkObFxute52zLqDeIsR7hfdxK7xzVT+5yayOhuBX70j5Yx3Tzxbcssm24TVfbjQMiE1MM97+NHz2cbIsYW5Dh7Awseck7JqKRFL6laIopmnG9m5cfvEF6zdtXv7ZWkVOg03CAiFZllxOR5JkMMbY6lkUwBSFKhEP9ffGxRJlySlKlEUI9gettz8NwygGGQykVGI019DW/bxogjAhMAOwZRelEmneg5troCnSiyXLPj379JNsMvXneL3tHR1xTy5fsWL5ihX9D/Z6vTNnzjzxxBO/dtpps2bNkmX5YG5bt9vd/+2hUOi1119/7fXX+780ZsyYGdOnR858+ukTJ0yIVfEdqh6O2Y5CiC1btnR2dq5eswYJsWrVqlgJ4s2bNx/MNMQH8WkP146jGOPW1+5pe/c+hIQ64aTi297EsrNL1mLCg236vq+6RLhnlFQyFQkutM7Gx64M7/kMIZx7/p35l/xMCIxSvStHC2vvLoEc0enH5krr8+3GGXPUsGbZTusRF847I+qETJbY694kLFRZvvX6a3bsqWpuaU1toO8gZzC3y0UpS975LcsSQkSmVoyQXoe4icgACwSWyVGKoglkiXyyKby5ElzBIIOB1GoMIUjVV7xoAjQFYFtI1VcYohXSjZ17qv2dAZukML3o4osXLVo0yIM7Ojo+ifLHP/6xpKTk9ttvP3fBglimqzgZOWPGjLFjx+7du3eQZ94X5f3Fi9Evfzl37twf/ehHx86Z43A4Dp3AOT8/PxgMbtu2bePGjaZhrFq1ytfWtmnTpmHYzQlrUMqQaTS/8IOOFU92Kcm968zWvXLpDGHx2H5+vbnSbO1qGalkKvUWIYzN1r3a3nUxY7Xt3XutzqbCKx9ATEJWKj2xhmWt37QNxmzaIRB681P95OkSxjYLaBMmch2N1bGJyow18CikVJZlTdMM05w4rvymb1/1qz8+0iX/7C2DvW4Pi8h1kaTzxzJpR2PJwii8G+GBlwZSlSgLY6Rp1puf6mDWZJEdC01g3yWKfVtwRxOmsFQB2A5MGe5oYvsgIjotef+jVZpmizCThQsXer3eYbyxrq7uRz/60e233x5zvZpmvFr72T33DO8jrV279sorr3zkkUeaW1o0TTtE0tTW1taf3nPPT3/601/96le/u/feFStXDkMDJ3RUyiLsb3zi2z0aGCGkjDuOFVQcyLZImb53vbCM7lePx0wRlskKKpRxx/W8y7/ib41PfFuE/F3bhlMB53zJ8s9gtKYpa7foW6otWbKbC5Rg10yEpWSXwFYUJeb+1XTj3PmnnXjsbPvH9gshPB4XZTRJKxeWZXVNp5gibZ/QahE+qAYxzBRsypAluqXaWrsFYjBBBgN2UBpaiFZuwMQudxHcP5UBkLWdk9BI59RC0BTpyHtLVxJqi8l//Lhxzz/33JQpw6wP99777998yy3V1dXt7e2GcaDGI8b4nHPO+dMjjwwYHT0YHnr44V/+4hd19fXhcDh55UPy8/MRxiQRG5KxpJjtdfV/+mZg3YGob3XSqaNveJYofVIBhfccqMGrjj8h8pLgRHGNvuFZdfK8npcC616v/9NlZnstlpQUyWDxzvvLYLSmKYaF3lylcS7s5AEViDqwc1I0M1OSb5EYq6oa05aKLF971TedDpVze3sZBZIYS175N13XD6SJ7tyAePgQRqU14omyMI7MOW+u0gwIiAYZDNgEVvWVCLTZRAljjBglKiMyxTRiuoEqzl4NLAJtrOoraIo0xdfWsfjDTwzTtMGsgmfPnv3G66/feOONRUVFwzhDVVXVY489VlNT09nZafVKysoYu/DCC1977bXzzjvP6XQO48yvvPrqe+++29jYaBhGknLGFBQUxAo1DWMrcl8NrBp12+sf+kZ4x/KeJ13HfKPolldYbpnoCWzGWGgBbW9X4mWiuOQxs2LZs4Rlstyy4pv/5Zp90QHBvHNF/UMXGXXbsaSOtAa2rE/WrKttaILRmr58vF7bUm1IzDZ2phCCuDHLHZn0byxKLGv0nFnTzz/rjN5LdfaE967rm1BihdmjsxzBVhsKfHXoXZmxRFkj+d0lRrZUGx+v12DkggwGbKM3Aj66b6sd4qIxwg993nj/Z3UvbW39vC7QGDSChiAYOxhRKJYIpgSEcdZ0S8oi3TLgg6ZIX1549R1kD88EpdTlct1x++1vvvHGww89dMUVV0yfNq2wsHBIenX79u1NTU29vA0RZFmePGnS/ffd9/Zbb911110XXHDBtGnTHI4h1Ex+6umna2tr/X5/zCHs75fNKwH3YIwZY0ekgamkVa6pe/DrPYmvEEKeedeOvvFZ6vAK60CAHybU9O03G3d3memjJrK8MT3x0sLSicM7+oZnPfOu7XmLvu+ruge/rlWuwXREC/hZXDz70pswTtOakI7++bHGObKNQ5gj5j3YftRkoHZXBRdc/Mc3LykuGmXZu36SSJq/2jCMnoho3PmFMFoOERHdNQmMYFx01BUc6a4hCIjOMmDfqe2v0O512rhjEJVSW76CYLSipnPZXr9EsESxW6albmmMRx7rlcblKONz5VFOySNTj0wIxtEFRcQF4khABqWME8FEaEG2ex20RFrja+v4eNWaM+adIDFmEyWsKMqCBQtOPfVUf5RgKIIZ9cTW1NSEQqGWlpadO3d+/sUXwWAw7gwrVq4sLSvLz8+XexUfwhjLshwrFPzvV1998UUXdUYJhUKapsXs0Z07d3LOa2trt23f/sUXX8SdtqamZv369QUFBS6Xy+FwbNi4cTBfJz8/v6CgYMyYMU6ns6yszBmlvLycYHzTwoX9zC98JK5gjImldTYt+p7ZUt0zQvMuuCv3G/+LkBBxCa4I0/dv4mF/7Ddl7GysuIVxYGtD5HjKCv/jzyynxJmpyg0AAF+NSURBVPfO72I3HbOlumnR90rvWEpdBSMkVrhYt2kbuIIzgGXrtU2nKUdPlHVbRJriaJcWIzmzxXJlmZY1dkzJlZd8/cHHn7ZvymiMkuQL5pwbhtHtCm4X7asGs8duJBNlSYxu3K0vA1cwyGDAbhBfHanZJiYdy40Uj0+Zdu0OtgRqC5stIXNDQxBhzAhiBOcqtMwjl7ilcV55Qp5S4VXyHTRXoS6ZxrRwRBhH7RvQxendIZmEq74ivjpoinTnn6+9f8a8E+xigGEsSRJjzOl05uXl6bpummZPNPJxxx1nWZam64aub9m69c477+zs7Oz99h07drT5fB1+v9frjbMyKaUOh0NRlJycHF3XDcMwo2U9Yxls58yZY0TRDePdd975v9//Pu6Dbdu+/dhjjy0qKort9IvD4XCMGTOmIMqkiRMdDsfYigpKiCRJShRVVeUojLGkmL8YCT1odTQcGKGqx3nM14mkcq2z/xqWtmdNz2/KhBMHsEW5RRS385ivt3/0Jx5s77JHOxqEHkTuEZLBpmEsevENGKEZgG6glz8OzxjPbJIyGvNgRAmPoHdaluWYI9QwzG8sOPOtxR9W7q1hzKa2d2S+TcJlOpBrEFPk/0zojdEsZYfHMPkIrBpgjCzOX/44rBswZEEGA/ZD2rFaK5+CqJxah3AvuyvqwYiu68VKI3CBWkJWYzD4RT2KPS0TUuikxW6p1C2Pz5En5iljPHK+SvMcTKUH3sWF4CCL0whMhBaQd6yGlsgAahuaPl2zft6Jc0jqvBOieysa7ia2oU5RlDi3hBCCc25ZVllZ2fXXX//AAw/0fjUcDuu6HgqFTNOUJKmnim/PaWmUmPXZ+8yx08bOfN111y1fsWLNmjW9z9zZ2en3++PCrWNMmjTpuu9+1+VyebzemLtYjUrfHt0bk76EEMbYEe7+PWgDck49o3POuKn19Z93ydhQe/3DF4/67lPOWRcIPdB79ApT06rW9ixoKWPn9K8MjGVXYOPbTX+7tkcDI4S8Z9xEPaMFH4kbkMXFlh17Kqv3wQjNDJZv1DfsMo+bImu6lfL7FzLbuFZHnJOQGKHMCCS6KBbTgXm5uV9fcOaDf33KthcrKlYTbJNZltW1KRozbNShtuUI0UG/V3AhSJKj6mWJfrFdX74R4qFBBgO2hPhq6d7NfPIJKXcIH0wVx5bTek9VFhJ1ncY+vyFQMCqbkYPhUQ5plIuVe+SJucqEXKXYLRU6WJ6DSlE5jaN+ZktAHLWNuyKTSOU64quFpsgMnn3pzZOOP0ZOhQz+3e9+9+BDDyGEbrj++ltvvTWiIVW1dzxzf9EYyyYlhDht3rw4GRwMBjnnhq63tLTcceedy5Yty/F6/+d//ueiiy5yOp2SJMXO1vvf3qeN6WFVVc84/fQ4GRwKhQzDsCyr/8SEMVZUtaSkpLy83OPxxERvjJjo7flDXfsDkzO1CW7mXvhjLDlaX/mJiOa7svxNjY9dWfgff3Kf/B/CCHW54Qjh/ia9bmvXvT9/jDRqQp+oaYyx5Oj8bFHzopt7PMmY0Lx/+3Xugh8IyxiZ7cHcsp587hUYmxmDYaLnl4RmjmexDVMptlZ4CAU2I+dRI/lXZVmOraOZprHgjHn/fOOdhqZme4ZGD7jed0SzkxDhcDh6ToyFhVreEWb7IF3B3YmyeFLLbhGMNZ0/vyRk+4JWAMjgLEbaviY8ZjqSFJs4hAejjSnpk4nC4Ghfp763Q/+8rmtfn1ehBQ5W6KQVXmVSrjIuRy5ySaNdLFdlJOpS7vEYJydOBxjqRSUi1CltXwMtkTHUNjRt2rbzmJnTKMEp0cAIocefeCIQCFx//fVlZWUul+uw1iHG+PU34iNmnU5nzK/73euuixXvbe/o+H933cU5X7BgQWFhoSzLhz0txvjFl16Ke15VFM55zDRctiy+fg8lxOVy5eXluVwuQkh/jR33J5LSmkIIS8857w7iKWx+7lahRyZYrnU2PX291dmUc/ZtwtSQEJgwvX671dHYZZqPmUVc+ZGXej4cU9o/eKD15bt6qgpj2Vl49UOeedce0NLJZ3d1DbiCM4xPNxvLN+jnnqCGtJQ7hKlo/0TknILlQiRG6MPEHMK6rlsWLx416rwzT3/yuZdsKIO5Zfp8LaZlybKcKDGsaVpXUXfMkP9T0bkx8mAoWKZAyVx/U2Ty/prwp5shHhpkMGBnAdLewPZuMqecJIx03cEfEcYY9575gwbv1LXKNrS2NiiiujdHoXkqHe2UxucqE3Plcq9S7GLFLsktU4ZjIdhdHmMEwnjkryCT2O4vcHsDNEUm8dTzr/3+55OoIo/kH33673/v/eurr7128sknS5JUVlbWk1t1QHw+32OPPfbMM8/Ei9Xou6qqq2MauIdnFi2aOnVqLFHWoe3Oqqqqu+6+u7q6uv+ZDxHP3BN0PbyY51iCLnMgV/OQlbAe9Jx6LXUVND51HQ+0RvNdGS0v3s5DHXkX3i0sExGqVX1+4HuNPwH1KsWHCfW9+SvfGz8/YLu78kdf+6Rz9kUxXT0yhDTt7/94HUZl5vHsB+Hjp0oeB7ZSvA+KIKPZbP1IKr5iBKoH9xBzCMcihC88Z/7r733Q3uGPLZzZRQNzbhm6z9duGiZyJOaclmXFvjXCDOs1qOWtbmNwKCfhwrI4TU6he0pwS4f17AdhGKEggwG7Q7d/ZpZPQ4qr/26uNIX0jaNGCHXqvEOzqtr0z2oDQgiJkhyFeKNZqSfkKuNzlTKPVOqWi13MwUisSlNsdzHGCEOxpuReLYqC7XT7Z9ASGUZl9b4tO/bMmjFlJB3C7e3tfcRPKPSPF14oLi6OhRb3LyAkhKiurn7zrbeee+65/koVITR9+nRKqaHHb+7aunXrO++8c/XVV6uq6nQ6+9udQojNmzc/s2jRG6+/3j5QPaQpU6b0zj7dmwnjx8d2HQ9eAFdUVMR9fotzPZq2WghxhO5ioQedsy8qvuXVxsf/w2yt6Wrq9//gnnu5NHoS4pZW2Ss/1ri5PbcSTJnRuLt98YH0YCy/fPQNz6qT542kBkYI7dtf/9WWHTAqM4+d+8w3V4W/c77LSrlDmFDRtsryzKWu8SO2Qzi2ocMwDNOyKspK55968ktvvK0qik2ujhDC1MIYoWAoGAgGc3K8CdHVwWAwusBHMA+ippeF2TFUV3AMwxRJ8p1LEnlzSWDnPoiHBhkM2F+G+FukHWuM2eeITJHBhxPGWCDUofG2sFXdrq/aH+BCOBhxyzRHJmO88vgcpSJXHuOWxnjlCq8cE8NAksCUSTvWEH8LNEXm8eRzr/z+F3dQeeQKw/ZXg5988snOnTuv++53582bN23aNEmSCCF7a2oa6uvXrF27auXK5StWHOxs+fn5c2bPdjgcxcXF/V99/IknVq9Z85/f/vapp55aUlIS09hbtmzZX1u7ds2aZcuXxzmQe3PCCSeUlJTk5Oaqqrp27dr4QYExiRZEGXzh33H9vrjg3OoOuk6AOasH1cmnFt/2VuNfrtZrN0fdMDKiEsKYB9v0mq6CT9QzSiqZEttIjGIZC6mEaVdEgFw6Y/RNz8llM0dYA4c07W/PvQrjMVN5eZl2+hylfBQ1zNTu7SJEdGq1/3CM/2/M3CMWGh2TwbHHZ5128puLl3LOsT2sFlPXedSwNEyrta1tTGmJdcS6OhQKRRNuEYw5anpFhHYhPMyYIysyRZKEJ8qSGKmqN19eBkWSQAYDaQLd+bk5dibKLerZu5Xh0is+81ZMGJttYVTZri/b60cIOSTiZKTQybhASr+wmZhpySimBAsOe4yHrYEl3FpHd34OTZGRVFbv+3zdprnHzozlWB4Bvva1ry1atCjuyaampt/dey+6996hnu2yyy5zOByFhYWTJk0aO3bs3r174w7YuHHj7XfcMdTTOhyO8887Lycnp7Cw8GCh2kMOhx7oyATnpNFDcum04lvfaP3X3Ubjrpyzb5MKKiIGbtPuHhexVDKVeotQd+ZnwU2poKLgyj+2L3lQGj0p/7LfsoJyoYdGshNanG/fUQmu4AymuZ0/tzj4//7dk/LiSZhIOLQjvP9fjor/RIggNBKyPJYuProJwpw6eeLYspLdVTWMpX6HsGUalqnHZjPTNH1t7fjIIoNiGji6JRhHzLjW90TH2sGnxRrohCjhibJwNPvMc4uDze0cxmY2Q6AJ0kmN6EG2dWV0ys5Sv2e0GhNmBMsUq4yojHCO/Drf7dOq2rT+UzfBKGTyrxpD9Z1GQI8YfbF3yTRyEhot+wQu5EG0OmdbV+KRdQ0BI8kjT/7D4iNnDSxcuNDr9SbkVFdcccWUKVMKCgqKi4tdLtfP7rknIad1OBw33nBDcUmEgvz8Q9T5PEJ/zu49e7hl8YQ2vjA0mls6+vpFpXetcJ94lbAMhInp29+zfqqMOx4zpXdlFGEZ7hOvKr1rxejrF9Hc0pFPQmEa5sOPPwcjMbN5d7W+aqOmyKnXfkySjZblWv270ZWpkbACYhsoopn8hNftPmXusaaV+ljciCzXDwx2wzB8vjaCyRFq4KjfGyNMcPtHwrcERU54RI1smgleOFFkumqj9u5qKJIEMhhIK9jeTaRuD5ZkaIruW0tE67LoPuEB+jfGLSHz+0v2Xvrq7u+8XfWDJTU/X1n7xIbmDyo7treEm0JGyOSUYAcjCsU92hiCq/u0sCSTuj1s7yZoigymw9/51POvhcIjJH7Gjxv3y1/84ghPkp+ff+ONN5500klFo0dXVFQUFBQwxs4555zLL7/8CM88efLk2269ddr06WPGjCkrKxtwU3ECzdBwdG9wos9rCkuPGKXRXNDCMpSxs6XREyOzosPrOvZSxONN8OiRIvIuPtLWuabp/3z9/YYm2HOR4VgcPfF2qKXdpDTFd1lCCKU4tP9lre7NqBIeCWNYluWYecEFP/WE410OR2rrQ8a2BPd8Boyxrht79+0ftg0Up4FJxzLR/Hbs3Ec8TwrLSthaIaW4pd184u2QBZ5gUFXQBGkG59Kmj7TCMZhJgsMIHhQmR37Nag+bW1siMz4hWCKYYZyr0mIXK3JJZW65PEca61GK3ZJbJl6ZOiXSU8A4m4s2YUKQFpQ2fYSgs2U67y1decHZp1WUl45Ev8L4sssuM4z/z957gEd5nvneT3nLFM2ooS4hCSFA9GIjGwi4YOMCdmxn49TdbHLOXmfz7eYke/bst1e+PSfZK7sb27GTOMWO7cSOe2xsbNO7qBISCIEEkkAd1Hub8rbn+a6ZVwyjghBCqN4/K0SamXfmnWfmud/7/zx30X767//e29t7q4dbrdYNGzbce8890TExUbNmJSQkREVFBUo6P//ccxaLZXA16RFK600PP5yZmRkWHh7v3woODQ290VZwdEzMqGtEB5AlibM7Vjw34GQzQwhPiP3hLu/l41LSMjlxKdfV4R4/vvT0urZu3w9zcCZQXmd8cEj5h6dszJjgJsKiSHWDees/41yzxD2JML3TecJmR3HGmKEb8+akzE5MKKusnsC46EBKcGD26wYvulThVRSM8Sgkutfr9WtggjAnHft5+z5/9OLYLDGMVaEs7E+U++CQUl5nwHwEQAZPPUhrrViWpy2+DzHI7B+hz30tmrrPBvoErc55s1trdGmMe8zwaYqxTcSzbEK0VYyxi0lOKTlUTHRI4RYhVKahct/6NfdfLXzaGHE+7ZUxFcWSk6QV2nhOfwzD+PUf3n3u//5IHpfmSZTSr371qwsXLvz9K6/s2rVrhEctWbJkyeLFCxctioyMDHU6o2NioqOinE6nWVLLFNiSJP2ff/u3zMzM1157rbCwcIS6eunSpYsXLVq+fLndbo+MjIyOjo6IiLDZbAENnJ6eHup0BleTjo6KEgVBkqSR7xU/++yzwc2HIyIiEhISRFGko9ttvhX5zQ1diEh2rJuLDH301SXuQKiMoqgv/PbNsd8PByYr2456710o3jVf8qoT+aH7NSlljCkNO5i3yZL4LJVncabdSVcEmzKYcW6325YtyigpKx9/Gcw558wwdN3QNdOfMQzOGHLY6aKU0PULupmuEMGCRrzyjzFmjPXtA2OKuYZad7CuY34BTMbuCjU2hbJkiZ65pG47Ck2SAJDBU1eblGTrcXNRRDzXoeX3qK5G5jBiPCAyy63x6k61skPl1wp0CQSHW4RIK51lFRIcUrJPG0sxNjHMQsOt1CZcN/HmpjGbRsIYCyJuq6Ul2fCFmSGUVdZknTz94LrV4rhUjRZFcfHixb944YVvf+tbh7OyCs6ebWpuDi5wZbVaExMTbTZbYmJifHz8nNTUsPBwm80WFuojLCwsJCREluUBLYsIITab7ZFNm+7JzDyVm3vs2LGiwsLmlpbW1tZg/RkZGTlr1qzIyMi0OXPmzZsnSZLD6QwP8z230+m02+1mSZvgQz788MP/9c//XFJSEhkZ+cQTTyQmJoaGhlqt1pHL4C8/+WRlRcUfXnutt7d33rx5jz76aIjDERERIcvyCLeUg7emuebFlPCR+4Xc4JoxajXrey3NM+SZjN61ZexsYXHxpQqYfTMHr8pf3+6a931qtWDDmMhLpiBgVcUIE7U9x/DWW5O+IToW+Ze4jTumvammaRhjgQpOh8Pwb4njcVO/hmEYumHofiWOdMNnCZw2mp5kWbckZO2SkNRY0WblXO/kQtzIn1nTNK/XYxgMYREb7bjlU9Z73t8bCY/p+SNdY9LtJZZTirtdxuvbXV4V6qUCIIOnrj5RPeL5Q+qXvoYwQRyiVceMwa2MEULtHr3VrZVcs5kYI5tAIqxCuIXG2MTkUJ8wjneIsyxCpE0IkwWK+/af+ZTWxpggXRPPH8LjWzAWmFjeen/buswV4ng1TxJF0el0ZmZmLlq0qLunp7urq7e314ysM6tGEUJEUZRk2SLLZu/fkJAQq9Uqy7K5AzykeiSEWK1WURQ3Pvhg5urV3d3dvS6X2+32eDyG3pf4SgXBIsuSJFksFqsfu91uPrMZuzj4aZcuXfr5Z5/V19c3NTeriuJwOOLi4ux2+8iDojHGP/jBD775rW/V1da2t7eb6jo+IcFqtY7wSeLjr0et9+Z+aF/1tDArdTyuApiotRd7c/8y5JmMGn9lrA9g3s00iqqMdw94v/+knU1obLQgEE1jnGNMJOa56i7/jRR1nxyziUiR/nZiYzytgnModMNYtiAxIdrW2uXTjwL1F+zEd0L7cmbu/foEMNf96w42CwkLEZbPta2YZ8vMsCdEiXYL9d3LmKJ6qbeeWBNGuBag+PGreRF7SlDrZ8xbj8gduYLoBhdvQ1v7NzbIuwdcRVUQewKADJ7i0IZyWnXOmJc5/iU9QRurBq/vVWt7UKE/oJojJBBsBk5HWqjZxzjJKcXYhSibGGUTLJT4noT4Hso4Mq6lHU9mdYwFkV7OpQ3l8AWYUbjcntf+/PH3v/d1q0UeJ1Pm15ymHlZmzdL9GIz15aliTDAWBIH6EUUxsEk7vG7EGIuiSCm1Wq3h4eG6rmuaput6cD0Yeo3A0w6f6EsptdvtSUlJUVFRhmGYEjpQ9mbEnrcQGRFhs1q9Xi9CyBThI99ZXbJkyZw5cyorK32GqKGk/vkNQmTK+HxSeluN0du3o56WlrZkyZLbfEJFUd/84LPunl6YdzOQjw57lswR1i+TvYoxcRd3TCnRzT7GWOBMVRp3aV3n5bjNUthdmFo4M8ZQDPtLk/Str2k6W70s/U//e/aZkq7sYm9hldrtMjwq5wxRioi/5Ce+tbgNc+0d+XWvT/maW7+6wTjnFok4bDQqTFwyxzo7RpqXaMlIkZ02KktE17nBuFc13ybmTDXc1WL43SN5Ox6PR9U0jEXEe3FHFu88iphyhzRwoFCWQEcZaC1L9Nh55aPDsLIPgAyeFogXjrHoZBQaDaHR4y0RMaKoX0D1tYbGelUnOt3oNi8RNpE4ZeqUaaxdnO2UZjul+BCfNo6xi6EyFQgSMSYEc84NswqX/4n45NDAuLNRvHAMPusZSNaJvMc33Zc+J5kSPF4TCgfk6I0S7k2peavFqExla4rMIZ858IQjfGZKqc1ms1qt5iGjKI5l6nNBEEJCQkbxJCEhIT/4x3/84Y9+ZP5p9LYZvRNQYPkf/+EfzPO/HZpb2vYeOgEzbmai6eiVz91zE2lMGNX0CQtqEwWs60GXdiwxb4On6o9qSJY8634xbAUWQjg3xiRM2mzMe02yEuaujHYaT6yxP7I6pKPHqGrSKuq0sjq1vF5r7jAUnWv+Hz0oj8FsjREkRP1tv33i0GD+nGOMOMVMEpAsYtmCZ4XJ6YmW2TFyapy0OMUaYiV2KxEF7N/49VlEr8IGnSTRuy6gmMcRkYZcqzerZ6mqqiiqwTFBGLvPs/Z93HsFYQHhOysrdI2PLplaFEh9m/7K525Nh8kHgAyeHmLM0y2e3adAaPRk+CzMeKd+3izWGWr16C1uvaxd4f58I4kSu0hCRBJupUkOKckpJTikOLsQFyJF2wSLQESKRdIXHDVhehgTrmvS2X3Y0w2f7Mzk16++/Zuf/5iOV2h0sIN1J/qVjU5C39GTvJ0nefbZZxsaGl586aUJKStFKf1f//RPzz777G0+j6pqv3z1HaiMNZOpaTRe3+7+8bdCCMZsgmKjKSWUMCM4cwn7ZJbRU+bqLaf2FClijRi6nMizfLczw6ySOYr57t87dSuKirCAEUPdx3jrFwZnBvNd7SOcJCrMcm+GRdO5R+Fuhbd1G61dfT8dLqZq3Kvxbpfe42aKygz/YZRwgpFNIuFOKcJB7BZqlUmYQ4iLEJKiRZuFihTbLEQSMWNc94efB+Kib3yu1PDW6e4awbEAcX0oAawpquqbuNwg3krUfYz1FvseicfjeqH79D4ht7hESzA2GH99u7umEQwOADJ4GkEbysXSbGPJfUyDJuCTTxv7N42DElkwR8itMZdqNLi0iy1eg/uuYRaB2AQaIpE4u5joEBOcUpJD7FEZmaDGikQQaNERCIeeydTWN73z8fZv/9VmWZZhNCYhP/zhD1evXv3mW2/l5eW1tLSMz4tGRUXdfffd3/vud9esWXO7GljTt+85XFZZAx/lDGdfnrp4jvJXG2weZcI26aiAjcEFk4iAEWKuKq+rSmncKTgWiWGrhJC5WAjBROKc+fcebi6JfRqXI1XTFEU1DO7TwGod6tjPe80i9n2tKzhDjHEzrk+WsFXGs0Jpxmz/3i9GBvMXGWFIN8yCydd1qV8MI5FiQSBmsDDjvrMzODLbPBrMp6tvyXNBhqK2HRWdCxGW+DUlzAxD030/hq4gowd7LqOeM9xdjrg6DpvA/ZSwfsuFsmSJbj3q3pcHfjIAMnjaIRafYFGzcUwa1yFJeNILYzO0CWN6/QbEOOpR9S4F1XaruQ2+K5dAsPkzAWcoyLixQiyGSMWZzue7Dq1aunDxwnRRgMvEZGSNn6l45ozx6it1727dCR8igBB6Y4c7NZasmidPVP8kf6EsPnQ6hl/dcb1HazupdeRiMUywpVLHPMGeRuRoTC0YywgT1JfV1KeKzSu3v7Ei03WuabquKYi5sVKDegt57zlkuIYppMw5MvjA4iFmrrBAkTgoM9Z8VVUbu5BAImidZz1XPxBC5iI5weCCoRvMUJjajpQaotYx12VudPu0u08Aj3fQkK5zUbyFrGmLRM9c8r6xww1zDQAZPB3RVfHsPvX+byHJxhnEe0xRbRwIqMYTWDoLE4q93eLZfUiHRVMAPffyH1/75U/DQh0wFMAY4vF6f/biqxAODZh0u/hLH7lf/L4QE04mJEnYXygL6/owF15ilrjkaoeqtKLOM5hYiBBCLLHEmkClWVgIJVIYFhwICxwRxjFjzNAVprmY0ojUBmJ0cXcF19oQ1xCmo5COAV3Mx8crYZq3cRcmEiLytd6/HCENGV6f3ifU9xg8MQqCcX+hLGFEhbL8KcHGSx+5u13QIQkAGTxNIR0NQsEBdfWTffE3wNQXxhPxqphzJBYcIB0N8BEAZtXof3/hled/8k/SuCcJA9MVVdV+/qs3Ojqh7gBwnaoG4+WtvT/5jkMUsDERDQZF4Vq96OGvzBhj7FdfXGNqO1NaeFeh7xZ/VLA/zAvz6xdwjhBDXEWG6rvRJ6Tp+O+djt4hMEtkMU//ERAnyEHph6bzkUQpUYIVlb+8tbeqARbdgBsIKBiCabKeUXVOuJSDBQmGAhjlRU+QhEs5QtU5GAogQFllzXtbd3oVSLgAxkYDb99z+NyFUhgKYADHCrV39rspvRM18kaglyi+xcL4GGGCiOjTiljw93jQOPNw5kbMde3HjZji08JE8vcQolPRL/DLhMAPniSnZRjspsslGPs+1nf2u48VQi8VAGTwDEC6cITUXSIilLQBbt0QiDKpuyRdOAJDAQxg284DpZerdB1W04HbgjFefbUeUoKBG/H+Ae/ePK9FmpgoRSqQ25OLAxTj5NKN0w/jZrv3FknYm+d9/4AXxgoAGTwz0FXx9C7U2YIFiGAEbuUCLoios8X35YGUYGAofv7rN1xuD4wDcDtASjBwExfGQC9vdecWK1Z5AjZOBQFPzE40MLpvi86HSQG0yjS3WHl5qxvWbwGQwTPp43R1iPk7kerFhMJoACPSwIQi1Svm7ySuDhgNYEhcbs9Pn/+9osAqCTBKFEWFlGDgpnS7+XMfuEqvaLI03j6MWSgLPoKpglkoa8i7ZImWXtGe+8DV7YZaOQDI4BkGbawU8/dwzhGGDxe4uQjmnIv5e2hjJQwGMAxllTUfbNsNShgYBaqq7dibBSnBwEhoaDN+/p6rqV0XxfH2YUQBvKaphDZUcW9RJE3t+s/fczW0wUYwADJ4RiJUnRMvZGFKEUT4AMNpYIwpFS9kQVksYCR8un1/YfFlTdNhKICRY+hG8eUKSAkGRs6lq/oLH/S6PVyg4+qjUgobwlPKtgwqlCVQ4vbwFz7ovXQVrlMAyOCZrISLT9Cy0wQKRwPDTH5BomWnheITMBTACPmPl14rq6wxIN0KGBm6pl+tb/zPl16DlGDglsgp1l/6uFfV+Tjr0nEW3sDtKuGgQlmUYlXnL33cm1MMGhgAGTyzwZxLBfvx1WIiWWA0gCFmvmTBV4t9XxJoNA2M3OcwjJ8897ur9Y0MVA1w028L4129vf/vv//S44WGW8Atsy9PffmTXsbQLbYyui0oFMqaUvgLZXGzRTBj6OVPevflQeYOADIY8BeOlvJ2oPpyIoISBvpPe9GC6st9Xw8oDQ3cIh6v8n9+/tuO7h5mMBgNYBhcLtcPf/wc1BgHRs32k+rvP3Nxjsl4KWGCsQBx0VMHf6EsTgnmHP/+M9f2k+DSACCDgWtgb6+csw03V2NoJgwEvhWijJurfV8Mby+MBjAKOjq7/+UnL7m90I8RuCFut+dffvoSlIYGbpOtR5Q3drkIRuOmhAUolDWlMBhHGL2xy7X1CESdACCDgQGax9MtZX+CW2tBCQN9Gri11veV8IB7Coyeppa2f/6/v/B4QAkDQ+BVlJ++8EptfRMMBXD7vLff+9YeDyF4fKKjoVDWVHJpMKIYv7ff/d5+uBgBo5rv8SkLYBSmuZnQvLSlxohJRrZQxCCjbwZ/EwQJdzXKJz/Bve0wGsBt0t3julhavu6eVaIgwGgAAVRV+8Xv3iooKoGhAMaKgjJd0/jKeRKhaHzKWRgGVM2Y7BCMBYF8dkL54y4VipwAt8RjG9eGhYWBDJ4x+kdxk+YaFp2M7GGghGfod0CUcWeTdPIT0t0CowGMCS1tHfWNLZkrl1BKYTQAhJCiqK+89ZfjOfkwFMDYUlipu7z8rvkSvfNKmGBk6CCsJrcGJpgQ/HGW8uYehUGdCgBkMHAzJeyijZVGZCJyRIASnokauLVWPvkx6W6F0QDGkKt1Dd09vUsXzhNgT3jGo6raB9t279p/FIYCuBMUV+vt3cbqDFEUMLuTIhVjzDhnDITwJMUfHo/fOeB9/6AGyxUAyGBgZJZd9ZCmChYRj5xRiEFftZmjgS24uVrK3kp6O2A0gDGnvOqKy+Ndtmg+7AnPZBRF/WDb7k+374ehAO4cl68aTR3srgzJIpM7KlMxxroOm4yTEYFixvEfd3s+OarBaAAgg4FbUsJeoaHCCIvBYdEcOn/OgA+cSBbcUG7J/hS7u2A4gDtEWUVNbUPz3SsWwZ7wzERVtVfe+gvsAwPjQEWdUV6rrUiXQkPoncvgJRgbjMNO42RDFIhHRS9/6t2TBxoYABkMjAJdERrKDHsYiohDHBY7p7EExliUyJULltzPEfRGAu4wV+saLpSUr8tcKYqghGcWXkX5xe/egnxgYNyobWHny/SMFBoXKeh3spYVFMqaVMgSbe5kz3/oybkI8YwAyGBg9EpYE+rLuCTzWUnYZ+TB0E8/CUwwFWhZrnx6F1KhkQAwHrS0deScPnffutUCpZhAx5EZgdvt+cnzv4e60MA409rNcoq11DicGicbd6ZEEhTKmlRYZeFSrf7zD7wlNRDJCIAMBm4TZtCGCsx0FpOKMUFg6qeTBiYUYSQWHhbPH4YkcGA86e5xHc/J/9K9q0RBoBT60k9nDMZ7e13//JMXK6qvwmgA44/Lw09e0CKdaP5sEaGx92IwxpxzAwplTTQEY6tFOFWs/vxDb30rxDACIIOBsYGTlivY1cViU7EoIyg5Pz00sCAizSue3iVczoN9fmACfFO352j26dUrF9ssFiiaNV3RNb2rp+cH//pfzS3QhByYMFQN5VzUFI0vSRMl8Q4UzYJCWRONQDHC+IuT3t9s83a7waUBQAYDYwrpbCRt9SwyCdmd0EhpymtgUcZdrdKpz4RaiFEEJgyvVzl8PHfZ0owwpwP2hKcfhm7UNjT96P97vrvHBaMBTCyMofMVelWDviSVhjvGOFUYCmVNLJJEXR72yufej46oGvinAMhg4I4oYVcHqb/MHOEoLAaKZk1ZBYyxKOG6S1L2p7SjAcYDmFh03Th8LDc9LTkiPEyE8tHTCFXVLl4q/z//9Vu3B4oOAJOFK00sr1RPjaPJsRIzxli3QqGsifBokFWmlfX683/x5hRDbhcAMhi4oxZH8wq1pRxTNisJEUgVnmoQihASSrLlM7uwAvszwKSAc340+4xhsIXz0wQBoqOnA4qi7tib9fLr76sadCsBJhedvfx4oWqV+PzZokDxWAVIQ6Gs8YdSLAj0eKH6/IeemibYmwFABgPjAGO0sQK7u3hUMrLYIEB6qoBFmXhdYv5usfQkJHgDk42Sy5UFhSX33r1coJQQCJCeutcH7vZ4//OXr+89fBKCRIHJiaqh3ItqXStbkEzDneKYVJCGQlnjjCzRXg97a6/y5h611wPDDoAMBsYR0tlImiq4IxKFRvn3hMEGTWYFTLAokcYKKedT2lAO4wFMTto7uvYdPjF/bkpYmEOAAOmpqC5UrbKm9l9++mL1lToYDWAywxGuqDdOFasx4Tg1TkR4LILboFDW+PifGFsswoVK7Rd/8Zwo0mFVHwAZDEyEtvL20qsliDMemYBFCTYYJ+nHJIjY0IXiE+KZ3cTdBQMCTGY0TT98PFfXIUB6Smrg7XsOv/j7P0MyMDBV6HLxY+dVjxdlJAshVnqbe7lQKGsckESqG/yz48qvPlUa22GsAZDBwARKLGbQpirS0WCExxF7GIe6WZPr48FElFFnk5T3hVCRjyF8HZgiQID01KIvEPql1yAQGphyGAwVVurnyvX4KJIULSKEb+c7jBHSoVDWnYFgLMtCRZ3+8jbv9mxNh3pYAMhgYFLYpt52obaEE4GHx2JBhG3hSSGBBREzg5afkfO+IB2NMCDA1AICpKcKqqZDIDQw1WnuZFln1W43m5dInSGCMVovBmMMhbLuBLJEFY1/fsL7y0+VqgZwMgGQwcCkEl26SuvLSHs9c87CjgiOOBSRnrhlCUIECbfVSqd3iJdzsa7CkABTkeAAaYIxJhjGZNJpYAiEBqYLuoEuVOp5JVqkEyfHCZSMpog0xggKZY0tAsWSRIsq1V9uVfbmaSrUngdABgOTVH/1ttOrFxFjPCIOS1boLTzuqxEYizLWFaH4pHRmJ+lqhiEBpjollytz8wsXLUizyJIowrbwZEFR1IbG5p+9+IfDx3MhEBqYNnT08KPn1cZWnhxLosIEPoolfSiUNVYuJcYWmXb0sA8OKq9sV+vbYFQBkMHAJBdihk6bqkhzNbM4kHMWJhTE8DiNPBUxxriuTMrbLlSdxwbkzQDThK7unj0Hj3d0di9dOA9hTCFbeEIxGNNU7c0PPvvNG++3tnfAgADTDMbQ5Vr9yDlV1VBqHHHYBcZuoRkGFMoaE2SJajrff0b95SfKqWJdh9omAMhgYKpA3N3C1Yuku5U5I5A93HcTXBPu4HBTLEi4s0E6u08qyiIuKAcNTEMqa2p3HzweGRGWEBcDRaQnCkVRz5y78OP/ePlCSRl4+sA0xqOg/Etabolul3lKHJUlOvIqk1Ao63aQREIoLijTf/2p94tsrccNIwmADAamHJyTrmZ65QJSvTwsGlvs0F547PE3BMbeHuHiMSl/F2mrh+UGYBqjafqpM4WFFy9lzEsTRQFipMdZAHd2df/HS69t23lQUaHiADAj6OhhR89rpTXGrFASF0kkkbAR6FsolDU6RIGIAqlq1P+4S3lrj9IA/ZAAkMHA1JZphk5brtC6UsQxc0Ri2QYx0mM0shiLMlI8QsVZ6fQOofYSREEDM4TW9s69h06omrZwfhriiFCIkb6zmFHQW7/Y9/OX/9jc0gYDAsw0alvYoXy1ssGIdJDYSEEQ8PBFsKBQ1q0iCEQSSU2T/s5+9Q87lUtXYPAAkMHAtJFsqoc2lNGGcoQR94lhK+wM38Zo+neAVS+tOied2SVUFWDVA6MCzCg456VlVQeO5CQmxEZGhFFCMYY60ncEj6IUl1b85Lnf5eYXQhQ0MGMxGKpqMA7kKzVNRlQojo0URIEM0x0SY6xBoawRIPoFcG2z/t5B9Q/blQtVhgZL+sDkk8F41YYvw3AAtw8Lj9Xm3WskLsAWGzc0aDJ8CxCCqci9blpbKl7OgW7AAIAQWrJw3ne+/mRqUgIVRQpNlcZUANfWNb75/mdFxZdhNAAggFVCG5bLT6yRFqaKskRUzRjSkfF4DcMAD+dGywQ+AYw4rm7S953WDuZr3ZADDEw+fvvzf0lJSQEZDIyx/WNhscacFXpSBraHcWZwCOgdfsCogAnlrk6htoRWFJDORsgBBoBgUpMTv/fNpxfOmyMIlFAooDV6DMaZYVTUXH37wy9AAAPAjZAoumuBuGWtfNd80WETVN0w+qcN6zrzKlDgeCAEI0miqsZLruj78rSTF3W3F/wZAGQwMPNg9jAjZameshSFRiOEfGIYMof7yV+Cqb8IUFezUF1IqwuJqxNGBQCGEcPf/uqW5YsXCJSAGL5lg8y4rmnFlyv/9P62qppaGBAAuPlVGqOFyfTxNfK6JVJUmMAY13RmLlNzjjyea38ACAmUiCLpdukF5cbePK2gDNogASCDgRkPl21GUoaRvMSISCCylRs6bA5jKmAqMMVD2+toTRG9WoIVN3xVAGAkxMdEfeurW9asXoERotBaaSQC2DAMxgsulL770XYQwAAwGrMTSTaskO5fLqYniVaZ+iOluaIYqjbTF/cJxpJIdMbrW40TF7Rj542qBqiABYAMBoB+lpKw8Hg9ebGRMB85IhFGXJ95m8OYYEFAHKGeNlp3Sai5QDrqIX0aAEYnhp9+4uEHv5SJMBIFaK10AwHsg2fnFbz38Y76phYYEAC4HWQRLUsTH7xLumehGBUmcM47u1U2IzUfxkigRBBIV69eWMmOFap5JYYL4p8BkMEAMJxbJttZQrqRtJBFJCCb0992YLrrYTP4GWPk7ibtdfRqMakrI4oLvgwAcJuEhzmfeOT+h+9fI8uSJEoEamhdQ/EqmmEcPHZq976jIIABYGyJDSf3LhbvWSRlJGG7hWg6040ZER8dUL89Lr2mmeUW6znF+pUmBtu/AMhgALgVPeyIZDFzjMT5LCIeWR2Ic8QMzoxpJH4pItR30fD0kPZ6WnuJNFWSHmjLCQBjz8L5aY89tGHt6uW6YVgt8sxVv4pKCMk7W7jn4IlzF0rhiwEAd1QTLphNMzOEu+cL8ZHYaRcMf/KwTxDzafU2McY+9Utxt0uvbWE5xfrpS3p1I4PuRwDIYAC4LbgzyoidY8Sm8fAYbgtDBCPGuGFMzc7DGFOKCEGMY3cn7miijRW0sRJ3w24MANxxRFFYvXLplk0b5qencsYlSZwhb1zTDYxRZU3tjj1ZJ3LPauCcAsB4Wh4BpcbR5Wl0WRpNiyehIUQSqKozw+BTtx03Jpj68341nXW5WHUjKyjXz5XrlfVc1WHzFwAZDABjq4dtThYea8TOZZEJPDQKiTLCxCeJmTGpo6Yx8W/8Et9JagruaiFtdbSxnHQ0Ync3fKwAMP44HSEPrM989MEvzYoIE0SBEjIt3yZjXNO0zu6evYdOHD6e29YOpeYBYCKhBIeG4OVzaUYSWZEuRjhQiI0SgnWdGYzzyS2KzV1fQrAkEIPxXo/R3o0KyrXLV9nZMr2zF0HlKwBkMACMw5VEYiHhLCKeRSWy0GjmiMSyDRF/SVhmcMb8bXUnyhz3XSiun4/iJj1tpKuZtNSS9nrS24EMFT5DAJgMJMbHPLTh3tWrlsbFRKmaZrNapsGb8ngVQaDNzW25ZwuzTpyG4s8AMAmxSHh2DFkwm8RH0qWpJDKU2C3EaiGMId0fOD3hqrhP92JEKaEUq6rR62Ft3aioUr/awoqvsNom5tVA+gIggwFgguBUQFYnC4s1ZsXzkEgWEs5toUiUMBUwoZwz5FfF3BTGPnPNx07u+i8T/gsFIgRjwpnBDR1pKnZ3kd4O3NtGW+tJZyPydGMDohABYPJitcgL56dlrlp61/JFEeFhmqZZp5Qk9noVQRQ6O7vzzxefLrhQVHzZ5fbAxwoAUwJJRA4bWZhMEqPo7Cg8N5E4bcQmY6tMCUG6wQ3GuX+vlff9/x1RvBghTBAlhBLMOXJ7DY/KXR5e1WhUNbDGDl5UqXf0clWDTwyYWTIYuk0AkxSfvOxtp73ttLYYYcwFCUk2FhLBwqKYIxJbHcjqMKwOJEoIC5gKiFBMiP9SwhFn/p++//oUsrn6inFA65r/+S4OmJiXCc4YMhUv17imUk8P8v/QnjbS2UJ625HqxrqKoG8+AEwRPF4l/3xx/vlihJDdZl21bOGKpRmrli50hjp0TbdMyqpaXkUhCHsUJf/cxTPnLhaVlHV0Qp4FAEw9VA21dbHjhQwhnWAkidhuQfOThLhI7LCRhFkoPpKG2pFEkSQRi4RFgWCMGEeGwRj3OzSsz49BNyi/hfv+d22Dl2BKfU/CkU9mKwpTNKZo2K3wpg69ppG19/L6Fna5zvAoXFERxDsDMxmQwcBUgHOsKUhTqKuDNlX0WX5B4FTwaWN7KLc6uGTjkgVLVi5bueT/EUSMKaICJxRRionv284NDRkGZgbyaV0D6xpWPb4fxcN9v3ix6saeHuLq8ileQ0e6jhBcJQBgOuBye47l5B/LyUcIRUaErViSsThj7pzkxNjoWRaLrCgqxnj8hbHHq3DGLBbZ61Va2joqqq4UFpcVFV9uaoHy8gAwfWAceVXuVVH2xb5dV4KRKCCBYouEE6JIQiQJsWGRcqcdR4WSUDt2hmCbjEWfC8N9+pYg3P8JzX+ZwQ2G3QrrcvG2bt7Qxnq9nDHkVnhzB69uYr1u3wNUnTEGnwMAXAeCogEAAICZjtUix8ZEJcXHJMTHpM9JTkqInRURjjHWNE0URUGgY/Iqum5ouiYIAuKotb2jvrGlvKKmpra+oam1vrEZop0BAAAA4E4DQdEAAAAA0IfHq1TV1A4oOuV0hCTGx8THRltkyekIcTrs4WFOgdKIyHCBkBC7TZYlURCCk429iqKqmqppPT0unbH2tg7dMLp6XJ2d3S63x+X21Dc2NzS1QJAzAAAAAEwsIIMBAAAAYAi6e3qLL/UWX6qAoQAAAACAaQaBIQAAAAAAAAAAAABABgMAAAAAAAAAAAAAyGAAAAAAAAAAAAAAABkMAAAAAAAAAAAAACCDAQAAAAAAAAAAAABkMAAAAAAAAAAAAACADAYAAAAAAAAAAAAAkMEAAAAAAAAAAAAAADIYAAAAAAAAAAAAAEAGAwAAAAAAAAAAAADIYAAAAAAAAAAAAAAAGQwAAAAAAAAAAACADAYAAAAAAAAAAAAAkMEAAAAAAAAAAAAAADIYAAAAAAAAAAAAAEAGAwAAAAAAAAAAAADIYAAAAAAAAAAAAACYSAQYAgAYKzY/tC5z1WKEUNaJ0weO5hJCMcYwLAAAjDkb16/esGZln7U5copQijGsawMAAAAAyGBg0uN02P/m2c3JibHVV+s/3XGwrqEFT2XdmBgXfd/aVebvj21ct333AYstRKAiAiUMAMNO/zff/6LX5cGEDDP9v7L5gWWL541E9W1cvzoxPjoxLjos1IEQ8niVK7UN9Y0tBUWXfEYG47GdkhvXr85IT0lOijP/7OjqDg91IoSy885v3X6AUOEO2bRHHrjX/OW+tau+2LnPZ21EGdbdAOD2Z/SGNSutFhkhVH21HiGkqlpre2dVTV3++VLss1Kw3gQA0wQan7IARgGYEB66L3P5Ip9fGxbqCHPaT546Q6lAMJmiunHunKQlGXMDfzY0NDY0thBBgEsmAAxmy8NfWrwgzZz+4aH23DMFVBAJGXqyrMtcvnHDalEQREFIiIvauecgoXRwtMW6zGV//dXHF2ekRc+KsPi9WISQKAizIsJSZyfce/fSuOjIssoaRdXGZFauXLrge994YnFGmqm3TazXXjcpIfZswXm/vB/71b0F6Skrl/Zdu0VR3PbFbkKoIEiYgLUBgNGTGBf9zJYHArPY55yEOiIjwpISYpcuTF+9cpFAcXnVFewHhgsApiiPbVwbFhYGu8HARGKRpMDvsiioXrcgSIRSjKbD1YVzpuuayDl80AAwPLMT4hWPy5TBgwWq02HfdP89gT9tVquqeCgVKBUxpYHHfO2ph+fNmT38Cy1dNE8UyO/f/EiSrYTQ2znnjetXB/Zjb0RUZFhtQ4uFChjTsR0xu9XSz9owxpjBEVgbALgtUmbHBzTwYMLDnI8/vGHF0owvdmddrrx652I9JoQF6Slf2fxAWKgj/3zxu1t3EUJv00gCwOQHVo6BySEaEWLM8Hly00Y3cp8Uhk8WAIbEq6qB3yMiwpIS4nRN5WyIKfPwhsxgxzQ79wzi3G8oeEAD/923n7qpBjZhjCkeF2PGndbAferU0MfFpoGpAYAxIDYq4qaPiY+N/vvvPnv/2pW6pnDOps17NzUwQmjVsoVL5qeoiuc27SQATH5gNxgAAAAYb8qrau9bsyrw59JF8/cdzvb7lAP3HxakpwR+d7s9H32ynVAqiNcDgL/21MOx0ZHBjzlXdLHoYumpvAJM8NJFGffcvSIpMT4hPratvWPfwSOI39a+6WANfLHk0sfbdl65Wr9sycK/+9tv2GxW+HwBYBrw1//9f85JTU6Ij1u8cP6yxRnBU/uJRx/gjB06flqULNMjGSE4uWNOckLumXOiKCPYEAZABgMAAADAGFJaVu3xKoFt3vnz0nYfOMYYo5wHVwdYtXRBsHOWe6agq6fXYg3xyWB/+PTG9auD94HPnit6+4NPenrdgihZQ5yCIFXVtpZf2WNoqq5rzDAwIbcTEb0gPcWszxzg0y9279hzUBRlW0hoZW3L4eN5a1YvjwgPzcnNzzl91mJz3Iksj9TZ8cGyH75OAHAnIITUN7a1dnnOXaz4YvfhpzZvzLxreeDeJx/f6PF6s08XibJlGhQBaWxuC15PNHRtOu11AwDIYAAAAGCyUFFda1bJ8um65NnM0A1dFQQxON1u6aL04EM+37GXUsGnY69lBS/3l482Ka+sfvnVNyXJYgsJFUTZrCaNfdc5iUsWfyQ1Qwj7c95G6bNufmhdcIT27v2Hd+45JFvsFmsIFUWMyeGT+XsPn1A9bsZ0SbZJkvVO7xTVNzYhqNgDAHdICVMqijImRDX4h5/tb27t2PLI/YF7H75/3eGjOZj441NGOwXN2tSKon78xf6SsuqJarWoKGrwn9dSTzh0uwBABgPApMPpsK+/Z0Xq7PhAq5JL5dUXSyuO554bstCOechDGzJTZ8ebS56Nza11Dc3550tLy6qHadayLnPZ3NSkQP8V86gjJ/PrGlswJuB8AsDoKK+8GpDBNpv1wfvWHs89J3JGg4pWzElOCPx+seRSV3ePbA2hPqnc95jg7Yvu7h5KBdkW4tPJQTXnMcKYjoEWfWbzA8Evd7Hk0sef7pQstuBmRRgRSbaKosw5xxj7pTgO9nfnJCckJcSYWrqxubX4UtWOfUf7HN+hjMngQ+oamlH/HWbfkYQOOHxwJ6e6+ubLlVdOnDo3fG8qAAD6gbEZP0IIzTpZEBEetjZzhXlPRETYhnV3n8w9T4WBlfB8E3BeSnLi9QlYW99c5puABbi/i2L2Z7Ja5K9s2fjjn/3SYg358mMPLF88LyzU4fEq5VVXP9l+oMflefi+e+YkJ5qmIPj2IftrJMZFr793RXxslGmyzMfnnC4sLa8O+C2BrnWD3/H969fcv36N+Xtjc+v2vUcH6PPEuOiHNqxOuOYXmc2lKqvrCopKwTUCQAYDwM2JiAgd9bGBkobBN86fmzJ/bkpaSsKf3vtMkOQB14bEuOgBOYSx0bNio2etWrawqqZ2X1bOpYorA1ZhF6SnbH5oXfAhwUedPlu0fd8xl0eZuk2eAGACKSwu//Jj911XvCmzj5zI44wFsoM3rl8dvPVacP4CIVSU5BuFNK9cvuQf/8d3ikoqKBXdHm9pWfUYdgl2OuzBO89ut+f1N98XRMlitffbCPI5gHRwQp3f43w84BMHG5MF6cm/e+MDj6IPKDw7pJUzDxnkpqObHhge6gwPdS7OmHvvqiWvvPmRy6uC4QKAW9bDlG7bdWTh/LTwMKd5W3xstKYpErMF7NIwE3CJbwIu/v2f/uLyaqa/sWrpgoCViwgPjYsK/+tvfCU1OdG8xWqRl2TMjQx3KooauDH49v988Q+SxUapgPovtwVaHwc/fknG3B17jxw6ftq/kogf3pA5pAYeQGz0rI1furvgXKFsCxGoiDD+xtObAg3bAqQkxackxT/wpbv9L5EXvFgJACCDAWAgsiSO7sBVSxd8/elNN7p32eIFz2x5YOsXBySLjeDr/VS+87XNAy5LAVKTE//62c0vv/pOU1sXFfo82sEXkgHcvXKJKNI33vm07yIEAMCt0N3rulxRMy8t2fxzXvocw9CZofNrcdFzUhKCZeeBw8cl2Tog+LCzqyd4Xq9YumjF0kXBr+LxKk0tbVU1dQVFl+oaWkYtjJ95/P5ga7Bt++4el9tqc/r3gclNJfT//n++fSNjEh8b/b1vPf3i7960WEMC7uyC9JRvPvPIMPYnQHNLKzKjotGIDoyLjfr7v/2r//rVG5JsC8SWAwAwUi1MSHePKyCDEULM0AONIUYwAaO//91nf/biq+Z8D87zRwj9t7/5WkJ87GATcSPTseWRDdv3HrXYQgLezjObH7j3riU3evUtj9zX2tp2vqSCClJwuf7h8Xg9itdNRYlS4btf27LoWhTPjV7C5eqdNinTwPQGvqDAxBFUrFVRlBEe5HTYg3eQhmTD2syYWaG6er2Zwd88e0MNbGKzWi0yVTxu7u8QsCA95ZEH7r2pD+qw2xRPr6GpUEkCAEZBRXVd4PfIiPDZifH6tdmUGBcdXPvqXNFFTIggSqR/9O+uAyeGfwmrRU5Jir9/3d3/9PffeuqxDfqo6r44HfY5Kde3Ysorqw9mnRQlqyhbR5Jm/DfPbh7emKSlzn74vntVxcP85+Z02Eeogc2MPoyROSxOh/0rmx+46YHxcTHpqQna9Gr3AgDjw4L0lOj+fZUCTdFGPgHnz0kKzPdgBmvg4Umfk6x63f5yVr5zWLl0wTAa2OTJxx/0elzM0I9mn83OO19ZfbW9vXOYx5dXVu89cMS/fIi3PPyl4TWwyZKF87yeXkPXoW0kMMmBLSxgUtDc0mbm39w0n+SZ/tcYf3rejpra+rX33P3Nr3450M9g86b7//DWR1QQqUA2rl8dHPlz9lzR2+9v7e5xpabMXrJowYZ1mRHhYTm5+eeLii3WEH7tShb8onX1jVnHTh7MOhEeHvar534SuL2ppdUwDMYMaNsJAKOgtLz60QfXBP7MvGv5Z7sOccYQofesWhz8yH0HjlCfCrbg/vHGZ4tKmaE//vD6iPCbJ1msu2elI8T2p/c/N2vejPw8V69YFGx2DmWdoIIoW2xUEG66tzzA/tTVN+7ccyAnryA1ZfZ//87X4+NizNs3rM3cvf+IIEpYJAOsXNax7CPHc65crceEbHl046YH1w/qydRnPB/akBm83hfo5DT4QKtF1jXFNw6wHwwAt6KBByxRXS6rCPgtDw+egH7/hBA6YALarBZdUyT5hs3Vdu87PD99TtqclH7m7lzRFzv33b9h7X1f6uvZljYnxTB0XVP9Qcj0sSBzapqOz3fu6+5xPfvMlkc2bjBvjAgP23T/mkMnznT39H6y85DqdWuqlxnGv/7T36elzg5I35899ytCBJ9h8ZsXyWKLiAjPXHVdY7vdnj0HsnbsPoAJTU1O+sqXH1u4oK+ioSxLuqYYukoF4U6UygcAkMHAdANjTOlNLGZiXPSi+XMCf5ZXVr/wq1cFQbLanEWl1QVFpYHCFbOTEjTVq2tWQvv503X1jS+/8iffISHO1i7PkexzB4/l6apiGJokWUR/RvGAK9nZc0Uvv/Inn9drDdF4vylTdKHEXwVHgBQ7ABgFdQ0twVHNs5PimaExZlAuBLcLLq+srrlaJ1vstH8daVP/FVwsyztbtGJx+sIFc6MiI9LmJA/zissWL9j80NqdB06KkjzygL3gSl1t7R05eWcttpARJr8F2x+32/P8r37f0+uRrfbWTvehY3nffnZLn28aEZYYH93U1h0eFhZs5T79YveO3Qf85scpiPKRnHONLR1//92vDbafA+pmXyy59Itf/0GQLNaQ0Mc33bfm7uX9xDPnnDEOC3gAMDL1mxgXNSc5cV7a7ODbyyurs/POyhabaQqW9Z+APv9E9Pknmx95YM3qfhOQI98ERAg1trQNeC232/PqH98pKr70f//1h8E3vvvhJzl5BYIoXSytDMhghFCoI8SraZzzjetXB7suWcey3/7gE0m22h1huw/lzE9PC2QXp8xO0JQTomShhEoWm+gvpO/29AvKw4TKVrtksfkDXnxK+P51/Yo1mCcpWWxpc+Y89tD6gAYOMjDMXykQvj4AyGAAGJkSHl5PLl8yL/jPdz/4xF8Y1i5b7IQKeQXFARkcGRHudISourZx/YbgC8NfPvmCUEG29h2CEKKiKMlWzjnyBxZijIP977b2jrff3yoIksUWIlqsA3OA/dJ9otobAMA0oKK6dtWyDPP3RRnzDcMwdC1z1bLgaXu+qBgTKkhDb+ESnydnLSytLrhwWVMVw9A5MzjjoaGOjPlzZ0WGL12UEayN191z16fb9xFCBUEc4QJWUkJM4PdLZRWEEkGSR5JYuyA9JfiN7DmQ1d3jslhDTBV9rrhic1d3eGhfkuHcOSn1TfmZK/st223ftd9fh8vp0+2EYoTKqxuqr9Sn9E8pNOMhA07qtQpe8pe3PLIuc+WAlJC6+kZTyYPZAoBh+PNrvxrm3rr6xt+++ialZpQKGTABX3vzPSqIX97y6Lp7VwXmeODA7Nx82WL3PdIzMCNs2/bdRcWXZIstuBZg7pmCnLyzksVusdrLrzQGP37hgvT8whLE+YDVuj+/v1WWrf76BRLCuKSsOiCDo6NmGbrGmYGoECjp1+v2DvDHqCD25aH4SU2OD9bYRRdL09PTn3jsoSUL0we8hVN5+RhfL1gAACCDAWAMiI+NCr6QVF+tky02fxNRAWNc19ja79owf25+YWlaUEbf2XNFRRdLJYtNslgDRVlx/7KuA9zWI8dzfG6rLWRwMcbAtQLsPACMmqv1TQEZjBDaeN/a46cKli6cG7jF7faYUtBfHGvo3VeMiSBKVBAEyRLod8kQunDpimFU7D9y6gd/962M+X3PabNZ71q+6HxxBe1fmflGOB324D2QyqorlIrCyLaC56YmBv957MQpQZB8xuRaKb7ublfARY6Pi2GGER0VHnj85fJKU+SLPtUtBNzTIU87uNZOVc2Vp554dNmSheFhoYN99xd+/arPwZXkO93TGACmK9m5Zz76ZHuPyyNb7WaHtjkDJuCWR5ctWTQ4WcM3AX/1ik88i9LgCZh1LPtg1glJtlpsDlXTg+8ilFqsdrPuVGNzW6CHxazIcOaP7BiwWkcplSw24dqrdHb1Bu5NiI9lzGCGwQU+8kX84EL37R2d//Kj7w/YATb59IvdvrdgvjTsEAAggwFgSEKdIbd6SHBx6ZqrtcTv+5Ib+LL+oCMjUIcWIXQ6/xyhVJJtlIo3ss52q2WA20oF0V9SFSKfAWDsOZF7ftP918vRZcyfW1BUsjjjugwuvVyOibn7ehPV6u9m0t+t5FzgEuc8v7A0IIMRQulpKfnnS0TZSkdQJzI9NSn4T7fb4+8GPCIBaZGkYPe3r+/xjd8IY0ZkRNh1GVxWQQgVxYEZ0UMSGeRwL8qYP/gBbe0dR47n7NhzsC+8RYQ6rgBwy5gZv1dqGwRRstqd5kI8wji4B+SijPmLMm4wAXcf8OdY+eONMRlgCC6XVfoD1kIEUWrr6B5s4cw5qyjXizyHh4dxxhBHQ6zWBSvt/jbHH7RsIM6D+qsPR3CUHELomScfG/wYM3X5Sl2DJNss/gbv4DUBIIMBYGiCN109Hu+INlX7FZdWMcGCIA3jyS1e2C+IOjs3399wRRz5HojPbbXY/V4vWHMAuCNUVNcuvlZ9dMG8uRvvWxt8b9axbL8UlMkoti6v7ZyS/ukMPhfQMEZYxZQPpbdH4d55vF6/UBeGMVmc90/X9R8wktqBnA/Xgi4ggCkVLdYQc6OGgAYGgFsnNiY6ISGusaVTtoX0zSP/9Lz5BNx9wMzJ8vkhkmVA0ftrUx5RKgyuOxAdFdlnjfzCtcflDr6LMWNA1fcRrNaZYTN8hIZswA7B0AK4toEKotXmFE1HCywMADIYAEbC1dp6/6oovmUn98YOYnFp2dIliwe4xIQKI9lX6XcUIbCiCQB3jtr6poAMttmsgYqm5g5q4YUS2WofYT2qGxExKDbY706OSAaXV14dwzc7TLpcXX2D35pdPyu7zXabaRflldWn8s4eOnKSUMEngGUrFSXiM5vgoQLATedO/r2r7xpQdS8yIvzv/vabuWfOvffJngE25UYT8GDWCUKpbLX79aE0/FpYYMorQX19ZVnmnBuGLogSRrin1z3wLl0f7B7dyHWpq28MbjY+GKvF4ns7N1sodLs9uWcKjhzPuVJbTwXJYnf4LAwVR7JyBwAggwEgYLBNk32TRw1YAb127emL6lmXuTzYOnd1dTc2tQQfHhbq9Gq3Vhk1ZXZSQ0tH8C01VxuSk+KuO6kAANweuWcvPvLAmiHvOl9UTAgVxCHqUX3j6U0Z81IRQlknTh84mjtMpboF6Skb1qwMvuVyeSUesb7s7nV5vEog4HDJ4gX5haVDOogrly5Yu3ppcmLchZLyrdsP9Lg8nd3X8/HiY2MGuMpOhz1gTBBCTc2tmNDW9q6U2X2lbhYuSD9yIs8v2PlNF+OCnWZzf+b02fOn8gqoIFrsDlGyUEEEAQwAI+dg1olj2fn3rF5539rVc1L71YjOvGt51KyIP767zaPoZr6GomoDJ2D++ZzTZykVLbYQUZLpTQVwf+qDyp34rIdfBw+uvWzexZjREVRvLykx3memgs3g3OtivrOrC2M89Ha0H7N9MQ+yci5PvwJabe0duWcK9h082tPjoqJktYf63iAIYGCqAZdDYGJwOuyDlPBA07kuc9k3nt70bz/67os//Z9ff+ohXVdbWq8r0kUZ85OT4nVNCzSgXxFUR7r0cjnCuLa+2RNku5/cvIkxFuy/Oh32bzy96cWf/s9/+N5f2SwSM4zLlVeCz2HDl+7hnAWHG8ny9WS/tNRk3v8JAQC4VXp63Zcraoa8a9/BI1QQBjc3WpCeYtZltVrkxzauS5sdY+gqHzQTnQ77M5sfGNDn0+325OSe9enqEbtrFVXXN4TvXb1q4fw0fxTiQEvyjac3mVVkFmfMXXv3Ek3xXq27XtPVZrNueWwjM/TAgQ9vyAx2KwsvlhJCm1vbr+vq5Use33SfrqksyAQtSE+JjooYfJJt7V3B7zHrWE5efpHF7rA7w602vwymQlJ87He+ttm0eP5SsQy+fgBwI/y19+TzxZW/fu39A1kn3R5P8L1zUmb/w3/7uixiw9A4520dAyZgdm7+OYs1xO4Is9qdksUmUDEpPvZvr01AXVd9ZmSYVw/63WazcnQtmxehpqA2S+ZdnBnNLe1BKn2F78mv+SdOh91cNLzmIFUQQobP9jKThwPGqrSsOvjemiu1H3+6w+1RrXan3RFmsYWYi5UPbcj8tx9992f/+j/W3LXYZ2HAOwImNzQ+ZQGMAjD+LF6QtiSoCs5vX31TEKR7V69cnJF2z6ol961Z9dUnNy5IT4mLmWXx+6/xsVF1dfX554sfXH9P4Kj0tFS329XQ3DY7Ie7rT29KS75elPWDjz9vbeu0WO1zUmYHXMbU5KTEhBiPR2lt7wx1hqy/Z/kzmx9I9fcYCAt1qIrnYsllw0DLFs8Lsfdt88ZEzcIYVVbXEkq/dM+KJx/dkBgXHXiVyIjwXfsOC37/Mj42Kvgd5RcUNTS3iZKFQC1WALgZYaGO9DlJA248e67o2Mlcf2n3fr1DEEKzE2ODp9vijHSLLLrcnp5eN/b5fCF3r1i4LnP5k49uSJ0dLwr94p4++nR79dV62WoXRXmEGxfNre333r008OfSRfMRZ5XVVzEhGfNSN6xZ+czmB2YnxAYfcrm84mJJWWePe/ni+QF7kpyU6LMnNXVhoc4tm9bfe9eSwOOPHMspKS2XrbYrda3r16wMnHPG/LkhNktnd09Pr8vpDHl4Q+bTj98f/I6qa64WXii1WO29Ls+9d/WdpCiKazJXhYeHUSp2dPViQs3z3PzwugR/vf2wUEdZWXlLWwcUPgCAAAvnpSbG99Vbbu/oPJ6dJ8lWUbZQQbxccaXkUkVqcoIj5PoivsMRsnB+Wv65Ik03ens9gRntn4B3hYWF+iegi1CaMW/OhjWrNj+8Lv7aBLx8uaypuS0pMW5pUMMh0xeSZCsh1OX2BIexVFZdaevo8icVk6jI8GADWFl1pbW90+F0LpzX13LcarXMTZ1d39jU6/KsWr7wK1seDL9WjcXt9vzqd2+IstV8lSHfO0Lo8517BVEO9mHiY6OiZ/V5U3GxMXfftVwQpR63ohs81OlYvXLRk49suGt5hsUii4LAOTuRnWtGoEBaGTDZeGzj2rCwMAiKBiYLb7/+65s+xtDU1taWk3nn1q7uC35OiI/97rf/avAjL5ZcKrxYKvu7khw4mpuWkmi9Vt1hxdJFK5YuGvL5JVFQFY8kWwuKLj36YF+Ips1mfWrLpqe2bBryEJvNuvmRBw4cOSWKEnyIADBqDh3Lu2/tquA922ul3QVBGqI41tnC0qceuy/weJvN+tD9ax+6f+1NXyg798yhI9my1S5I8sjlX11ja3beuTXXLI/NZn3i0QeeePSBGz2+vLJ634GjfW/teN43n3k0cOCXNz/85c0PD3h8W3uHf99bNBuQ7j2U/dTj9wfuXb929fq1q296krUNLfnnilctX3j9wDV3r19z940eX1lVpWvIPw7wBQSA4fDXFSFNrV1/eGvrM1seXLb4+gZSfFzMIw+s/fjzfVfqGvLPlwS3f9uwNnPD2swbTsDKal0bWKgP+4OVTd3Y3eMKvstutwbtBrcPuItzdjzn7KqlGcEpFUM2NDpyIodQKvrs6q3VSTlw5FRackLAm0qIi332qceevcGDuzq7NNUrWaxUEKCrJDBpgX0qYGIYkGdyU8orq7Nzz3CO9h3ObmxqHc5hrW98/c33KRX8bQxoXUPLnsPZN3dz6xs/37HXvMAcPJbX2Nw6whPLvGuFpiqGoQ/ytvNhBRQARu5mVlTXDpry+YIg3aga/J5DJ2/pFdxuz3t/2fbGWx+KsvWGbcBveHb4k52HCy9eGsmDs45l/8fzv3F5FFG2EELPFl4qKikf/sT+/N7H3b1uUbaYvZRO5J0f/pBgkhLjEUKc+WzXjv3HG/oXRBhmOaCzqwf6BgPAjRhcJgoT4vJqf/7LzgGmICkhVlU8hq7t2H+soal1pBOwuxtjPEDQ9lXRuxHXTqa2oTn45tmJ8f4EB7z/SK57WOfq7Lmij7ft9LdhH24dsK29Y3DJ0rrG1qyTZ0ZobPceyPLX4CIINDAAMhgABlBaVt3Y3DYSdZqTm//L377+ny/81h+fI/e6va++/UlVTe2NHv/Cr17pcbllq12ULGYng5N5ha+9/Ul7UN7OAHuddSz7hV+/2uPymDFCGOM//PnTG73EtSqLfVgssmHouqYGK2e322PWn4BoQwAYIQeOnAr+81DWcUoFn5KkQ29ZnMw7/+pbH91oXg9w6bKOZf/4p88dPpYjW+1Wu3NwsvHNL5aYvPXhjryzRcO7mD/5z5fe/XCbbLWZDUXNgjFvfbj9dMGFG9mfV//4zoXiy5JslS02s469eciho6dGcmKKovhL52iI8x6X59W3tublFw7voe7ef/j1tz4QJZ9FhbZJABAguKZdZ9cQtgVjTKnwVn8l3NXdwwydGXp3j+sPf/5keCvRNwHffF8QJFG21DW2ZJ8+b97+6Re7fRaDkBttn3J/iXvz92APyu3xmlm4lypq3vlox42s4tlzRb959U1RssjWECoMXAf0BtXYq7lSO6QPc+j46Xc/3jG81S2vrH7+l7+/Utdo1iMALwiYzEBuMDBhFBZfjghzOELsoigGrGdHR+f5ouLSS+VZR7N/99rbWcdzzhWVtHX2yBabbAuR/K32VE3POXNeU1VD1+02m3l4eWV11rHsV//4jm5w2WqXrXZKRdP+YozbOrqzjuf6t20NSqgZ1VNeWX3q9NnX3nz/dH4h41i2hsgWm5kpp6raqTOFvsfreuDxdfWNJ3Ly3vvLts927uMcJScl9PS4/vzexy1t7aJkcXtVwzAS4qI0Td9zIKusskb2N+eEawAAjISeXreu6wlx0ZqmHcg6vu/gMVG2WHwTeehtW/+87jp87FRXV7ema8xgTkdI8FpVS0vr+aLiz7bvfe+jbUXFZQwRiy1Etoy295J/Z6Ow+HLB+YsOu1USRdMsuN2emqt1uafPvv+Xzw4cOeH2qLItRLaGCJIUiDnECBcWlzU1tyDOJEkM2JP8gsLfv/52bX2jJNssNkewucCYXK64cv5CieB3RANvra6+sbyiavvuA5qmJSXEt7d3fvL5rpa2Dkm2UX+jTlUzCi9eKii8wAwfEeFhAef7cnnliey8N9/7uKCwWLbYfScpSlA4GgACVNbURYaHxsdGXZ9Zg6/jGBOMzxZdigx3JsRFV1RWv/7m+5rO/HlYoqoZRcVl5wov+uefPmACHs/Oe+vdjwoKi0XZarE5zICR4suVO/cd2bXnYFlFlU+j9tko3ysuXZgeqCyQX1BY39gSSOhta++ck5xgtcg5ufkffPy5IEqSz4ER2tq7zpwr0jUNIW6+uvnSn+3Yu237XkmymgXzBkeCXK64Eh8zKzoqor298+33t/b0emSr3d/+FwdbwcamtsPHT2mq4vZ4ZFEKxEjX1TdeLL609bOdn3y+u9ftlS12i+36GwGASUUgNxiv2vBlGA5gYvA3wVO9blX1mtVTzRAaTAgx/6WUUpFQwWzyEVyI36xhqKuKpnoNXWPMuJa9I0qyxWxMP8D4+g4xdF1TzBhm5g9j9h8imPvMvhcK6rPX7yXMx3OEfSclUFESRIkzpnrdhqELkmyxhlBB5JypXo/qdTHGfOdhc9xS4CUAzHiTwDRVUTy9hq5TKkhWuyRbhtdp5rTWNUXXVHOemrsi142Jb4qL/gRj6l/kIrd3hj6zYGiqqnoNTTUrqZoNyam/pLVZLpUM7tjJOeNM11RN9eqaes2eYEJF/66sZUh/kTOm65qmesxDzMhn/9ui/h4tRNcUzvkAaxM4SU1TfObRfyBHfefpGw1RFkTp9kcDAKYfjBkjuo5zbjBDUzyq1+2bg7J/i5UKgclu+Gau19A0w2eUWJ+h8HkQomkoKBUCWpQz5jcmzHxIYGLOT5v9lS3/P3t3k9s0EAdw1F9Nk7aqyg1yF+7EFTgAKzbsOAtiwW1QS9JkjDwTB6dxnDhUEMR7bBDUcl3J/8wvEM/bNw/3X75++/jp8/Xs5ubuoayu0llWq+cfT99Xy0VRFJPp7WS6KeQ4FZ+Xi87cyLM4oK7jxsUH3wcMYb14elwuHuvm2qfTm7vNufamblg3Z/g1Yeo67nqZJsykmlzHh2P5D3FcqA/v383ncxnMBSx7m/HffUpE3v5qxd8fOjqEED8Skw7P46p3aGPMzSH1dpejtFouigMbzR/6+niKOqRN/OJSO437ENbxcrLuHwKnj4TNbdU022mdVjdC3b1Ps+3d2k6S19zNcm8stE+2SWcZ3IOkjuXc7sF2ZP50Li7EvK93rivLQvM99E+beFxI6+/tdsXp55DbPRgGS/ik1/E0duK92XzZ7pa5fXduu0o5Nii6p9hp3dlt9/HOmz2NQsjyrCjK7iOv9s/e/ltCMfzZ43ZJdnwN0zMGs3z7/qPFD/9EBntSNH9VMy/LsY8r7B5dlkVWjj/kdb4+L6uXf/XipQgYfVNXxdhj8jwv/+CjLsaOkZ3vtKzOurj+qVIcOVeZZcYRjHPq63hcwBy6N4fv3NPv/7K6mt3e17Oe1k0fVO69xc88+5gl2dljEC6HDAYAgIsz0LrAb/JGDgAAADIYAAAAZDAAAADIYAAAAJDBAAAAIIMBAABABgMAAIAMBgAAABkMAAAAMhgAAABkMAAAAMhgAAAAZDAAAADIYAAAAJDBAAAAIIMBAABABgMAAIAMBgAAABkMAAAAMhgAAABkMAAAAMhgAAAAkMEAAADIYAAAAJDBAAAAIIMBAABABgMAAIAMBgAAABkMAAAAMhgAAABkMAAAAMhgAAAAkMEAAAAggwEAAJDBAAAAIIMBAABABgMAAIAMBgAAABkMAAAAMhgAAABkMAAAAMhgAAAAkMEAAAAggwEAAEAGAwAAIIMBAABABgMAAIAMBgAAABkMAAAAMhgAAABkMAAAAMhgAAAAkMEAAAAggwEAAEAGAwAAgAwGAAAAGQwAAIAMBgAAABkMAAAAMhgAAABkMAAAAMhgAAAAkMEAAAAggwEAAEAGAwAAgAwGAAAAGQwAAAAyGAAAABkMAAAAMhgAAABkMAAAAMhgAAAAkMEAAAAggwEAAEAGAwAAgAwGAAAAGQwAAAAyGAAAAGQwAAAAMhgAAABkMAAAAMhgAAAAkMEAAAAggwEAAEAGAwAAgAwGAAAAGQwAAAAyGAAAAGQwAAAAyGAAAABkMAAAAMhgAAAAkMEAAAAggwEAAEAGAwAAgAwGAAAAGQwAAAAyGAAAAGQwAAAAyGAAAACQwQAAAMhgPwIAAABkMAAAAMhgAAAAkMEAAAAggwEAAEAGAwAAgAwGAAAAGQwAAAAyGAAAAGQwAAAAyGAAAACQwQAAAMhgAAAAkMEAAAAggwEAAEAGAwAAgAwGAAAAGQwAAAAyGAAAAGQwAAAAyGAAAACQwQAAACCDAQAAkMEAAAAggwEAAEAGAwAAgAwGAAAAGQwAAAAyGAAAAGQwAAAAyGAAAACQwQAAACCDAQAAQAYDAAAggwEAAEAGAwAAgAwGAAAAGQwAAAAyGAAAAGQwAAAAyGAAAACQwQAAACCDAQAAQAYDAACADAYAAEAGAwAAgAwGAAAAGQwAAAAyGAAAAGQwAAAAyGAAAACQwQAAACCDAQAAQAYDAACADAYAAAAZDAAAADIYAAAAGQwAAAAyGAAAAGQwAAAAyGAAAACQwQAAACCDAQAAQAYDAACADAYAAAAZDAAAADIYAAAAZDAAAAAyGAAAAGQwAAAAyGAAAACQwQAAACCDAQAAQAYDAACADAYAAAAZDAAAADIYAAAAZDAAAADIYAAAAGQwAAAAyGAAAACQwQAAACCDAQAAQAYDAACADAYAAAAZDAAAADIYAAAAZDAAAADIYAAAAJDBAAAAyGAAAACQwQAAACCDAQAAQAYDAACADAYAAAAZDAAAADIYAAAAZDAAAADIYAAAAJDBAAAAIIMBAACQwQAAACCDAQAAQAYDAACADAYAAAAZDAAAADIYAAAAZDAAAADIYAAAAJDBAAAAIIMBAABABgMAAIAMBgAAQAYDAACADAYAAAAZDAAAADIYAAAAZDAAAADIYAAAAJDBAAAAIIMBAABABgMAAIAMBgAAABkMAADAf+hnAAAA//8Y9tOo6elFBgAAAABJRU5ErkJggg==;" vertex="1" parent="1">
          <mxGeometry x="660" y="116.84" width="190" height="106.33" as="geometry" />
        </mxCell>
        <mxCell id="rdSZgKfeFoEqGlZAM-YM-62" value="SSH Remote" style="text;html=1;resizable=0;autosize=1;align=center;verticalAlign=middle;points=[];fillColor=none;strokeColor=none;rounded=0;" vertex="1" parent="1">
          <mxGeometry x="922.88" y="325" width="90" height="20" as="geometry" />
        </mxCell>
        <mxCell id="rdSZgKfeFoEqGlZAM-YM-63" value="" style="shape=image;imageAspect=0;aspect=fixed;verticalLabelPosition=bottom;verticalAlign=top;fillColor=#006600;image=data:image/png,iVBORw0KGgoAAAANSUhEUgAAASwAAACoCAMAAABt9SM9AAABF1BMVEX///8hFwf/tQD/DjP/cAIAAAATAAAPAAD/swAaDgAfFQO/vrwYCgBNSEH/aAD/sQC5t7X/ACD/ZgCBfnsdEQAVBADPzs3/ACn/rgAKAABgXFf/yrV8d3L/truwrauVk5Dr6unf3t3/AAD/YAAzKyFuamb29fXa2dj/AB7+5ub/ABHIxsSbmZY+ODArIhf/tx/+xmX+pKj+7eb/eij+w6r+6tD/sI2mpKH+4NT+vkj+zX/+8+b+5sX/2aKal5RjX1r/7tn+yXD/e4L/aXf+kpj/UV/+naL/1sX/q4T+Ijj/j1X+O07+ZG3+0dP+pHr+0Y3+mGX+3Kr/fS//jE//vD3+uZv/3t9JQzz+hIz/xMX/RVD+VmP/wlvEOJzjAAAKyklEQVR4nO2cC1vaSBSGQZ2EqyBXQQooBBAUq7Witlu2Vtu6rta2a7W7/f+/Y3OZSc5cAsForfW8ffookzE5+XLmzMyZCZEIgiAIgiAIgiAIgiAIgiAIgiAIgiAIgiAIgiAIgiAIgiAIgiAIgiAI8hTobB+9O3r20FY8Do7Xlsrl8lJ/+6ENeQSc9OYd+u8e2pRfnpuleUbv/UMb84uzvjbv0e88tDm/NsdlINYShq2JnACt5ssYtTh2Puzufby4+Hi1sr9jfT7lxDoJd/JOMtu8AxsDUxrc3+V2rv7K5XKLlFxr0Sw748T6O9T568Qkfze2BmA1en+X233RWlzgaJmlRzBmlY/DXKBLEtFolGzckb3T6JC4dbl7UUtUyiS3H4mc94FYa+thrmAUTeOjCXJXFk9hRKzLRe/lcrs5SazFC7P8xHOtpaNQV2gXHOt/0vjDeTZR0r2Pk7+QxFpomffVKTO1ymfhLhBPONav3o2906imnMsN7vSsnw7sH/stWa1Ls7xz0rfkKvfDRfdIRP+5YqXjzuWSs/3Z6ihZz/oe/ZFZfmn/8pcsVm7XOnD+7rR3dnR+e7sdHoVYnXop2W36eeNWbC62Zf+2o3Ct1m5IkwGPQqy6+a9h/ldiajU3l/ls/74nd4gLucuwRrs8ErE2RsmIuh3aWplqOZ8UYi0s5j7u2wf3L0Pq9ijEag4GkXpHKdaBo9Vc7ND+uCIPH2y5Wi++LLRyi7m9UNY/CrEig/rqYKQ6cJiZoyy/sgu+WMrkXnyxtVFEsA9hrP+pYnW7m86wTt8olUozXbKrHAi+XmZazcXY8OHiw45zcGflUh7U53wHlKv5cb6kKANDQiDW6qg2HhsN1UMfGYb0YM0yZcgdjPLG2MhvDESzRuas0NHKVMuakV6DGs3GuCZ2d828XMbj+pUVtV4rKlwtinJ99TnVgOhFXZj2Je0y7y5dsbJtQrRiSjNvoyGeaJMUi2TIlw2tsk2xZtcgpKIXi0WtQkiVu1NnFgqpjN2Dq6RS1EiNP5dpqiYbAziEYsXmlHU+CsOJnE9DdKwjTUWZ+0ypWFHvoUcTFWGA/cae0PGz34ZTJkzADVIEYqRIGvjORkXQCs5I23YsI1wzGBamBIhXy3OQ5T+UtfbFlqisVaKT1pGizO1ZdPFxO3fxBp7ICTSJFCxz5pRxzrU6Q1GPYsW71SwRLxNvs2NN55gOnwctq/gnRJ7HoFaZ5371+DljTjlKzSosoGUVVwylWILC9C65VAERfcNkmJLOUwB+3Saaxq4W16z27joSfYapMTgbLdP4tgngHctfK2mGraqiEqtOy9xIAMVKpFLuJ5gX8BeLKxvrCtU97zEvXqu1nQvEq7Vao+61USZWFZxuqlifoGPRzlBNZ3rUmlEsjQyr1SHRqEuAeB5MrIHbzBIprehGQD6ssXGW0MndSqwM51h+tWz4fIRqHD+bWKTWtD43a0wGb8AcTKzNODsTGeeNIesw+JbqMyi9jVivp44bABdwBNFSVJhJLC9I0WRmwYvdgcTqMsei45ISi2AEjsbuUKxXW7FgjdAGToNyK/LxWcQqgtBqOC3R67MDidWgPaEXtaMFWYG7EGvnw74T7f5x1cq8lG+fB+Yj7GSzwCxiwdEM67NdXwskVtpxJM27WknRY4YXay9n0vpq5xHm2Cx6S757gQ4XteTjM4iViMI/dHK/nrMFEovIqrP8ftMrCivWzgL1kJaVP/iTDh4y6uEox9fJQWsGsYpGRKqUKLg6BBCro6iU14SGGVqsjteYWlfm5x80mfWnfPciu6Ad5valwzOIpXMzsFVhvSqIWE2pW3AnOFCZkGJdgjtu7UQiL50ecVkpD89+a9GlJUf4CWJVBLEqfE6B8M0niFhdxe2yRULQHYYTi8ux22HaFiv2j0odkd0VD9mzkhPEckeKjliET7YQPvwEEYveGtee2dwKPIlwYq3w+ZYI7RBjP5TqzMQksVz7lWI5sx5XLNZjwgQV7ek09nkwQSwwK/cRS+WXJdn8K04sK0zbc+nY20B6TGSgaPR1MRNRUDZDXqyhv1huL5pUXCwrtnlfsWiUjKdl82E43bs/sVQtY0RjrjuXcbp3IQ8ixKxNeQgQEeP5BLH06WKpuoeknKK5x2aoelwNJzPgTWQd6yf3hmzNHSQimmK7CSdWR2zVEa8RgAgRKsA/A3yTjtIbSlRAWU0T7tvZqcGPs7LCOIvt5gB32BW1CSeWqg9pyAOPMEOHb2tLLmuK9weYBU2vaChumnFcLcEl2KmAY74OF2rrYuwOKRYb7IPxq8KfpUHp8+CD0m1vg/d8T/YsFmuAsfJ0LSvEp4jbJrygn5VdlN2ce9MhxaLOCzy8yR41t0h0++nOf2ADoGqDd56mLr35GnWsFFxWEa10m6r7V8xu3VWiITltQLGYu4iLaCOWs3CD6bUja6Et1IQT6a0ZJtJw/9+pogL1I9ORnAe52lakmFjDdItoC4NWUj+KEippnp4YpFOzwcSiHqSLC1zseTA7mtf0QUs1zYnLbVI074FjlZX7/4ZutjJaa+Q3lcnLEXOSvG1BhwkBBWV1ohoZNxoGYcl2sKwRUCzq7ImKczHvQJotdpCiaWqauB+bfrc/W/KvBxyrp3w/zFt9Smi65pMWr9BcqU42DWOTCVHgkjZepj6l6+4aDlwcCygWk72g1fJjDaznljxTi7rOMtSg5UvMlFa+gVuWfd5JuYZrnow4HwaSrpmFIlhnKKnrQOCyQ0CxXE3Mp2dNqrxIb0hrsFFh2CMyw4IFt2PZby98pxKXDCiInp1XKCGumk+twwK8YpGSCzvCGj4YjrTlB5uYuFF3hqUw6Ffzve8+1ZqaJhiQktfDa6ISCXmHgaIOt5zflSfN7vI37Po2+POAqNdpi74Vn7xPV1hknTBBPOPEmvet16mSFHf9a0WDHRFurbVCFPvGptURJt+wrAnLqlAtPQWt4XdKFEh7yqakoMv3vFa9SS+GDdKE6MVUPFXUCblW7yIz+0BS0VIpu47eUAZAWieeSlk7ZKQ6A6LFi8KrE1m7TPDSN8Acgz9Ld2xegh1r++wh9Qi2MeRbmfcrf8dybjPbMKrpqtGY9EZTaZQfp6vj/GhCmCiNauN02qdOt5Y2xEfRNdKG3JRMc9K2OfJD6SQdU/P1Caa6HHJRK6asc9znper7Razfnqmjh23RrcK+Q/eIkbdJflu7+U63Sa4/e9dfmhfoPeH3fqUNuGflcq/fO/3339N+f6ksSvWEG6GFsLX7WU/Sx2p7vf7p2Wm/V+6Fet3w8cO/NCD7kvWC043z1s75Udg3nR49MfA6yrEUo6xvvnjCYUoCvOjUV2iFX07AccBeoftbEdFtrV6/3Vreejs16fUkoC9nnsuO5XyPw0HGbKux2PIdLJn9NpxKWjmpK7aNK0j6+amgGDbYCeQDb1I0KTXxtFiTu8KeOWZ4CafbdOiKRLZPxUF7PyLMtjOfHtrIX4f19//1+z3ra9isb2Iz5z0RuAY0dzfbIn4n1r9vH98cHd28f3Zuz6i3YM5r+jLQ0+aA86wJb/ggwrpGkIX+pwyXfA6y3+ZJA953RceaygFTa9I7iQjl07I5OYxlfJZ/EIHPb58ffn5oIxAEQRAEQRAEQRAEQRAEQRAEQRAEQRAEQRAEQRAEQRAEQRAEQRAEQRDEh/8BwqgK/X8xRhAAAAAASUVORK5CYII=;" vertex="1" parent="1">
          <mxGeometry x="947.88" y="643" width="152.12" height="85.19" as="geometry" />
        </mxCell>
        <mxCell id="rdSZgKfeFoEqGlZAM-YM-94" value="" style="aspect=fixed;html=1;points=[];align=center;image;fontSize=12;image=img/lib/azure2/databases/Azure_SQL.svg;" vertex="1" parent="1">
          <mxGeometry x="450" y="577" width="64" height="46" as="geometry" />
        </mxCell>
        <mxCell id="rdSZgKfeFoEqGlZAM-YM-101" value="" style="shape=image;imageAspect=0;aspect=fixed;verticalLabelPosition=bottom;verticalAlign=top;fillColor=#006600;image=data:image/jpeg,/9j/4AAQSkZJRgABAQAAAQABAAD/2wCEAAkGBxQHBhUIBxASFRUXFxsVFxIXGBUbGhkYFREXFhUhHxUYHSggGBslHRUXITEhJiorLi4uGB81RDMtNyktLi0BCgoKDQ0OGxAQGy0mHSUtLS0uNi4tNysrLS4rLS03LS0tNysrKy0tLSstKys3NzErKystMDctKzc4KystLS0tK//AABEIAMMAwwMBIgACEQEDEQH/xAAcAAEBAAIDAQEAAAAAAAAAAAAAAQUGAwQHAgj/xABGEAACAQIEAwUBCgsHBQAAAAAAAQIDEQQFEiEGMUEHEyJRYXEUFRYyN0J0gbPRUnODkZKTobGywdIjMzU2VNPwF0NVcoL/xAAZAQEAAwEBAAAAAAAAAAAAAAAAAQIEBQP/xAAgEQEAAgICAQUAAAAAAAAAAAAAAQIDESIxIQQSE0Gh/9oADAMBAAIRAxEAPwD3EEAFBABQQAUEAFBCgQpBcCggAoJcAUEAFBBcCgEApAAABQAIAKCACggAoIAKCACggAoIAKCACggAoIAKCACggAoIUACACggAoIAKCACggAFIAKCACggAoIAKCACggAoIAKCACgAAAAAAAAAAAAIUAAAAICgAQoAAAAAAAAAAACAoAgOJYiLrugpLUldxvvZ8tjlZETBsBx160aFJ1K0kkubZ9xepXQ3HSFBQSlAUAQAoEBQBACgQFAEBQBAUAQFAEBQBDCcQZ2stp91Rs6jWy8vV/cZsxOaZHTzKvGtVumnvb5yXR/eeWaL+zh2peLa4tIhUq0ZrMlqu5bVHfd9bvr7PauhueWZ/TxeCdWu1FxV5r+a80/Lnfb293G0qVPL3SxCiqaVmuiS5fX7DzevpVZ9xfTfa9r2vty6nOtN/Sz4ne2aZnEyubZnUzvFqjQT038MF19X6/sS+tna4ezx4CfuLH303sm+cHfk/T9x3eC1S7puH971vb4t9tPpyv1vz6GTzDIqWOxccRUTTXxrfOS5X+/y28rXx4sttZa28/i1KWnnE+WRrV40aDr1pRjFLU5NpRS53beyXqY/4TYP/AF2F/XUv6jkzzLPfXI6uWQloVSm6ala+m8bLw3V7eV0eYf8ARJ/+QX6l/wC6dOGp6X8JsH/rsL+upf1CnxFhKk1Tp43DNt2SVWm223ZWSd22+h+c+FeH/hDxFHKFV7vVr8enV8SDl8XUuem3Pqej4Hsg97cbDHVcfG1OcajvSsrQkpPd1LRW3PoB60DUcR2k5bh6/cyxabvZuMKko/pRi016q5seXZjSzPCLF5fUjUg+UotNeq9Guqe6A41nOHeM9xrE0O8vp7vvIa9S5rRe9/S1zvngOD+Wh/TJ/aSPdcfj6eXYV4rHVI04R5yk0l+d9fQDsg1Gl2lZbUr9ysXbe2pwqqP6TjZL1dkbTCvGeH90QknBrUppppq173WzVt7gcpx1aipUnVqySjFXcm0kkldtt7JLncwUeNcBKlKqsbRagtUt+Sulytdu7Ssrvc67zrB8ZcP4qhg8Q+7VNxqVNM46FKDadpRV0lFv6mgMpk/EWGzxyjlOIhUcPjKN7q/LZpNr1WxzYTOcPja/cYPE0Kk/wIVISltz8MW3see9lHD2HyzNquLwmPpYmfd6NFJNJRc4tuV+rcUkuS33fTUuyH5QV/61f3Ae/Axub55h8lUXmtenS1fF1PnbnZc3a6/OcmVZtRzjDuvllWNSCelyje10rvdrfmgO8DGYnPaGFxDoVZu8fjNQqSjDa71TjFqNk03dqyd3ZGST1K6AoKAAIAPP+Is1njcU6M04Ri7KD57dX6/u/a9hybIqVPL/AO101HNeKXSz3Si+iXnz29luXiDJFmVPvKVlUS2fn6P7+hqmFzStlVOeEjt0s/mvrb/lupy7R8WWbZPMT0yTwvu75zCg8mzXThal3HdNc1fo+l7c11T9bG75LjnmGAWIqQcXy9HbqvRmr8PZG8wqe68bfRe+97zd99/K/N9TdoxUI6Y7Ly9noevo6XiZt1E9QvhrO9/T7AIb2h+e+yj5Rqf5X7KZtnbnn06FGlkmHk0prvalusVLTBey6ba81E1Pso+Uan+V+ymZzt5wEo5nh8ySeiVPur+UozlJextTdvY/IDE5JleSyySPvxjqnfyjeTjGram2r2SVNqVuTbbTafJHP2OZm8BxjLK6VTVSqqa6pN005Rlpe6bUWt97P0Mzwtw9kmdZTCvOShU0rvKcq7i4yS8Xhk1eN7tNbW9boz3C2Q5Th+JL8PSc61GLm5RqSnGKknB+K7TbU3sr29NgNBwfy0v6ZP8Ajkcna9nks04r96nPTRouMd76dUknOTSu3bVbk9ou3NnHg/lpf0yf8cjr9pGBWW9ok6mYQlKlUnCq0nZyhLTrs+jupJPzQHZzXKslhkUlluPqPERjeMpRq2nNK9tLppJN7Lfa63e99g7Gs2lXyHF5VWk2qcddO/RTjJSS8leKdvOTO7g+EMixmEWKoV46bXu8Rpt7YyacX6NIy/COU5fhsBisZwq5SVpUZz1ScW4wUvDq5palutuYHj/AfDHwrz33BKeiEYOpOSSb0xlGOye125Jb8t3vax6/heDaXCPDeYLA1ak41cPLadrrRRq/OSSd9XltY0TsJ/zZV+jS+2pHsXFH+WMV9Hq/ZSA8o7BP8YxP4qP2hqvBeew4b4mnmeJTkowqKMV86T2ir9Ffm+ivz5G1dgn+MYn8VH7Q07hfIPhLxBPLYz0ycakoy6aopyjf0b2dt97gZ/IMkxPaXxDLNM2lKNFO0prkkt1Tpp9bPd72vd3b39yy/BQy3BxweCgoQgtMYrov5vq29222eI8AcU1OCs6lkeeqUaTnaSl/2p8tXrF7Xts1Zr192hNTipQd01dNdb8t+oGh5nwrVqZ/DHUoa3Tm5w/u9D14ipWfeSlJTjZ1LeBSuorndpbrluF9xZdTwmq+iEYavPTBRv8AXa52QBQQoEBQBDG5hk1LH141q63Xl85eT80ZIFbVi0alExE9vmMVCOmKsvL2eh9FBZKAoA0Hhfs1hw9xBHN6eJnNx1+BwSXji4vdN8tRt+c5TSzrL5YDMoKcJc15Ncmmt010aO+API8Z2KRlW1YLHSjHpGdJSa/+oySf5kbZwPwLS4RlOtSqzq1JpRlJpRjZO+0Ve29ubfL2m4ADRKPZxCnxh8IvdM9XfOt3ehW8Um7ar3tvzsZzirhWhxThFQzKLTj8SrGylC/OzaaadldNNbexmfAHkD7E/wC28OP8P4nf7S31/sN+4Y4VpcN5HLKsHOclNylKcrXcpQUG7JJJWirL0NhAGkcE9nsOEs0ljqOIlUcqbp6XBRW84yvdN/g2+s2zM8IsfltXBt2VSnKnddNcXG9utrnbAGm8D8Bw4RxdTEUa8qmuKjZxUbWlfo3c63CnZxDhzPffaniZzdpLQ4pLxK3NN8jewBp/G3AdHiypHETm6VWOzqRSeqPRSTavZ8nfa7+rKcJ5JPh/Kll1XESrxi/A5RUXGP4N03dLp5cuVrZwAQFAEKAAAAAAACAAUAAQpAAKAAAAAAAAAAAAAAAQFIBQABAUAQFAEBQBAUAQFAEBQBAUAQFAEBQBAUAQFAEBQBCgAAAAAAAAAAAAAAAAAAAAAAAAAAAAAAAhQAAAEBQBAUAQFIABQBACgQFAEBQBAUAQFAEBQBAUgAAACgAAAAAAAgAFAAEKABCgAAAAAAAAAAAAAAAAAAAB/9k=;" vertex="1" parent="1">
          <mxGeometry x="530" y="224" width="115" height="115" as="geometry" />
        </mxCell>
        <mxCell id="rdSZgKfeFoEqGlZAM-YM-102" value="" style="shape=image;imageAspect=0;aspect=fixed;verticalLabelPosition=bottom;verticalAlign=top;fillColor=#006600;image=data:image/jpeg,/9j/4AAQSkZJRgABAQAAAQABAAD/2wCEAAoGBxQUExYUFBMXFxQWGBcZFhYZFxYcFx0ZHxYaHx8ZHBwZHyoiHB0nHRgYIzQjJysuMTExGSE2OzYvOiowMS4BCwsLDw4PHRERHTInIig4MDAwODAwMC4wMjowLjEyMTAwMDAwMDIyMDA4MDEwODAwMC44MDAwMDAwMDIwMDAyMP/AABEIAJoBRwMBIgACEQEDEQH/xAAcAAACAgMBAQAAAAAAAAAAAAAABgUHAQMEAgj/xABUEAABAwIDAwYFDwgHBwUAAAABAAIDBBEFEiEGMUEHEyJRYXEyc4GR0QgUIzQ1QlJUcpOhsbKzwRdTYnSCkqLwFjNDw9LT4RVEg4SjtMIkdZSk8f/EABoBAQADAQEBAAAAAAAAAAAAAAACAwUEAQb/xAAxEQACAgECBAQEBQUBAAAAAAAAAQIDEQQxEiFBURMyYZEFIoGxFCMzUnFCocHh8BX/2gAMAwEAAhEDEQA/ALmQhCAEIQgMIUVj+0UFIzNNIG38Fo1e75LRqe/cOJCrXaHlNqJrtgHMx9ejpT5dze4a9qtronZtsSjFstPEMVhhGaaVkY4Z3Bt+6+/yJZr+U+hZowySn9Blh55C36FUM8znuL3uc953uc4uce8nUrwu2OiivM8lirXUsubldbfoUjiOt0gafMGu+tahyvO+Ji3jj/lquUKz8LX2+5Lw49izqbldj/tKV7fkSNf9oNUzh3KRQSWBkdGTwkYQP3m3aPOqYQoy0lb25HjrifRdFXRytD43te07nNcHDzhdC+cqCulhdnhkfG7rY4tJ7DbeOw6J52d5U5G2ZVszN/OsADx2ubud5LdxXNZo5R5x5kJVvoWohceF4nFPGJIpGvYeIO49RG8HsOq7FyNY3KzKEIQAhCEAIQhACEIQGCvLitVXUtY0ucbAb1W+1+1skpMbDlZ1A8P0us/QPpV9Gnla+WxzajUwpXPm+w6V211JGcrpgXDeGBzvsgootraWU2ZJc9Ra4HvsQqezLpw6J7nXZcFuuYXFj13HFaD+H1pbszf/AErM7LBcbsaiG9x8xUdU7c0LL3nBI3taC4+YKsMYqaiW7XPPNi+g0zEb7/CPHq7FD5PMq1oodWy78bP0LrodsaWU2bIQTuDmlt+6+9SsNWx3guuercfMVRWHyWOU7ju7CnfZzFnEZHOOdurXcSPSF5ZoUo5ixHXyUsSSLGWLLjwus5xl+I0I7f8AVdqzmnF4ZpxkpJNGLIWUv7W4yYmiOM2e4b/gjr7zw7ivYQc5KKIW2xqi5M7cTx+GHR7+l8FvSd5hu8tlB1XKDE3wYnu14lo+olJVfLrYHU6uPG57etcTitev4fWl83MxJfE7pSfDhL3Hv8o7Pi7v3x6ExYVi/PRtfkLMwuGki9uG7ssfKqxwKg56UNPgN6T+4cPKdPOrIo26ADef5+pc+poqhyiuZ16XUXWZcn/YloZM2trIWWMsABwQs81FnBsQhC8PTCS9udvGUt4YbPqOPFjL/C63fo+U8AdnKBtb63bzMJ9neNXfm2nj8o8B5eq9TVMWa7t7jqb7yeJJ6116fT8XzS2LIQzzZqrKuSV5kle58jt7nG5PoHYNAtSELTLwQhC9AIQhACEIQAhCEB3YJjM1LJzsL8rvfDe1w6nN4j6RwIVxbH7XRVrNOhM0eyR3/iaffN+rjwvR620VXJFI2SNxY9hu1w3g/iOBHELnv08bF6kJQUj6OQl3YnahlbFfRsrLCWPqJ3OH6JsbdViOCYlkyTi8MoaxyMoQheHgIQhAYXh7wBc6L2l3a3FcjC0eX8G+Xf3KddbnJRRVbYq4OTF3bTaDMSB4LdGjrJ3X79/cO1Irnkkkm5OpK6cYqsz7XuG3v2u98fPp5O1ccbS4ho1J0C3qoKuOEfP2ylOTlI68No3TPyjQb3O6h6exPODYAHuEbRliZbO7iTx73Hr4eYKO2cw/pMiZq5xu4+S5J7LKxaGlbGwNbuG88SeJPauTV6hx5Lf/ALmdOk0yt5vZb+voJO2OEBjxkblBYC0DgW6fVbzpFrabK7sOo9Ct3aynzRtd8F1vIR6QFXmNUls36JuO47/57FZpLOOtZK9XDwrWls+Yv82p7Dpj0XjeN/1FROi7sKkGrfKPqP4LqaORyHzZytyygX6Lxby7wfw8qbFWlLVFuVw3tII7wbhWPTyBzWuG5wBHcRdZGtr4ZKXc2PhtvFFwfQ2Kvcbqc8kkp1Fzb5I0H0AedO+LT5Innjaw7zp/r5FXuPuysDfhH6Br6FPQQzLP0I/E54il9SAkdvJ3n+StSy9111YRS85IL+C3pO/AeU/itaUsczHrh0GbZiiyMFx0n9J3YOA830kpzwyLTMeO7uUFgkBe7v3n9HimlvUsXVWZeDe0lfLPRHpZQhcZ3mFE7VY22kgdKbF3gxt+E87h3byewFSyqHlHxrn6ksafY4bsb1F9+m7zjL+z2q2ivxJ46EoxyxdqZ3ve57nFznkuc47yStaF6hjLnNa0Xc4hrRpqSbAa9pWtsdBzzw31G9cyZa7ZOsiY6SSAtYwXc7PG6wvvs15NvJooOeG+o3pGaezCZzIQpDCMAqarMYIjJktns+Ntr3t4bhfcd3UptpLLPSPQvc8TmOcxws5ji1w0NnA2IuNDqDuXfg+zlVUtc+CEyNa7K4h8TbGwNrPeDuIXjkkstgjUJh/oDiXxQ/OU/wDmI/oDiXxQ/OU/+Yo+LX+5e6PMruLyF2YXg01RI6KGLnJGguc3MxtgHAE3e4De4DfxUp/QLEfih+cp/wDMXrnBbte4yhfQmH+gOJfFD85T/wCYj+gOJfFD85T/AOYvPFr/AHL3Qyu5G7P4zJSTNmj3t0c3g9h3tPf9BAPBXzhVeyeJk0Zux7Q4dfceog3BHWF8+19DJDI6KVuSRlg5t2mxIBGrSQdCNxT5yO47le+kcei68kXY4eG0d46X7Lutc2qqUo8a6fYrnHKyWkhCFmlIIQhAaaiUNaXHgFWe2eKEE69IfbcN/wCy3XzJ6x+fQN4DpO/nzqnMerudmceAJt3k6n8O5oWloa/6mZmsnxPhXQ47qVweLKM53nd2D/VRlLHmdruGp9CnaIXObgN3f/p6FqRXVmNfJr5UOuwVLd75D70BvlOp8wH8ScVD7IUnN0zL739I/tbv4bKZXz+pnx2Nn0Wjr8OmK+vucWMw54ZG8cpI7xqPpCruvsbHyH+fOrQVaYxBzcskXwXG3dvb9BC6tBLm4nH8Tr5Ka/gUZ25XFp4Fe6OfK8HtsfKtuNxWIeOOh7+H0fUo3OtQzYJSjkao5LKwdj6rnKZnWy7D5Dp/CQqwpJ8zAeNte8Jz5Nq6/Oxk/BePsu/8POuTXQ4q89i/4dLguw+uV/kndoXXys/aP1D8VXO1NYDMWDcwAHv3n+exNe2ONCLNY+yO8H9Fo996FWj5iSSd5NyvNHBximy3WTVk2l0OnOmHBIMrB8J2p7uA830kpew2LO8X8Ean0eX0qwtjsN5x3OuHQaej+k70D6+5Xai1QhllVFTnNJDFgtFzbBcdJ2p7Opvk9KkUIWFJuTyzfjFRSSMoQheEiL2nxH1vTSy8WsOX5R0b/EQqOJ69TxKsvldrMsEUQ/tHlx7Wsbu/ec0+RVotHSRxHPcurXIF1YP7Yh8bF941cq6sH9sQ+Ni+8aul7FjLsq6yMSRwvt7M2TKDudlDbttxJa4nuaVUW2OAmknLBfmndKI/o38EnradPMeKbOVqdzDSuY4tc10jmuG8Ec2QV3SsZi1BcWEzd36EoGrfkuB8xB3hcFTdeJdHuUx5cypp4b6jerC5EfBqe+L6pEiyxlri1wIc0kOB3gg2IPaCrA5HBpU98X1SLq1L/Kf0+5OflK6x32zUePm+9crJ5Ffa0/jv7pirbHfbNR4+b71ysnkV9rT+O/umLzU/o+wn5RZqeUmva9zQ+Owc4D2MbgSOtePymV/w4/mx6Ur1rxzkmo8N/wBorTnHWFaqa8bIlwrsSeCY9LTSumiLRI5rmkltxZzg46d7Qpo8pdf8KP5selKiwV7KqEnlo9cUy6to8dmhwttSwt54sgJJbdt3lgdp+0Ug/lLr/hR/Nj0pt209w2eLpftRqp1zaaqEottdWVwimjpxSvfPK+WQgvkILiBYaNDd3cAjC650EsczfCie13eAdW+UXHlXMhdnCsYLT6Op5g9rXNN2uAc09YIuD5ltSzyZ1vOYfDfewOjPcxxDf4cqZlhzXDJrscrWHgEEoXNiEmVjiTbTf9f0XRLLwRk8LIobb4rzcMrgek8EN6wDZt/JmCqm6Zds8U50F1+iXtaz5DQ4/SSD/wDiW6YZnaanqGpW5VBQjgxHN2fN05nfRs3NHhFM2B4eZZGRNvY+Eepo1c7s9JAXNs/srUyEHm3Nv754LWgdeup8l1ZWzuAspmaHM93hutv7AOAUdRqoVwwnz6f7KadJO63mvl6vv6IlY2gAACwGgC9oQsQ+iMJM5QcPIyztGngyefon6SP3U5rTUQNe0scAWuBBB3EFWVWeHNSKb6lbBxKhnYJGlp4/QeB86WpWlri12hGhVhYvsbUROJhHOxncLgPA6iDa/ePMoXE9l55BfmJGvG4824+Q5QbjtW4rq5xypIwIU2VTcXF4fpkg8Jq7HKdx3d/+qlsMxl1LNmba5DmgHdZw0J7AbHyLji2Tqxr62mJ+Q4D6d/lWx+ytYTc08t+PQKOdbjhte5d4ElLiin7GrGa1zrlzrvebknfb+dPIosPvoN6l6rZWue7N62l4aWtbuvwUvs5yeVLnB0wETeLiQ59upjQSAe127qUJXwXPKJVaaaSWG2Y2RwN8rxG3QCxlfwaOofpcAO8q1aSnbGwMaLNaLALnwzCo4IhHEMrRxHhE9ZJ3ntKiKp9a1r2xl7i6KzXOZHdsjnS+yaAAhrWN6NtS5vWVk6i92y9DV09CqXq9xmQvLdy9Kg6AQhCArHlfmvPAzg2Nzv3n2/8ABJCcOVq/rxnVzDPvJEnrV06/LR0Q8qBdWD+2IfGxfeNXKurB/bEPjYvvGq17EmPHLFupu+X6mJa2K2gNJOC4+xSWbIOoX0f3tufISmblj3U3fL9TFXiooipUpP1+5CCzEe+U/Z8AisjF2usJrbr7mydx0B/Z6yujkd3VPfF9T175OcabPC6ims7K0hgPvotxZ3tv5rdS7tgsGdSzVcLrkAxOY74TDzlj36EHtBVE5NQdct19skW8JxZWO0UN6ioI389N945P/Ir7Wn8d/dMSLjftmfx033jlYHI+P/Tz+O/u2K/UP8n2JT8pzS8qkDXOb61k6JI3x8DZc2IcqEMkUkYppAXse0G7NC5pF/pVeVv9ZJ8t/wBorUpLTV7nvAjAQVlYK6iZbO2nuGzxdL9qNVOrY209w2eLpftRqp1y6XyP+WV17AhCF1FhavItOTTTM+DLcftRt/Fp86flXXIlfJU9WaLz5XX/AAVirG1H6jOefmZleXNB3hekKkgeGMA3ADuXqyylDlP2nqKCnikp2MkkknbFlkDiCCyR2mVzeldgQYG6yyuHBcSZUQRTxnoSsa9vWLi9j2jce0JW5QNuJKOanghjZI+RzTNnzEMjdI2Np6JGrnONvknRAO6FFYnHVGaAwvjbC1z/AFw17SXubl6OQjcQd+7y7jKoAQsLKAwhF1lAYWULBKAFlCSuT+vqq5or31BbBI+URUojjDQxrnMaXP8ADL7tudbIB1QofZzH46tszmNc0QzyQnNa5cy13CxOlzp3LdTYzFI/I12t7A20Ol+8eW19Lb0BJIQhACEIQFY8r8Np4X8HRlv7r7/+aSCrL5XaTNBFKP7OQtPc9u/ztaPKq0WppXmpF8PKWFieD0Aw3nGZM3NgslFucdLbwTxN3aFvDXdbRGwlwE8JJsBLGSTuAzjVctllThW4ppvJJLA+crFZHIKfm3sfYy3yua62jN9ikNCF7VDgjwiKwsG6hq3wyMljNnsIc09vb1g7iOolXHgu0lPNE2XnGNc4dJrntDmkb2m5vob269/FUshQupVh5KPEdWMuBnnINwZpSCNxHOO1Ce+SmtjjglD5GMJluA5zQbc23XUquliylZXxw4T2UcrBZU2xWFucXGfUkk+zt4la/wCg+E/n/wD7DVXNlqngB1A1Vapn+5keF9zZj9NHFUSxxG8bHkMNw67e8b1wlZQutLCLCz9rsRidgzI2yxuk5um6Ae0u0dHfog30sfMqwQhV1VeGmvqRjHCBCEK0kWryLwEU0z/hS2H7MbfxcfMn5LPJnRc1h8N98maQ9z3Et/hypmWJdLNjZzTfzMyhCFWRBJXKnvwz/wBzpfqkTqlrbbBJak0fNZfYK2CeTMbexszZraG7ukNEBG7GytoZ6vD3uDYor1dPewAp5CS9o6mxyB37yV8QidNRy4lICH1tbSmIHe2mjmDYm24XF3G2+4Kb+UXY99cITFJzcjXGOR97XppBllZu1NgCL9R611bZbPPnpI6ena1vNyQOa0mzQyN7TYafBFggObayQjE8JAJAc+ruATY2ptLjiuA4eMTr6tlS55pKQxxRwNe5jHyOYHvkkyEF1rgAE2tftvOY/g0stbQTsy83TOqDLc2d7JDkblFtdVG4hgVZT1ktZQCKVlSGeuKaVxZ02CzZI3gEA23gjr33FgNe1mBQ0OE1rKVpjYWOfYPeQ13RBLcxJbu3Bc8lCKGgkxMl0lcKXWRz3uYC4NsxrL5BG12UDS9m6m5JUlitBXVeH1UM8cMc0oLYmNkc5rW2b4byNXZs24WtZTFXgzZqM0svgvhEb7cDkAuO0HUdyAWsK5NqWSBklVzk9VIxr5Kh0sokDyL9AtdZoaTYADcNbqKixOukwithifLJU0dS+mMrD7NJHHI3M5p/OZCRfUm195UxQMxmnibTNipZzG3JFUumewZQLNMkWUkuAtex16+K7cGwOegoy2DJUVL5XTTGRxjEsjzd5BAOU2sBce9QHHsFHhnTnoZHl4YWzMfNMXjUEmSOVxs67SMwFt9jZRuxuzMOJ04r8QDp5ah0jmRukkEcMYe5rWRtY4AaNvffr13vLYPglRJiPr+oghp8sDoubjk5x8hLgc0jwxosALAWJ8y58HwnEcODqelihqaTO50AfKYpYw5xcWOOVwe0Ekg79T3ADTs/h45+twmZ8klNGIJYLySCRjHG5jztIdla9otru3krj5HNl6aTDI5XteXzsmjk9lmDSzn3CwaHANNmN1aAe3VM+yGz80Mk9VVPY6qqXNziO/NxxsFmRMzam1zc6X8lznk2wOWiw+Gnmy85GZM2U3b0pXuFjYcHBALHJRsxTEVMuR3ORVlVEw85LYMsG2Lc+VxyuOpBPbonCiwIskL3OBzFpcdbuyuDm2B0j1aL2JzWF9wtEbJYPWUc88XNxSUk1RLUCbnCJGB4vk5vL0jcAXuN5PYnNACEIQAhCEBF7T4b64pZYeLmHL8oat/iAVHEdeh6l9CKoeUbBeYqS9o9jmu9vUH36bfOc37XYuzR2YbiW1voLKEIWgWghCAV4BldTQ0MUbpoWzVUzc4jk/qo2Hdmb75x6uw7ra8Fbj/OxuY6lpmk2yyRR829puDoQTcWBFu1SHKQ0mqbINWSQxujdwItw+vyhLJVNcVKKk9yMVlZO7DMFnnvzMTngbyLBoPVmcQL9i14lhk0Dg2aNzCdRfce4jQ+Qqb2xmdHHS07CRCKeOSw0D3vvdxtv3X/AGivFJMZcNnEhLhBLEYSSSWlxyuaCeFr6dqKyWFLoMvcjafAal+TLC93ONL2WtYtFruuTYDUb7b1qpMKmlkdFHG58jSQ5oHgkGxudw1BG9MG0ta9lDQRtcWtfE5zrEgnLlsDbh0ibLbTxxtwyLPUOg5+WR0jxG+R0haXANJaQQLAHXevPFljPd46nnExUxnBZYSBLE6Nx3XtZ3cRofOotOlbWUzaF8Dal07xI18WaKRmTUBwBcTplzdW8pUnhvqN6urm2uZJM5kIQrSQLpwqgdNNHC3wpHtaOy51d5Bc+RcysLkewLM99W8dFt44u1x8Nw7h0f2ndSqus4INnknhZLMp4WsY1jRZrWhrR1ACwHmW5CFinKCEIQAlLlO2wfhtMydkTZC+ZsZa4kAAse6+nyPpTaqw9Ud7nw/rTPuZkB42C5YfXlU2nnhZDzgIic15IMnBhuNLi9j1gDirSXytV7OyR0FNiEZdlc57JCL3ZI2R2R1xuBbYA8C3tCvvku2vGI0jXuI5+KzJ2j4XB9upwF+/MOCAblA7d4+6hoZqprA90XN2YSQDmlYzePlXU8kvlt9xqr/gf9zEgDku24ficcz3xNj5p7WgNcTe7Sbm/cpvbHGXUlHNUtYHuibmDSSAekBqR3qvfU1+16vxsf2CnHlZ9yavxY+21AVv+X+f4nF84/0I/L/P8Ti+cf6Fv9TfSsf69zsa+3ra2ZoNv6/ddW//ALKg/MRfNs9CAqzZXlomqquCndSxsEsjWFwe4kA8QCE58pu178NpmTsjbIXTNjyuJAsWSOvccegPOmGPDYmkFsUYI1BDGgg9hsts9Ox4s9jXC97OAIv1696ApP8AL/P8Ti+cf6Efl/n+JxfOP9Cub/ZUH5iL5tnoVDeqDgazEYgxrWj1qw2aABfnZtdEBJ/l/n+JxfOP9CmNjeWOasrIaZ1LGxsri0uD3EizSdAR2KxMIwuAwQkwRX5tn9mz4A7F1xYdE0hzYowRuIY0EdxAQHWhCEAIQhAYURtTgjauB0RsHeEx3wXjce7eD2EqXQvU2nlBPBQFVTvje5j2lrmEtc08CP53rUrU2/2T9cN56EezsGo+G0cPlDgfJ1WqtwIJBFiNCDoQeojgVq02qyJ0RllAhCFcSJug2hbzIgqYRNE3+r6RZIzsa4cOz8NForq6lyObDSua51vZJJHPLRcHotta+lr9qi0Kvw1nKPMIm6THo3RMhqoOdbFpG5ryyRo+DceE3s7B1LTi2MNfG2GGIQwNdnyZi5z32tme479Nw4ea0UhFXFPIwiRxbF+ehp4smXmGOZfNfNfLra2ng9u9b8JxxrIXQTQ89CXZw3MWvY7ra4fV39ZUOhe8EcYGESOKVkDmhkFOY+lmL3SF7zoRl6mt1vp1BRyEL1LCPTTPDfUb1zLvWI6B8r2sjaXPcbNaOJ/DvUs43BnZ/BpKuZkMe92rncGMG9x7vpJA4q+MKoGQRMhjFmMaGgce89ZJuSesqJ2I2WZRRW0dK+xlf1kbmj9EXPfcnimJZepu8SWFsiicssyhCFzkAQhCAFWHqjvc+H9aZ9zMrPVYeqO9z4f1pn3MyA28kOGR1OB+t5W5o5XTNcP2946iDYg8CAq4wmqnwDFS2S5jByyACwlhdukaOseEOotLb71afIN7kx+Ml+2Vnlj2K9fU3OxNvUwAuZbe9m90fadLt7Rb3xQDtS1DJGNkY4OY9ocxwNwWkXBB6iClLlt9xqr/AIH/AHMST+QLbW4OHSu1F3U5J4b3ReTVw7M3UAnDlt9xqr/gf9zEgFn1Nfteq8az7BThys+5NX4sfbak/wBTZ7XqvGs+wU4crPuTV+LH22oBD9TN/v3/AC39+rmXy5sJszX1nPespMnN83znspjvmz5d2/wXedM35Mse/Pn/AOU/0oC/UKrOS3Y3EqWrMtZIXRGJ7QOfc/pFzCDlPYDqrTQAvn71RnulF+qx/ezL6BXz96oz3Si/VY/vZkBeuDe14fFR/YC7Fx4N7Xh8VH9gLsQAhCEAIQhACEIQGEobabFNqbyw2ZPx+C/sdbcf0vIeFm9ClCbi8o9Ta2KBraOSF5jlYWPbvad/f2jtGi0q8ccwGGqZllYDbwXDR7fku4d24qvMf5O54ruhPPR9WgkH7O53k17FoVamMuT5MujNPcUUL1NE5ji17S1w3tcCHDvB1C8rpJghCF6AQhC8AIW6jo5JXZIo3SO6mtLj5bbh2lOWAcmsjrPqn5G/m2EF5+U7c3yX7woTtjDzM8cktxUwfCJqmTm4WZj747mtHW48B9J4XVr7J7Kx0bNOnK4dOS38LR71v18eFpXDcOigYI4mBjRwHX1k7ye0rrWfdqHZyXJFMp5MoQhc5AEIQgBCFEbU7RRUNO6omvkbYANALnOO5rQSBfvPAoCXVYeqO9z4f1pn3MyZdhdvafExJzLXsfFbMx4F7G9nAtJBGhHWPKLrXqjvc+H9aZ9zMgJHkG9yY/GS/bKfkg8g3uTH4yX7ZT8gKB5Y9ln4fWMr6a7I5ZA8Ef2c4Oaw7HWLh3OG4BNe1m1DMQ2cnnbYP9hbKz4MgqIrjuOjh2EKwdo8FjrKeSnlF2SNIvpdp968X4tNiO5fNVb64w2SsoJBdsrRHINzXZXB8UzfNcdjiN+4CzfU2e16rxrPsFOHKz7k1fix9tqT/U2e16rxrPsJw5Wfcmr8WPttQCH6mb/fv+W/v1cyobkF2lpaT1365nZFznMZM19cvPXtYcMw86tH8pOF/Hov4vQgGhCWG8o2GEgCtiJJsB0t/mTOgBfP3qjPdKL9Vj+9mX0Cvn71RnulF+qx/ezIC9cG9rw+Kj+wF2Ljwb2vD4qP7AXYgBCEIAQhCAEIQgBCEIAQhCA467DIZhaWJkg4Zmg27r7vIl6t5OKN+rRJH8h9x5nhybFlSU5R2Z6myvpuSxvvKlwHU6MOPnDh9S0jkrd8aFvFH/GrGQrfxFnc98RiDByWM9/UvPyWNb9Zcpag5PqKPUxukI/OPJHmbZp8yZ0KDunLdnjmzVSUkcbcsbGsaODWgDzBb0IVZ4CEIQAhCEAIQhACgdttmY8QpX08jiy5DmvABLXt3Gx3jeCOondvU8hAJfJvyex4WJHc6ZZZbBz8uRoaLkNa254nUk8Bu4yW3Ox8eJQsglkexrJBICzLe4Y5tukDp0z5kxIQEJsds3Hh9M2nje57Guc4OfbN0jfgAFNoQgBKG3XJ1TYm6OSVz45IwW548t3NvcNdmBuAbkfKKb0IBZ2D2JiwyOSOKWR4kcHEvy3BAtplAUntLgzaumlp3uc1srcpc22YC4Ol9OCk0ICq/wAgdH8ZqP8Apf4UfkDo/jNR/wBL/CrUQgKth5CKRrmuFTUXaQR/V8Df4KtJCEAJI265MocSnbPJNKxzY2xhrAy1g57r9Ib+mfMndCA0UkORjWDUMa1oPcLfgt6EIAQhCAEIQgP/2Q==;" vertex="1" parent="1">
          <mxGeometry x="680.53" y="253.55" width="118.7" height="55.9" as="geometry" />
        </mxCell>
      </root>
    </mxGraphModel>
  </diagram>
</mxfile>
